<?xml version="1.0" encoding="utf-8" standalone="no"?>
<!DOCTYPE svg PUBLIC "-//W3C//DTD SVG 1.1//EN"
  "http://www.w3.org/Graphics/SVG/1.1/DTD/svg11.dtd">
<!-- Created with matplotlib (https://matplotlib.org/) -->
<svg height="201.6pt" version="1.1" viewBox="0 0 141.732 201.6" width="141.732pt" xmlns="http://www.w3.org/2000/svg" xmlns:xlink="http://www.w3.org/1999/xlink">
 <defs>
  <style type="text/css">
*{stroke-linecap:butt;stroke-linejoin:round;}
  </style>
 </defs>
 <g id="figure_1">
  <g id="patch_1">
   <path d="M 0 201.6 
L 141.732 201.6 
L 141.732 0 
L 0 0 
z
" style="fill:#ffffff;"/>
  </g>
  <g id="axes_1">
   <g id="patch_2">
    <path d="M 28.3 50.509333 
L 134.242 50.509333 
L 134.242 7.476765 
L 28.3 7.476765 
z
" style="fill:#ffffff;"/>
   </g>
   <g id="matplotlib.axis_1">
    <g id="xtick_1">
     <g id="line2d_1">
      <defs>
       <path d="M 0 0 
L 0 3.5 
" id="m4ba354fac0" style="stroke:#000000;stroke-width:0.8;"/>
      </defs>
      <g>
       <use style="stroke:#000000;stroke-width:0.8;" x="41.54275" xlink:href="#m4ba354fac0" y="50.509333"/>
      </g>
     </g>
     <g id="text_1">
      <!-- $\mathbb{C}^1$ -->
      <defs>
       <path d="M 70.203125 53 
L 67.703125 50.90625 
Q 66.796875 51.796875 64.796875 53.890625 
Q 62.796875 56 62.046875 56.703125 
Q 61.296875 57.40625 59.6875 58.796875 
Q 58.09375 60.203125 56.9375 60.640625 
Q 55.796875 61.09375 53.9375 61.796875 
Q 52.09375 62.5 50.046875 62.703125 
Q 48 62.90625 45.40625 62.90625 
Q 33.59375 62.90625 26.796875 57.703125 
L 13.59375 7.59375 
Q 20.59375 1.90625 29.703125 1.90625 
Q 34 1.90625 37.5 2.546875 
Q 41 3.203125 43.25 3.890625 
Q 45.5 4.59375 48.75 6.796875 
Q 52 9 53.453125 10.203125 
Q 54.90625 11.40625 59.203125 15 
L 61.296875 12.40625 
Q 49.40625 -1.796875 29.09375 -1.796875 
Q 17.296875 -1.796875 10.390625 4.640625 
Q 3.5 11.09375 3.5 22.796875 
Q 3.5 41.09375 15.203125 53.84375 
Q 26.90625 66.59375 45 66.59375 
Q 61.59375 66.59375 70.203125 53 
z
M 10.59375 10.296875 
L 22.90625 56.203125 
Q 15.5 50.40625 11.34375 41.953125 
Q 7.203125 33.5 7.203125 24.203125 
Q 7.203125 14.703125 10.59375 10.296875 
z
" id="STIXGeneral-Italic-8450"/>
       <path d="M 12.40625 8.296875 
L 28.515625 8.296875 
L 28.515625 63.921875 
L 10.984375 60.40625 
L 10.984375 69.390625 
L 28.421875 72.90625 
L 38.28125 72.90625 
L 38.28125 8.296875 
L 54.390625 8.296875 
L 54.390625 0 
L 12.40625 0 
z
" id="DejaVuSans-49"/>
      </defs>
      <g transform="translate(37.20275 62.82824)scale(0.07 -0.07)">
       <use transform="translate(0 0.684375)" xlink:href="#STIXGeneral-Italic-8450"/>
       <use transform="translate(76.333003 38.965625)scale(0.7)" xlink:href="#DejaVuSans-49"/>
      </g>
     </g>
    </g>
    <g id="xtick_2">
     <g id="line2d_2">
      <g>
       <use style="stroke:#000000;stroke-width:0.8;" x="68.02825" xlink:href="#m4ba354fac0" y="50.509333"/>
      </g>
     </g>
     <g id="text_2">
      <!-- $\mathbb{C}^2$ -->
      <defs>
       <path d="M 19.1875 8.296875 
L 53.609375 8.296875 
L 53.609375 0 
L 7.328125 0 
L 7.328125 8.296875 
Q 12.9375 14.109375 22.625 23.890625 
Q 32.328125 33.6875 34.8125 36.53125 
Q 39.546875 41.84375 41.421875 45.53125 
Q 43.3125 49.21875 43.3125 52.78125 
Q 43.3125 58.59375 39.234375 62.25 
Q 35.15625 65.921875 28.609375 65.921875 
Q 23.96875 65.921875 18.8125 64.3125 
Q 13.671875 62.703125 7.8125 59.421875 
L 7.8125 69.390625 
Q 13.765625 71.78125 18.9375 73 
Q 24.125 74.21875 28.421875 74.21875 
Q 39.75 74.21875 46.484375 68.546875 
Q 53.21875 62.890625 53.21875 53.421875 
Q 53.21875 48.921875 51.53125 44.890625 
Q 49.859375 40.875 45.40625 35.40625 
Q 44.1875 33.984375 37.640625 27.21875 
Q 31.109375 20.453125 19.1875 8.296875 
z
" id="DejaVuSans-50"/>
      </defs>
      <g transform="translate(63.68825 62.82824)scale(0.07 -0.07)">
       <use transform="translate(0 0.765625)" xlink:href="#STIXGeneral-Italic-8450"/>
       <use transform="translate(76.333003 39.046875)scale(0.7)" xlink:href="#DejaVuSans-50"/>
      </g>
     </g>
    </g>
    <g id="xtick_3">
     <g id="line2d_3">
      <g>
       <use style="stroke:#000000;stroke-width:0.8;" x="94.51375" xlink:href="#m4ba354fac0" y="50.509333"/>
      </g>
     </g>
     <g id="text_3">
      <!-- $\mathbb{C}^3$ -->
      <defs>
       <path d="M 40.578125 39.3125 
Q 47.65625 37.796875 51.625 33 
Q 55.609375 28.21875 55.609375 21.1875 
Q 55.609375 10.40625 48.1875 4.484375 
Q 40.765625 -1.421875 27.09375 -1.421875 
Q 22.515625 -1.421875 17.65625 -0.515625 
Q 12.796875 0.390625 7.625 2.203125 
L 7.625 11.71875 
Q 11.71875 9.328125 16.59375 8.109375 
Q 21.484375 6.890625 26.8125 6.890625 
Q 36.078125 6.890625 40.9375 10.546875 
Q 45.796875 14.203125 45.796875 21.1875 
Q 45.796875 27.640625 41.28125 31.265625 
Q 36.765625 34.90625 28.71875 34.90625 
L 20.21875 34.90625 
L 20.21875 43.015625 
L 29.109375 43.015625 
Q 36.375 43.015625 40.234375 45.921875 
Q 44.09375 48.828125 44.09375 54.296875 
Q 44.09375 59.90625 40.109375 62.90625 
Q 36.140625 65.921875 28.71875 65.921875 
Q 24.65625 65.921875 20.015625 65.03125 
Q 15.375 64.15625 9.8125 62.3125 
L 9.8125 71.09375 
Q 15.4375 72.65625 20.34375 73.4375 
Q 25.25 74.21875 29.59375 74.21875 
Q 40.828125 74.21875 47.359375 69.109375 
Q 53.90625 64.015625 53.90625 55.328125 
Q 53.90625 49.265625 50.4375 45.09375 
Q 46.96875 40.921875 40.578125 39.3125 
z
" id="DejaVuSans-51"/>
      </defs>
      <g transform="translate(90.17375 62.82824)scale(0.07 -0.07)">
       <use transform="translate(0 0.765625)" xlink:href="#STIXGeneral-Italic-8450"/>
       <use transform="translate(76.333003 39.046875)scale(0.7)" xlink:href="#DejaVuSans-51"/>
      </g>
     </g>
    </g>
    <g id="xtick_4">
     <g id="line2d_4">
      <g>
       <use style="stroke:#000000;stroke-width:0.8;" x="120.99925" xlink:href="#m4ba354fac0" y="50.509333"/>
      </g>
     </g>
     <g id="text_4">
      <!-- $\mathbb{C}^4$ -->
      <defs>
       <path d="M 37.796875 64.3125 
L 12.890625 25.390625 
L 37.796875 25.390625 
z
M 35.203125 72.90625 
L 47.609375 72.90625 
L 47.609375 25.390625 
L 58.015625 25.390625 
L 58.015625 17.1875 
L 47.609375 17.1875 
L 47.609375 0 
L 37.796875 0 
L 37.796875 17.1875 
L 4.890625 17.1875 
L 4.890625 26.703125 
z
" id="DejaVuSans-52"/>
      </defs>
      <g transform="translate(116.65925 62.82824)scale(0.07 -0.07)">
       <use transform="translate(0 0.684375)" xlink:href="#STIXGeneral-Italic-8450"/>
       <use transform="translate(76.333003 38.965625)scale(0.7)" xlink:href="#DejaVuSans-52"/>
      </g>
     </g>
    </g>
   </g>
   <g id="matplotlib.axis_2">
    <g id="ytick_1">
     <g id="line2d_5">
      <defs>
       <path d="M 0 0 
L -3.5 0 
" id="m8207a50273" style="stroke:#000000;stroke-width:0.8;"/>
      </defs>
      <g>
       <use style="stroke:#000000;stroke-width:0.8;" x="28.3" xlink:href="#m8207a50273" y="50.509333"/>
      </g>
     </g>
     <g id="text_5">
      <!-- 0.0 -->
      <defs>
       <path d="M 31.78125 66.40625 
Q 24.171875 66.40625 20.328125 58.90625 
Q 16.5 51.421875 16.5 36.375 
Q 16.5 21.390625 20.328125 13.890625 
Q 24.171875 6.390625 31.78125 6.390625 
Q 39.453125 6.390625 43.28125 13.890625 
Q 47.125 21.390625 47.125 36.375 
Q 47.125 51.421875 43.28125 58.90625 
Q 39.453125 66.40625 31.78125 66.40625 
z
M 31.78125 74.21875 
Q 44.046875 74.21875 50.515625 64.515625 
Q 56.984375 54.828125 56.984375 36.375 
Q 56.984375 17.96875 50.515625 8.265625 
Q 44.046875 -1.421875 31.78125 -1.421875 
Q 19.53125 -1.421875 13.0625 8.265625 
Q 6.59375 17.96875 6.59375 36.375 
Q 6.59375 54.828125 13.0625 64.515625 
Q 19.53125 74.21875 31.78125 74.21875 
z
" id="DejaVuSans-48"/>
       <path d="M 10.6875 12.40625 
L 21 12.40625 
L 21 0 
L 10.6875 0 
z
" id="DejaVuSans-46"/>
      </defs>
      <g transform="translate(13.348437 52.408943)scale(0.05 -0.05)">
       <use xlink:href="#DejaVuSans-48"/>
       <use x="63.623047" xlink:href="#DejaVuSans-46"/>
       <use x="95.410156" xlink:href="#DejaVuSans-48"/>
      </g>
     </g>
    </g>
    <g id="ytick_2">
     <g id="line2d_6">
      <g>
       <use style="stroke:#000000;stroke-width:0.8;" x="28.3" xlink:href="#m8207a50273" y="39.751191"/>
      </g>
     </g>
     <g id="text_6">
      <!-- 0.2 -->
      <g transform="translate(13.348437 41.650801)scale(0.05 -0.05)">
       <use xlink:href="#DejaVuSans-48"/>
       <use x="63.623047" xlink:href="#DejaVuSans-46"/>
       <use x="95.410156" xlink:href="#DejaVuSans-50"/>
      </g>
     </g>
    </g>
    <g id="ytick_3">
     <g id="line2d_7">
      <g>
       <use style="stroke:#000000;stroke-width:0.8;" x="28.3" xlink:href="#m8207a50273" y="28.993049"/>
      </g>
     </g>
     <g id="text_7">
      <!-- 0.4 -->
      <g transform="translate(13.348437 30.892658)scale(0.05 -0.05)">
       <use xlink:href="#DejaVuSans-48"/>
       <use x="63.623047" xlink:href="#DejaVuSans-46"/>
       <use x="95.410156" xlink:href="#DejaVuSans-52"/>
      </g>
     </g>
    </g>
    <g id="ytick_4">
     <g id="line2d_8">
      <g>
       <use style="stroke:#000000;stroke-width:0.8;" x="28.3" xlink:href="#m8207a50273" y="18.234907"/>
      </g>
     </g>
     <g id="text_8">
      <!-- 0.6 -->
      <defs>
       <path d="M 33.015625 40.375 
Q 26.375 40.375 22.484375 35.828125 
Q 18.609375 31.296875 18.609375 23.390625 
Q 18.609375 15.53125 22.484375 10.953125 
Q 26.375 6.390625 33.015625 6.390625 
Q 39.65625 6.390625 43.53125 10.953125 
Q 47.40625 15.53125 47.40625 23.390625 
Q 47.40625 31.296875 43.53125 35.828125 
Q 39.65625 40.375 33.015625 40.375 
z
M 52.59375 71.296875 
L 52.59375 62.3125 
Q 48.875 64.0625 45.09375 64.984375 
Q 41.3125 65.921875 37.59375 65.921875 
Q 27.828125 65.921875 22.671875 59.328125 
Q 17.53125 52.734375 16.796875 39.40625 
Q 19.671875 43.65625 24.015625 45.921875 
Q 28.375 48.1875 33.59375 48.1875 
Q 44.578125 48.1875 50.953125 41.515625 
Q 57.328125 34.859375 57.328125 23.390625 
Q 57.328125 12.15625 50.6875 5.359375 
Q 44.046875 -1.421875 33.015625 -1.421875 
Q 20.359375 -1.421875 13.671875 8.265625 
Q 6.984375 17.96875 6.984375 36.375 
Q 6.984375 53.65625 15.1875 63.9375 
Q 23.390625 74.21875 37.203125 74.21875 
Q 40.921875 74.21875 44.703125 73.484375 
Q 48.484375 72.75 52.59375 71.296875 
z
" id="DejaVuSans-54"/>
      </defs>
      <g transform="translate(13.348437 20.134516)scale(0.05 -0.05)">
       <use xlink:href="#DejaVuSans-48"/>
       <use x="63.623047" xlink:href="#DejaVuSans-46"/>
       <use x="95.410156" xlink:href="#DejaVuSans-54"/>
      </g>
     </g>
    </g>
    <g id="ytick_5">
     <g id="line2d_9">
      <g>
       <use style="stroke:#000000;stroke-width:0.8;" x="28.3" xlink:href="#m8207a50273" y="7.476765"/>
      </g>
     </g>
     <g id="text_9">
      <!-- 0.8 -->
      <defs>
       <path d="M 31.78125 34.625 
Q 24.75 34.625 20.71875 30.859375 
Q 16.703125 27.09375 16.703125 20.515625 
Q 16.703125 13.921875 20.71875 10.15625 
Q 24.75 6.390625 31.78125 6.390625 
Q 38.8125 6.390625 42.859375 10.171875 
Q 46.921875 13.96875 46.921875 20.515625 
Q 46.921875 27.09375 42.890625 30.859375 
Q 38.875 34.625 31.78125 34.625 
z
M 21.921875 38.8125 
Q 15.578125 40.375 12.03125 44.71875 
Q 8.5 49.078125 8.5 55.328125 
Q 8.5 64.0625 14.71875 69.140625 
Q 20.953125 74.21875 31.78125 74.21875 
Q 42.671875 74.21875 48.875 69.140625 
Q 55.078125 64.0625 55.078125 55.328125 
Q 55.078125 49.078125 51.53125 44.71875 
Q 48 40.375 41.703125 38.8125 
Q 48.828125 37.15625 52.796875 32.3125 
Q 56.78125 27.484375 56.78125 20.515625 
Q 56.78125 9.90625 50.3125 4.234375 
Q 43.84375 -1.421875 31.78125 -1.421875 
Q 19.734375 -1.421875 13.25 4.234375 
Q 6.78125 9.90625 6.78125 20.515625 
Q 6.78125 27.484375 10.78125 32.3125 
Q 14.796875 37.15625 21.921875 38.8125 
z
M 18.3125 54.390625 
Q 18.3125 48.734375 21.84375 45.5625 
Q 25.390625 42.390625 31.78125 42.390625 
Q 38.140625 42.390625 41.71875 45.5625 
Q 45.3125 48.734375 45.3125 54.390625 
Q 45.3125 60.0625 41.71875 63.234375 
Q 38.140625 66.40625 31.78125 66.40625 
Q 25.390625 66.40625 21.84375 63.234375 
Q 18.3125 60.0625 18.3125 54.390625 
z
" id="DejaVuSans-56"/>
      </defs>
      <g transform="translate(13.348437 9.376374)scale(0.05 -0.05)">
       <use xlink:href="#DejaVuSans-48"/>
       <use x="63.623047" xlink:href="#DejaVuSans-46"/>
       <use x="95.410156" xlink:href="#DejaVuSans-56"/>
      </g>
     </g>
    </g>
    <g id="text_10">
     <!-- Contact fraction -->
     <defs>
      <path d="M 64.40625 67.28125 
L 64.40625 56.890625 
Q 59.421875 61.53125 53.78125 63.8125 
Q 48.140625 66.109375 41.796875 66.109375 
Q 29.296875 66.109375 22.65625 58.46875 
Q 16.015625 50.828125 16.015625 36.375 
Q 16.015625 21.96875 22.65625 14.328125 
Q 29.296875 6.6875 41.796875 6.6875 
Q 48.140625 6.6875 53.78125 8.984375 
Q 59.421875 11.28125 64.40625 15.921875 
L 64.40625 5.609375 
Q 59.234375 2.09375 53.4375 0.328125 
Q 47.65625 -1.421875 41.21875 -1.421875 
Q 24.65625 -1.421875 15.125 8.703125 
Q 5.609375 18.84375 5.609375 36.375 
Q 5.609375 53.953125 15.125 64.078125 
Q 24.65625 74.21875 41.21875 74.21875 
Q 47.75 74.21875 53.53125 72.484375 
Q 59.328125 70.75 64.40625 67.28125 
z
" id="DejaVuSans-67"/>
      <path d="M 30.609375 48.390625 
Q 23.390625 48.390625 19.1875 42.75 
Q 14.984375 37.109375 14.984375 27.296875 
Q 14.984375 17.484375 19.15625 11.84375 
Q 23.34375 6.203125 30.609375 6.203125 
Q 37.796875 6.203125 41.984375 11.859375 
Q 46.1875 17.53125 46.1875 27.296875 
Q 46.1875 37.015625 41.984375 42.703125 
Q 37.796875 48.390625 30.609375 48.390625 
z
M 30.609375 56 
Q 42.328125 56 49.015625 48.375 
Q 55.71875 40.765625 55.71875 27.296875 
Q 55.71875 13.875 49.015625 6.21875 
Q 42.328125 -1.421875 30.609375 -1.421875 
Q 18.84375 -1.421875 12.171875 6.21875 
Q 5.515625 13.875 5.515625 27.296875 
Q 5.515625 40.765625 12.171875 48.375 
Q 18.84375 56 30.609375 56 
z
" id="DejaVuSans-111"/>
      <path d="M 54.890625 33.015625 
L 54.890625 0 
L 45.90625 0 
L 45.90625 32.71875 
Q 45.90625 40.484375 42.875 44.328125 
Q 39.84375 48.1875 33.796875 48.1875 
Q 26.515625 48.1875 22.3125 43.546875 
Q 18.109375 38.921875 18.109375 30.90625 
L 18.109375 0 
L 9.078125 0 
L 9.078125 54.6875 
L 18.109375 54.6875 
L 18.109375 46.1875 
Q 21.34375 51.125 25.703125 53.5625 
Q 30.078125 56 35.796875 56 
Q 45.21875 56 50.046875 50.171875 
Q 54.890625 44.34375 54.890625 33.015625 
z
" id="DejaVuSans-110"/>
      <path d="M 18.3125 70.21875 
L 18.3125 54.6875 
L 36.8125 54.6875 
L 36.8125 47.703125 
L 18.3125 47.703125 
L 18.3125 18.015625 
Q 18.3125 11.328125 20.140625 9.421875 
Q 21.96875 7.515625 27.59375 7.515625 
L 36.8125 7.515625 
L 36.8125 0 
L 27.59375 0 
Q 17.1875 0 13.234375 3.875 
Q 9.28125 7.765625 9.28125 18.015625 
L 9.28125 47.703125 
L 2.6875 47.703125 
L 2.6875 54.6875 
L 9.28125 54.6875 
L 9.28125 70.21875 
z
" id="DejaVuSans-116"/>
      <path d="M 34.28125 27.484375 
Q 23.390625 27.484375 19.1875 25 
Q 14.984375 22.515625 14.984375 16.5 
Q 14.984375 11.71875 18.140625 8.90625 
Q 21.296875 6.109375 26.703125 6.109375 
Q 34.1875 6.109375 38.703125 11.40625 
Q 43.21875 16.703125 43.21875 25.484375 
L 43.21875 27.484375 
z
M 52.203125 31.203125 
L 52.203125 0 
L 43.21875 0 
L 43.21875 8.296875 
Q 40.140625 3.328125 35.546875 0.953125 
Q 30.953125 -1.421875 24.3125 -1.421875 
Q 15.921875 -1.421875 10.953125 3.296875 
Q 6 8.015625 6 15.921875 
Q 6 25.140625 12.171875 29.828125 
Q 18.359375 34.515625 30.609375 34.515625 
L 43.21875 34.515625 
L 43.21875 35.40625 
Q 43.21875 41.609375 39.140625 45 
Q 35.0625 48.390625 27.6875 48.390625 
Q 23 48.390625 18.546875 47.265625 
Q 14.109375 46.140625 10.015625 43.890625 
L 10.015625 52.203125 
Q 14.9375 54.109375 19.578125 55.046875 
Q 24.21875 56 28.609375 56 
Q 40.484375 56 46.34375 49.84375 
Q 52.203125 43.703125 52.203125 31.203125 
z
" id="DejaVuSans-97"/>
      <path d="M 48.78125 52.59375 
L 48.78125 44.1875 
Q 44.96875 46.296875 41.140625 47.34375 
Q 37.3125 48.390625 33.40625 48.390625 
Q 24.65625 48.390625 19.8125 42.84375 
Q 14.984375 37.3125 14.984375 27.296875 
Q 14.984375 17.28125 19.8125 11.734375 
Q 24.65625 6.203125 33.40625 6.203125 
Q 37.3125 6.203125 41.140625 7.25 
Q 44.96875 8.296875 48.78125 10.40625 
L 48.78125 2.09375 
Q 45.015625 0.34375 40.984375 -0.53125 
Q 36.96875 -1.421875 32.421875 -1.421875 
Q 20.0625 -1.421875 12.78125 6.34375 
Q 5.515625 14.109375 5.515625 27.296875 
Q 5.515625 40.671875 12.859375 48.328125 
Q 20.21875 56 33.015625 56 
Q 37.15625 56 41.109375 55.140625 
Q 45.0625 54.296875 48.78125 52.59375 
z
" id="DejaVuSans-99"/>
      <path id="DejaVuSans-32"/>
      <path d="M 37.109375 75.984375 
L 37.109375 68.5 
L 28.515625 68.5 
Q 23.6875 68.5 21.796875 66.546875 
Q 19.921875 64.59375 19.921875 59.515625 
L 19.921875 54.6875 
L 34.71875 54.6875 
L 34.71875 47.703125 
L 19.921875 47.703125 
L 19.921875 0 
L 10.890625 0 
L 10.890625 47.703125 
L 2.296875 47.703125 
L 2.296875 54.6875 
L 10.890625 54.6875 
L 10.890625 58.5 
Q 10.890625 67.625 15.140625 71.796875 
Q 19.390625 75.984375 28.609375 75.984375 
z
" id="DejaVuSans-102"/>
      <path d="M 41.109375 46.296875 
Q 39.59375 47.171875 37.8125 47.578125 
Q 36.03125 48 33.890625 48 
Q 26.265625 48 22.1875 43.046875 
Q 18.109375 38.09375 18.109375 28.8125 
L 18.109375 0 
L 9.078125 0 
L 9.078125 54.6875 
L 18.109375 54.6875 
L 18.109375 46.1875 
Q 20.953125 51.171875 25.484375 53.578125 
Q 30.03125 56 36.53125 56 
Q 37.453125 56 38.578125 55.875 
Q 39.703125 55.765625 41.0625 55.515625 
z
" id="DejaVuSans-114"/>
      <path d="M 9.421875 54.6875 
L 18.40625 54.6875 
L 18.40625 0 
L 9.421875 0 
z
M 9.421875 75.984375 
L 18.40625 75.984375 
L 18.40625 64.59375 
L 9.421875 64.59375 
z
" id="DejaVuSans-105"/>
     </defs>
     <g transform="translate(7.892656 57.166955)rotate(-90)scale(0.07 -0.07)">
      <use xlink:href="#DejaVuSans-67"/>
      <use x="69.824219" xlink:href="#DejaVuSans-111"/>
      <use x="131.005859" xlink:href="#DejaVuSans-110"/>
      <use x="194.384766" xlink:href="#DejaVuSans-116"/>
      <use x="233.59375" xlink:href="#DejaVuSans-97"/>
      <use x="294.873047" xlink:href="#DejaVuSans-99"/>
      <use x="349.853516" xlink:href="#DejaVuSans-116"/>
      <use x="389.0625" xlink:href="#DejaVuSans-32"/>
      <use x="420.849609" xlink:href="#DejaVuSans-102"/>
      <use x="456.054688" xlink:href="#DejaVuSans-114"/>
      <use x="497.167969" xlink:href="#DejaVuSans-97"/>
      <use x="558.447266" xlink:href="#DejaVuSans-99"/>
      <use x="613.427734" xlink:href="#DejaVuSans-116"/>
      <use x="652.636719" xlink:href="#DejaVuSans-105"/>
      <use x="680.419922" xlink:href="#DejaVuSans-111"/>
      <use x="741.601562" xlink:href="#DejaVuSans-110"/>
     </g>
    </g>
   </g>
   <g id="patch_3">
    <path clip-path="url(#p2c8fa88210)" d="M 32.53768 50.509333 
L 41.277895 50.509333 
L 41.277895 34.798185 
L 32.53768 34.798185 
z
" style="fill:#666666;"/>
   </g>
   <g id="patch_4">
    <path clip-path="url(#p2c8fa88210)" d="M 59.02318 50.509333 
L 67.763395 50.509333 
L 67.763395 39.964224 
L 59.02318 39.964224 
z
" style="fill:#666666;"/>
   </g>
   <g id="patch_5">
    <path clip-path="url(#p2c8fa88210)" d="M 85.50868 50.509333 
L 94.248895 50.509333 
L 94.248895 44.0651 
L 85.50868 44.0651 
z
" style="fill:#666666;"/>
   </g>
   <g id="patch_6">
    <path clip-path="url(#p2c8fa88210)" d="M 111.99418 50.509333 
L 120.734395 50.509333 
L 120.734395 29.419114 
L 111.99418 29.419114 
z
" style="fill:#666666;"/>
   </g>
   <g id="patch_7">
    <path clip-path="url(#p2c8fa88210)" d="M 41.807605 50.509333 
L 50.54782 50.509333 
L 50.54782 34.680264 
L 41.807605 34.680264 
z
" style="fill:#a20000;"/>
   </g>
   <g id="patch_8">
    <path clip-path="url(#p2c8fa88210)" d="M 68.293105 50.509333 
L 77.03332 50.509333 
L 77.03332 40.119934 
L 68.293105 40.119934 
z
" style="fill:#a20000;"/>
   </g>
   <g id="patch_9">
    <path clip-path="url(#p2c8fa88210)" d="M 94.778605 50.509333 
L 103.51882 50.509333 
L 103.51882 44.123836 
L 94.778605 44.123836 
z
" style="fill:#a20000;"/>
   </g>
   <g id="patch_10">
    <path clip-path="url(#p2c8fa88210)" d="M 121.264105 50.509333 
L 130.00432 50.509333 
L 130.00432 29.322588 
L 121.264105 29.322588 
z
" style="fill:#a20000;"/>
   </g>
   <g id="patch_11">
    <path d="M 28.3 50.509333 
L 28.3 7.476765 
" style="fill:none;stroke:#000000;stroke-linecap:square;stroke-linejoin:miter;stroke-width:0.8;"/>
   </g>
   <g id="patch_12">
    <path d="M 134.242 50.509333 
L 134.242 7.476765 
" style="fill:none;stroke:#000000;stroke-linecap:square;stroke-linejoin:miter;stroke-width:0.8;"/>
   </g>
   <g id="patch_13">
    <path d="M 28.3 50.509333 
L 134.242 50.509333 
" style="fill:none;stroke:#000000;stroke-linecap:square;stroke-linejoin:miter;stroke-width:0.8;"/>
   </g>
   <g id="patch_14">
    <path d="M 28.3 7.476765 
L 134.242 7.476765 
" style="fill:none;stroke:#000000;stroke-linecap:square;stroke-linejoin:miter;stroke-width:0.8;"/>
   </g>
   <g id="legend_1">
    <g id="patch_15">
     <path d="M 32.5 29.916765 
L 126.22 29.916765 
Q 127.42 29.916765 127.42 28.716765 
L 127.42 11.676765 
Q 127.42 10.476765 126.22 10.476765 
L 32.5 10.476765 
Q 31.3 10.476765 31.3 11.676765 
L 31.3 28.716765 
Q 31.3 29.916765 32.5 29.916765 
z
" style="fill:#ffffff;opacity:0.8;stroke:#cccccc;stroke-linejoin:miter;"/>
    </g>
    <g id="patch_16">
     <path d="M 33.7 17.436765 
L 45.7 17.436765 
L 45.7 13.236765 
L 33.7 13.236765 
z
" style="fill:#666666;"/>
    </g>
    <g id="text_11">
     <!-- Empirical ($n$ = 1010) -->
     <defs>
      <path d="M 9.8125 72.90625 
L 55.90625 72.90625 
L 55.90625 64.59375 
L 19.671875 64.59375 
L 19.671875 43.015625 
L 54.390625 43.015625 
L 54.390625 34.71875 
L 19.671875 34.71875 
L 19.671875 8.296875 
L 56.78125 8.296875 
L 56.78125 0 
L 9.8125 0 
z
" id="DejaVuSans-69"/>
      <path d="M 52 44.1875 
Q 55.375 50.25 60.0625 53.125 
Q 64.75 56 71.09375 56 
Q 79.640625 56 84.28125 50.015625 
Q 88.921875 44.046875 88.921875 33.015625 
L 88.921875 0 
L 79.890625 0 
L 79.890625 32.71875 
Q 79.890625 40.578125 77.09375 44.375 
Q 74.3125 48.1875 68.609375 48.1875 
Q 61.625 48.1875 57.5625 43.546875 
Q 53.515625 38.921875 53.515625 30.90625 
L 53.515625 0 
L 44.484375 0 
L 44.484375 32.71875 
Q 44.484375 40.625 41.703125 44.40625 
Q 38.921875 48.1875 33.109375 48.1875 
Q 26.21875 48.1875 22.15625 43.53125 
Q 18.109375 38.875 18.109375 30.90625 
L 18.109375 0 
L 9.078125 0 
L 9.078125 54.6875 
L 18.109375 54.6875 
L 18.109375 46.1875 
Q 21.1875 51.21875 25.484375 53.609375 
Q 29.78125 56 35.6875 56 
Q 41.65625 56 45.828125 52.96875 
Q 50 49.953125 52 44.1875 
z
" id="DejaVuSans-109"/>
      <path d="M 18.109375 8.203125 
L 18.109375 -20.796875 
L 9.078125 -20.796875 
L 9.078125 54.6875 
L 18.109375 54.6875 
L 18.109375 46.390625 
Q 20.953125 51.265625 25.265625 53.625 
Q 29.59375 56 35.59375 56 
Q 45.5625 56 51.78125 48.09375 
Q 58.015625 40.1875 58.015625 27.296875 
Q 58.015625 14.40625 51.78125 6.484375 
Q 45.5625 -1.421875 35.59375 -1.421875 
Q 29.59375 -1.421875 25.265625 0.953125 
Q 20.953125 3.328125 18.109375 8.203125 
z
M 48.6875 27.296875 
Q 48.6875 37.203125 44.609375 42.84375 
Q 40.53125 48.484375 33.40625 48.484375 
Q 26.265625 48.484375 22.1875 42.84375 
Q 18.109375 37.203125 18.109375 27.296875 
Q 18.109375 17.390625 22.1875 11.75 
Q 26.265625 6.109375 33.40625 6.109375 
Q 40.53125 6.109375 44.609375 11.75 
Q 48.6875 17.390625 48.6875 27.296875 
z
" id="DejaVuSans-112"/>
      <path d="M 9.421875 75.984375 
L 18.40625 75.984375 
L 18.40625 0 
L 9.421875 0 
z
" id="DejaVuSans-108"/>
      <path d="M 31 75.875 
Q 24.46875 64.65625 21.28125 53.65625 
Q 18.109375 42.671875 18.109375 31.390625 
Q 18.109375 20.125 21.3125 9.0625 
Q 24.515625 -2 31 -13.1875 
L 23.1875 -13.1875 
Q 15.875 -1.703125 12.234375 9.375 
Q 8.59375 20.453125 8.59375 31.390625 
Q 8.59375 42.28125 12.203125 53.3125 
Q 15.828125 64.359375 23.1875 75.875 
z
" id="DejaVuSans-40"/>
      <path d="M 55.71875 33.015625 
L 49.3125 0 
L 40.28125 0 
L 46.6875 32.671875 
Q 47.125 34.96875 47.359375 36.71875 
Q 47.609375 38.484375 47.609375 39.5 
Q 47.609375 43.609375 45.015625 45.890625 
Q 42.4375 48.1875 37.796875 48.1875 
Q 30.5625 48.1875 25.34375 43.375 
Q 20.125 38.578125 18.5 30.328125 
L 12.5 0 
L 3.515625 0 
L 14.109375 54.6875 
L 23.09375 54.6875 
L 21.296875 46.09375 
Q 25.046875 50.828125 30.3125 53.40625 
Q 35.59375 56 41.40625 56 
Q 48.640625 56 52.609375 52.09375 
Q 56.59375 48.1875 56.59375 41.109375 
Q 56.59375 39.359375 56.375 37.359375 
Q 56.15625 35.359375 55.71875 33.015625 
z
" id="DejaVuSans-Oblique-110"/>
      <path d="M 10.59375 45.40625 
L 73.1875 45.40625 
L 73.1875 37.203125 
L 10.59375 37.203125 
z
M 10.59375 25.484375 
L 73.1875 25.484375 
L 73.1875 17.1875 
L 10.59375 17.1875 
z
" id="DejaVuSans-61"/>
      <path d="M 8.015625 75.875 
L 15.828125 75.875 
Q 23.140625 64.359375 26.78125 53.3125 
Q 30.421875 42.28125 30.421875 31.390625 
Q 30.421875 20.453125 26.78125 9.375 
Q 23.140625 -1.703125 15.828125 -13.1875 
L 8.015625 -13.1875 
Q 14.5 -2 17.703125 9.0625 
Q 20.90625 20.125 20.90625 31.390625 
Q 20.90625 42.671875 17.703125 53.65625 
Q 14.5 64.65625 8.015625 75.875 
z
" id="DejaVuSans-41"/>
     </defs>
     <g transform="translate(50.5 17.436765)scale(0.06 -0.06)">
      <use transform="translate(0 0.015625)" xlink:href="#DejaVuSans-69"/>
      <use transform="translate(63.183594 0.015625)" xlink:href="#DejaVuSans-109"/>
      <use transform="translate(160.595703 0.015625)" xlink:href="#DejaVuSans-112"/>
      <use transform="translate(224.072266 0.015625)" xlink:href="#DejaVuSans-105"/>
      <use transform="translate(251.855469 0.015625)" xlink:href="#DejaVuSans-114"/>
      <use transform="translate(292.96875 0.015625)" xlink:href="#DejaVuSans-105"/>
      <use transform="translate(320.751953 0.015625)" xlink:href="#DejaVuSans-99"/>
      <use transform="translate(375.732422 0.015625)" xlink:href="#DejaVuSans-97"/>
      <use transform="translate(437.011719 0.015625)" xlink:href="#DejaVuSans-108"/>
      <use transform="translate(464.794922 0.015625)" xlink:href="#DejaVuSans-32"/>
      <use transform="translate(496.582031 0.015625)" xlink:href="#DejaVuSans-40"/>
      <use transform="translate(535.595703 0.015625)" xlink:href="#DejaVuSans-Oblique-110"/>
      <use transform="translate(598.974609 0.015625)" xlink:href="#DejaVuSans-32"/>
      <use transform="translate(630.761719 0.015625)" xlink:href="#DejaVuSans-61"/>
      <use transform="translate(714.550781 0.015625)" xlink:href="#DejaVuSans-32"/>
      <use transform="translate(746.337891 0.015625)" xlink:href="#DejaVuSans-49"/>
      <use transform="translate(809.960938 0.015625)" xlink:href="#DejaVuSans-48"/>
      <use transform="translate(873.583984 0.015625)" xlink:href="#DejaVuSans-49"/>
      <use transform="translate(937.207031 0.015625)" xlink:href="#DejaVuSans-48"/>
      <use transform="translate(1000.830078 0.015625)" xlink:href="#DejaVuSans-41"/>
     </g>
    </g>
    <g id="patch_17">
     <path d="M 33.7 26.256765 
L 45.7 26.256765 
L 45.7 22.056765 
L 33.7 22.056765 
z
" style="fill:#a20000;"/>
    </g>
    <g id="text_12">
     <!-- ($p$,$s$,$f$) = (0.96,0.70,0.39) -->
     <defs>
      <path d="M 49.609375 33.6875 
Q 49.609375 40.875 46.484375 44.671875 
Q 43.359375 48.484375 37.5 48.484375 
Q 33.5 48.484375 29.859375 46.4375 
Q 26.21875 44.390625 23.390625 40.484375 
Q 20.609375 36.625 18.9375 31.15625 
Q 17.28125 25.6875 17.28125 20.3125 
Q 17.28125 13.484375 20.40625 9.796875 
Q 23.53125 6.109375 29.296875 6.109375 
Q 33.546875 6.109375 37.1875 8.109375 
Q 40.828125 10.109375 43.40625 13.921875 
Q 46.1875 17.921875 47.890625 23.34375 
Q 49.609375 28.765625 49.609375 33.6875 
z
M 21.78125 46.390625 
Q 25.390625 51.125 30.296875 53.5625 
Q 35.203125 56 41.21875 56 
Q 49.609375 56 54.25 50.5 
Q 58.890625 45.015625 58.890625 35.109375 
Q 58.890625 27 56 19.65625 
Q 53.125 12.3125 47.703125 6.5 
Q 44.09375 2.640625 39.546875 0.609375 
Q 35.015625 -1.421875 29.984375 -1.421875 
Q 24.171875 -1.421875 20.21875 1 
Q 16.265625 3.421875 14.3125 8.203125 
L 8.6875 -20.796875 
L -0.296875 -20.796875 
L 14.40625 54.6875 
L 23.390625 54.6875 
z
" id="DejaVuSans-Oblique-112"/>
      <path d="M 11.71875 12.40625 
L 22.015625 12.40625 
L 22.015625 4 
L 14.015625 -11.625 
L 7.71875 -11.625 
L 11.71875 4 
z
" id="DejaVuSans-44"/>
      <path d="M 50 53.078125 
L 48.296875 44.578125 
Q 44.734375 46.53125 40.765625 47.5 
Q 36.8125 48.484375 32.625 48.484375 
Q 25.53125 48.484375 21.453125 46.0625 
Q 17.390625 43.65625 17.390625 39.5 
Q 17.390625 34.671875 26.859375 32.078125 
Q 27.59375 31.890625 27.9375 31.78125 
L 30.8125 30.90625 
Q 39.796875 28.421875 42.796875 25.6875 
Q 45.796875 22.953125 45.796875 18.21875 
Q 45.796875 9.515625 38.890625 4.046875 
Q 31.984375 -1.421875 20.796875 -1.421875 
Q 16.453125 -1.421875 11.671875 -0.578125 
Q 6.890625 0.25 1.125 2 
L 2.875 11.28125 
Q 7.8125 8.734375 12.59375 7.421875 
Q 17.390625 6.109375 21.78125 6.109375 
Q 28.375 6.109375 32.5 8.9375 
Q 36.625 11.765625 36.625 16.109375 
Q 36.625 20.796875 25.78125 23.6875 
L 24.859375 23.921875 
L 21.78125 24.703125 
Q 14.9375 26.515625 11.765625 29.46875 
Q 8.59375 32.421875 8.59375 37.015625 
Q 8.59375 45.75 15.15625 50.875 
Q 21.734375 56 33.015625 56 
Q 37.453125 56 41.671875 55.265625 
Q 45.90625 54.546875 50 53.078125 
z
" id="DejaVuSans-Oblique-115"/>
      <path d="M 47.796875 75.984375 
L 46.390625 68.5 
L 37.796875 68.5 
Q 32.90625 68.5 30.6875 66.578125 
Q 28.46875 64.65625 27.390625 59.515625 
L 26.421875 54.6875 
L 41.21875 54.6875 
L 39.890625 47.703125 
L 25.09375 47.703125 
L 15.828125 0 
L 6.78125 0 
L 16.109375 47.703125 
L 7.515625 47.703125 
L 8.796875 54.6875 
L 17.390625 54.6875 
L 18.109375 58.5 
Q 19.96875 68.171875 24.625 72.078125 
Q 29.296875 75.984375 39.3125 75.984375 
z
" id="DejaVuSans-Oblique-102"/>
      <path d="M 10.984375 1.515625 
L 10.984375 10.5 
Q 14.703125 8.734375 18.5 7.8125 
Q 22.3125 6.890625 25.984375 6.890625 
Q 35.75 6.890625 40.890625 13.453125 
Q 46.046875 20.015625 46.78125 33.40625 
Q 43.953125 29.203125 39.59375 26.953125 
Q 35.25 24.703125 29.984375 24.703125 
Q 19.046875 24.703125 12.671875 31.3125 
Q 6.296875 37.9375 6.296875 49.421875 
Q 6.296875 60.640625 12.9375 67.421875 
Q 19.578125 74.21875 30.609375 74.21875 
Q 43.265625 74.21875 49.921875 64.515625 
Q 56.59375 54.828125 56.59375 36.375 
Q 56.59375 19.140625 48.40625 8.859375 
Q 40.234375 -1.421875 26.421875 -1.421875 
Q 22.703125 -1.421875 18.890625 -0.6875 
Q 15.09375 0.046875 10.984375 1.515625 
z
M 30.609375 32.421875 
Q 37.25 32.421875 41.125 36.953125 
Q 45.015625 41.5 45.015625 49.421875 
Q 45.015625 57.28125 41.125 61.84375 
Q 37.25 66.40625 30.609375 66.40625 
Q 23.96875 66.40625 20.09375 61.84375 
Q 16.21875 57.28125 16.21875 49.421875 
Q 16.21875 41.5 20.09375 36.953125 
Q 23.96875 32.421875 30.609375 32.421875 
z
" id="DejaVuSans-57"/>
      <path d="M 8.203125 72.90625 
L 55.078125 72.90625 
L 55.078125 68.703125 
L 28.609375 0 
L 18.3125 0 
L 43.21875 64.59375 
L 8.203125 64.59375 
z
" id="DejaVuSans-55"/>
     </defs>
     <g transform="translate(50.5 26.256765)scale(0.06 -0.06)">
      <use transform="translate(0 0.015625)" xlink:href="#DejaVuSans-40"/>
      <use transform="translate(39.013672 0.015625)" xlink:href="#DejaVuSans-Oblique-112"/>
      <use transform="translate(102.490234 0.015625)" xlink:href="#DejaVuSans-44"/>
      <use transform="translate(134.277344 0.015625)" xlink:href="#DejaVuSans-Oblique-115"/>
      <use transform="translate(186.376953 0.015625)" xlink:href="#DejaVuSans-44"/>
      <use transform="translate(218.164062 0.015625)" xlink:href="#DejaVuSans-Oblique-102"/>
      <use transform="translate(253.369141 0.015625)" xlink:href="#DejaVuSans-41"/>
      <use transform="translate(292.382812 0.015625)" xlink:href="#DejaVuSans-32"/>
      <use transform="translate(324.169922 0.015625)" xlink:href="#DejaVuSans-61"/>
      <use transform="translate(407.958984 0.015625)" xlink:href="#DejaVuSans-32"/>
      <use transform="translate(439.746094 0.015625)" xlink:href="#DejaVuSans-40"/>
      <use transform="translate(478.759766 0.015625)" xlink:href="#DejaVuSans-48"/>
      <use transform="translate(542.382812 0.015625)" xlink:href="#DejaVuSans-46"/>
      <use transform="translate(574.169922 0.015625)" xlink:href="#DejaVuSans-57"/>
      <use transform="translate(637.792969 0.015625)" xlink:href="#DejaVuSans-54"/>
      <use transform="translate(701.416016 0.015625)" xlink:href="#DejaVuSans-44"/>
      <use transform="translate(733.203125 0.015625)" xlink:href="#DejaVuSans-48"/>
      <use transform="translate(796.826172 0.015625)" xlink:href="#DejaVuSans-46"/>
      <use transform="translate(820.863281 0.015625)" xlink:href="#DejaVuSans-55"/>
      <use transform="translate(884.486328 0.015625)" xlink:href="#DejaVuSans-48"/>
      <use transform="translate(948.109375 0.015625)" xlink:href="#DejaVuSans-44"/>
      <use transform="translate(979.896484 0.015625)" xlink:href="#DejaVuSans-48"/>
      <use transform="translate(1043.519531 0.015625)" xlink:href="#DejaVuSans-46"/>
      <use transform="translate(1075.306641 0.015625)" xlink:href="#DejaVuSans-51"/>
      <use transform="translate(1138.929688 0.015625)" xlink:href="#DejaVuSans-57"/>
      <use transform="translate(1202.552734 0.015625)" xlink:href="#DejaVuSans-41"/>
     </g>
    </g>
   </g>
  </g>
  <g id="axes_2">
   <g id="patch_18">
    <path d="M 28.3 117.954667 
L 134.242 117.954667 
L 134.242 74.922098 
L 28.3 74.922098 
z
" style="fill:#ffffff;"/>
   </g>
   <g id="matplotlib.axis_3">
    <g id="xtick_5">
     <g id="line2d_10">
      <g>
       <use style="stroke:#000000;stroke-width:0.8;" x="41.54275" xlink:href="#m4ba354fac0" y="117.954667"/>
      </g>
     </g>
     <g id="text_13">
      <!-- $\mathbb{G}^1$ -->
      <defs>
       <path d="M 70.203125 53.296875 
L 67.703125 51.09375 
Q 67.203125 51.59375 65.640625 53.1875 
Q 64.09375 54.796875 63.6875 55.1875 
Q 63.296875 55.59375 61.9375 56.890625 
Q 60.59375 58.203125 60.09375 58.546875 
Q 59.59375 58.90625 58.296875 59.796875 
Q 57 60.703125 56.25 60.953125 
Q 55.5 61.203125 54.140625 61.75 
Q 52.796875 62.296875 51.546875 62.4375 
Q 50.296875 62.59375 48.75 62.75 
Q 47.203125 62.90625 45.40625 62.90625 
Q 33.203125 62.90625 26.796875 57.703125 
L 13.59375 8.203125 
Q 18.09375 1.90625 29.296875 1.90625 
Q 37.09375 1.90625 43.296875 4.703125 
L 49.40625 26.59375 
L 35.59375 26.59375 
L 36.59375 30.296875 
L 66.203125 30.296875 
L 60.203125 7.40625 
Q 44.796875 -1.796875 29.796875 -1.796875 
Q 17.90625 -1.796875 10.703125 4.546875 
Q 3.5 10.90625 3.5 22.703125 
Q 3.5 34.703125 8.640625 44.703125 
Q 13.796875 54.703125 23.34375 60.640625 
Q 32.90625 66.59375 45 66.59375 
Q 60.90625 66.59375 70.203125 53.296875 
z
M 61.5 26.59375 
L 53.09375 26.59375 
L 47.40625 6 
L 57.203125 10.296875 
z
M 10.59375 10.40625 
L 22.90625 56.296875 
Q 15.59375 50.5 11.390625 42 
Q 7.203125 33.5 7.203125 24.203125 
Q 7.203125 19.59375 7.84375 16.640625 
Q 8.5 13.703125 10.59375 10.40625 
z
" id="STIXNonUnicode-Italic-57688"/>
      </defs>
      <g transform="translate(37.37775 130.273573)scale(0.07 -0.07)">
       <use transform="translate(0 0.684375)" xlink:href="#STIXNonUnicode-Italic-57688"/>
       <use transform="translate(71.157013 38.965625)scale(0.7)" xlink:href="#DejaVuSans-49"/>
      </g>
     </g>
    </g>
    <g id="xtick_6">
     <g id="line2d_11">
      <g>
       <use style="stroke:#000000;stroke-width:0.8;" x="68.02825" xlink:href="#m4ba354fac0" y="117.954667"/>
      </g>
     </g>
     <g id="text_14">
      <!-- $\mathbb{G}^2$ -->
      <g transform="translate(63.86325 130.273573)scale(0.07 -0.07)">
       <use transform="translate(0 0.765625)" xlink:href="#STIXNonUnicode-Italic-57688"/>
       <use transform="translate(71.157013 39.046875)scale(0.7)" xlink:href="#DejaVuSans-50"/>
      </g>
     </g>
    </g>
    <g id="xtick_7">
     <g id="line2d_12">
      <g>
       <use style="stroke:#000000;stroke-width:0.8;" x="94.51375" xlink:href="#m4ba354fac0" y="117.954667"/>
      </g>
     </g>
     <g id="text_15">
      <!-- $\mathbb{G}^3$ -->
      <g transform="translate(90.34875 130.273573)scale(0.07 -0.07)">
       <use transform="translate(0 0.765625)" xlink:href="#STIXNonUnicode-Italic-57688"/>
       <use transform="translate(71.157013 39.046875)scale(0.7)" xlink:href="#DejaVuSans-51"/>
      </g>
     </g>
    </g>
    <g id="xtick_8">
     <g id="line2d_13">
      <g>
       <use style="stroke:#000000;stroke-width:0.8;" x="120.99925" xlink:href="#m4ba354fac0" y="117.954667"/>
      </g>
     </g>
     <g id="text_16">
      <!-- $\mathbb{G}^4$ -->
      <g transform="translate(116.83425 130.273573)scale(0.07 -0.07)">
       <use transform="translate(0 0.684375)" xlink:href="#STIXNonUnicode-Italic-57688"/>
       <use transform="translate(71.157013 38.965625)scale(0.7)" xlink:href="#DejaVuSans-52"/>
      </g>
     </g>
    </g>
   </g>
   <g id="matplotlib.axis_4">
    <g id="ytick_6">
     <g id="line2d_14">
      <g>
       <use style="stroke:#000000;stroke-width:0.8;" x="28.3" xlink:href="#m8207a50273" y="117.954667"/>
      </g>
     </g>
     <g id="text_17">
      <!-- 0.0 -->
      <g transform="translate(13.348437 119.854276)scale(0.05 -0.05)">
       <use xlink:href="#DejaVuSans-48"/>
       <use x="63.623047" xlink:href="#DejaVuSans-46"/>
       <use x="95.410156" xlink:href="#DejaVuSans-48"/>
      </g>
     </g>
    </g>
    <g id="ytick_7">
     <g id="line2d_15">
      <g>
       <use style="stroke:#000000;stroke-width:0.8;" x="28.3" xlink:href="#m8207a50273" y="107.196525"/>
      </g>
     </g>
     <g id="text_18">
      <!-- 0.2 -->
      <g transform="translate(13.348437 109.096134)scale(0.05 -0.05)">
       <use xlink:href="#DejaVuSans-48"/>
       <use x="63.623047" xlink:href="#DejaVuSans-46"/>
       <use x="95.410156" xlink:href="#DejaVuSans-50"/>
      </g>
     </g>
    </g>
    <g id="ytick_8">
     <g id="line2d_16">
      <g>
       <use style="stroke:#000000;stroke-width:0.8;" x="28.3" xlink:href="#m8207a50273" y="96.438382"/>
      </g>
     </g>
     <g id="text_19">
      <!-- 0.4 -->
      <g transform="translate(13.348437 98.337992)scale(0.05 -0.05)">
       <use xlink:href="#DejaVuSans-48"/>
       <use x="63.623047" xlink:href="#DejaVuSans-46"/>
       <use x="95.410156" xlink:href="#DejaVuSans-52"/>
      </g>
     </g>
    </g>
    <g id="ytick_9">
     <g id="line2d_17">
      <g>
       <use style="stroke:#000000;stroke-width:0.8;" x="28.3" xlink:href="#m8207a50273" y="85.68024"/>
      </g>
     </g>
     <g id="text_20">
      <!-- 0.6 -->
      <g transform="translate(13.348437 87.57985)scale(0.05 -0.05)">
       <use xlink:href="#DejaVuSans-48"/>
       <use x="63.623047" xlink:href="#DejaVuSans-46"/>
       <use x="95.410156" xlink:href="#DejaVuSans-54"/>
      </g>
     </g>
    </g>
    <g id="ytick_10">
     <g id="line2d_18">
      <g>
       <use style="stroke:#000000;stroke-width:0.8;" x="28.3" xlink:href="#m8207a50273" y="74.922098"/>
      </g>
     </g>
     <g id="text_21">
      <!-- 0.8 -->
      <g transform="translate(13.348437 76.821707)scale(0.05 -0.05)">
       <use xlink:href="#DejaVuSans-48"/>
       <use x="63.623047" xlink:href="#DejaVuSans-46"/>
       <use x="95.410156" xlink:href="#DejaVuSans-56"/>
      </g>
     </g>
    </g>
    <g id="text_22">
     <!-- Contact fraction -->
     <g transform="translate(7.892656 124.612289)rotate(-90)scale(0.07 -0.07)">
      <use xlink:href="#DejaVuSans-67"/>
      <use x="69.824219" xlink:href="#DejaVuSans-111"/>
      <use x="131.005859" xlink:href="#DejaVuSans-110"/>
      <use x="194.384766" xlink:href="#DejaVuSans-116"/>
      <use x="233.59375" xlink:href="#DejaVuSans-97"/>
      <use x="294.873047" xlink:href="#DejaVuSans-99"/>
      <use x="349.853516" xlink:href="#DejaVuSans-116"/>
      <use x="389.0625" xlink:href="#DejaVuSans-32"/>
      <use x="420.849609" xlink:href="#DejaVuSans-102"/>
      <use x="456.054688" xlink:href="#DejaVuSans-114"/>
      <use x="497.167969" xlink:href="#DejaVuSans-97"/>
      <use x="558.447266" xlink:href="#DejaVuSans-99"/>
      <use x="613.427734" xlink:href="#DejaVuSans-116"/>
      <use x="652.636719" xlink:href="#DejaVuSans-105"/>
      <use x="680.419922" xlink:href="#DejaVuSans-111"/>
      <use x="741.601562" xlink:href="#DejaVuSans-110"/>
     </g>
    </g>
   </g>
   <g id="patch_19">
    <path clip-path="url(#pb3d565fbdf)" d="M 32.53768 117.954667 
L 41.277895 117.954667 
L 41.277895 110.88503 
L 32.53768 110.88503 
z
" style="fill:#666666;"/>
   </g>
   <g id="patch_20">
    <path clip-path="url(#pb3d565fbdf)" d="M 59.02318 117.954667 
L 67.763395 117.954667 
L 67.763395 106.274398 
L 59.02318 106.274398 
z
" style="fill:#666666;"/>
   </g>
   <g id="patch_21">
    <path clip-path="url(#pb3d565fbdf)" d="M 85.50868 117.954667 
L 94.248895 117.954667 
L 94.248895 113.036659 
L 85.50868 113.036659 
z
" style="fill:#666666;"/>
   </g>
   <g id="patch_22">
    <path clip-path="url(#pb3d565fbdf)" d="M 111.99418 117.954667 
L 120.734395 117.954667 
L 120.734395 87.831869 
L 111.99418 87.831869 
z
" style="fill:#666666;"/>
   </g>
   <g id="patch_23">
    <path clip-path="url(#pb3d565fbdf)" d="M 41.807605 117.954667 
L 50.54782 117.954667 
L 50.54782 110.86688 
L 41.807605 110.86688 
z
" style="fill:#a20000;"/>
   </g>
   <g id="patch_24">
    <path clip-path="url(#pb3d565fbdf)" d="M 68.293105 117.954667 
L 77.03332 117.954667 
L 77.03332 107.739915 
L 68.293105 107.739915 
z
" style="fill:#a20000;"/>
   </g>
   <g id="patch_25">
    <path clip-path="url(#pb3d565fbdf)" d="M 94.778605 117.954667 
L 103.51882 117.954667 
L 103.51882 111.411885 
L 94.778605 111.411885 
z
" style="fill:#a20000;"/>
   </g>
   <g id="patch_26">
    <path clip-path="url(#pb3d565fbdf)" d="M 121.264105 117.954667 
L 130.00432 117.954667 
L 130.00432 88.009275 
L 121.264105 88.009275 
z
" style="fill:#a20000;"/>
   </g>
   <g id="patch_27">
    <path d="M 28.3 117.954667 
L 28.3 74.922098 
" style="fill:none;stroke:#000000;stroke-linecap:square;stroke-linejoin:miter;stroke-width:0.8;"/>
   </g>
   <g id="patch_28">
    <path d="M 134.242 117.954667 
L 134.242 74.922098 
" style="fill:none;stroke:#000000;stroke-linecap:square;stroke-linejoin:miter;stroke-width:0.8;"/>
   </g>
   <g id="patch_29">
    <path d="M 28.3 117.954667 
L 134.242 117.954667 
" style="fill:none;stroke:#000000;stroke-linecap:square;stroke-linejoin:miter;stroke-width:0.8;"/>
   </g>
   <g id="patch_30">
    <path d="M 28.3 74.922098 
L 134.242 74.922098 
" style="fill:none;stroke:#000000;stroke-linecap:square;stroke-linejoin:miter;stroke-width:0.8;"/>
   </g>
   <g id="legend_2">
    <g id="patch_31">
     <path d="M 32.5 97.362098 
L 126.7 97.362098 
Q 127.9 97.362098 127.9 96.162098 
L 127.9 79.122098 
Q 127.9 77.922098 126.7 77.922098 
L 32.5 77.922098 
Q 31.3 77.922098 31.3 79.122098 
L 31.3 96.162098 
Q 31.3 97.362098 32.5 97.362098 
z
" style="fill:#ffffff;opacity:0.8;stroke:#cccccc;stroke-linejoin:miter;"/>
    </g>
    <g id="patch_32">
     <path d="M 33.7 84.882098 
L 45.7 84.882098 
L 45.7 80.682098 
L 33.7 80.682098 
z
" style="fill:#666666;"/>
    </g>
    <g id="text_23">
     <!-- Empirical ($n$ = 175) -->
     <defs>
      <path d="M 10.796875 72.90625 
L 49.515625 72.90625 
L 49.515625 64.59375 
L 19.828125 64.59375 
L 19.828125 46.734375 
Q 21.96875 47.46875 24.109375 47.828125 
Q 26.265625 48.1875 28.421875 48.1875 
Q 40.625 48.1875 47.75 41.5 
Q 54.890625 34.8125 54.890625 23.390625 
Q 54.890625 11.625 47.5625 5.09375 
Q 40.234375 -1.421875 26.90625 -1.421875 
Q 22.3125 -1.421875 17.546875 -0.640625 
Q 12.796875 0.140625 7.71875 1.703125 
L 7.71875 11.625 
Q 12.109375 9.234375 16.796875 8.0625 
Q 21.484375 6.890625 26.703125 6.890625 
Q 35.15625 6.890625 40.078125 11.328125 
Q 45.015625 15.765625 45.015625 23.390625 
Q 45.015625 31 40.078125 35.4375 
Q 35.15625 39.890625 26.703125 39.890625 
Q 22.75 39.890625 18.8125 39.015625 
Q 14.890625 38.140625 10.796875 36.28125 
z
" id="DejaVuSans-53"/>
     </defs>
     <g transform="translate(50.5 84.882098)scale(0.06 -0.06)">
      <use transform="translate(0 0.015625)" xlink:href="#DejaVuSans-69"/>
      <use transform="translate(63.183594 0.015625)" xlink:href="#DejaVuSans-109"/>
      <use transform="translate(160.595703 0.015625)" xlink:href="#DejaVuSans-112"/>
      <use transform="translate(224.072266 0.015625)" xlink:href="#DejaVuSans-105"/>
      <use transform="translate(251.855469 0.015625)" xlink:href="#DejaVuSans-114"/>
      <use transform="translate(292.96875 0.015625)" xlink:href="#DejaVuSans-105"/>
      <use transform="translate(320.751953 0.015625)" xlink:href="#DejaVuSans-99"/>
      <use transform="translate(375.732422 0.015625)" xlink:href="#DejaVuSans-97"/>
      <use transform="translate(437.011719 0.015625)" xlink:href="#DejaVuSans-108"/>
      <use transform="translate(464.794922 0.015625)" xlink:href="#DejaVuSans-32"/>
      <use transform="translate(496.582031 0.015625)" xlink:href="#DejaVuSans-40"/>
      <use transform="translate(535.595703 0.015625)" xlink:href="#DejaVuSans-Oblique-110"/>
      <use transform="translate(598.974609 0.015625)" xlink:href="#DejaVuSans-32"/>
      <use transform="translate(630.761719 0.015625)" xlink:href="#DejaVuSans-61"/>
      <use transform="translate(714.550781 0.015625)" xlink:href="#DejaVuSans-32"/>
      <use transform="translate(746.337891 0.015625)" xlink:href="#DejaVuSans-49"/>
      <use transform="translate(809.960938 0.015625)" xlink:href="#DejaVuSans-55"/>
      <use transform="translate(873.583984 0.015625)" xlink:href="#DejaVuSans-53"/>
      <use transform="translate(937.207031 0.015625)" xlink:href="#DejaVuSans-41"/>
     </g>
    </g>
    <g id="patch_33">
     <path d="M 33.7 93.702098 
L 45.7 93.702098 
L 45.7 89.502098 
L 33.7 89.502098 
z
" style="fill:#a20000;"/>
    </g>
    <g id="text_24">
     <!-- ($p$,$s$,$f$) = (1.00,0.51,0.51) -->
     <g transform="translate(50.5 93.702098)scale(0.06 -0.06)">
      <use transform="translate(0 0.015625)" xlink:href="#DejaVuSans-40"/>
      <use transform="translate(39.013672 0.015625)" xlink:href="#DejaVuSans-Oblique-112"/>
      <use transform="translate(102.490234 0.015625)" xlink:href="#DejaVuSans-44"/>
      <use transform="translate(134.277344 0.015625)" xlink:href="#DejaVuSans-Oblique-115"/>
      <use transform="translate(186.376953 0.015625)" xlink:href="#DejaVuSans-44"/>
      <use transform="translate(218.164062 0.015625)" xlink:href="#DejaVuSans-Oblique-102"/>
      <use transform="translate(253.369141 0.015625)" xlink:href="#DejaVuSans-41"/>
      <use transform="translate(292.382812 0.015625)" xlink:href="#DejaVuSans-32"/>
      <use transform="translate(324.169922 0.015625)" xlink:href="#DejaVuSans-61"/>
      <use transform="translate(407.958984 0.015625)" xlink:href="#DejaVuSans-32"/>
      <use transform="translate(439.746094 0.015625)" xlink:href="#DejaVuSans-40"/>
      <use transform="translate(478.759766 0.015625)" xlink:href="#DejaVuSans-49"/>
      <use transform="translate(542.382812 0.015625)" xlink:href="#DejaVuSans-46"/>
      <use transform="translate(574.169922 0.015625)" xlink:href="#DejaVuSans-48"/>
      <use transform="translate(637.792969 0.015625)" xlink:href="#DejaVuSans-48"/>
      <use transform="translate(701.416016 0.015625)" xlink:href="#DejaVuSans-44"/>
      <use transform="translate(733.203125 0.015625)" xlink:href="#DejaVuSans-48"/>
      <use transform="translate(796.826172 0.015625)" xlink:href="#DejaVuSans-46"/>
      <use transform="translate(828.613281 0.015625)" xlink:href="#DejaVuSans-53"/>
      <use transform="translate(892.236328 0.015625)" xlink:href="#DejaVuSans-49"/>
      <use transform="translate(955.859375 0.015625)" xlink:href="#DejaVuSans-44"/>
      <use transform="translate(987.646484 0.015625)" xlink:href="#DejaVuSans-48"/>
      <use transform="translate(1051.269531 0.015625)" xlink:href="#DejaVuSans-46"/>
      <use transform="translate(1083.056641 0.015625)" xlink:href="#DejaVuSans-53"/>
      <use transform="translate(1146.679688 0.015625)" xlink:href="#DejaVuSans-49"/>
      <use transform="translate(1210.302734 0.015625)" xlink:href="#DejaVuSans-41"/>
     </g>
    </g>
   </g>
  </g>
  <g id="axes_3">
   <g id="patch_34">
    <path d="M 28.3 185.4 
L 134.242 185.4 
L 134.242 142.367431 
L 28.3 142.367431 
z
" style="fill:#ffffff;"/>
   </g>
   <g id="matplotlib.axis_5">
    <g id="xtick_9">
     <g id="line2d_19">
      <g>
       <use style="stroke:#000000;stroke-width:0.8;" x="28.3" xlink:href="#m4ba354fac0" y="185.4"/>
      </g>
     </g>
     <g id="text_25">
      <!-- 0.0 -->
      <g transform="translate(22.733906 197.718906)scale(0.07 -0.07)">
       <use xlink:href="#DejaVuSans-48"/>
       <use x="63.623047" xlink:href="#DejaVuSans-46"/>
       <use x="95.410156" xlink:href="#DejaVuSans-48"/>
      </g>
     </g>
    </g>
    <g id="xtick_10">
     <g id="line2d_20">
      <g>
       <use style="stroke:#000000;stroke-width:0.8;" x="49.4884" xlink:href="#m4ba354fac0" y="185.4"/>
      </g>
     </g>
     <g id="text_26">
      <!-- 0.2 -->
      <g transform="translate(43.922306 197.718906)scale(0.07 -0.07)">
       <use xlink:href="#DejaVuSans-48"/>
       <use x="63.623047" xlink:href="#DejaVuSans-46"/>
       <use x="95.410156" xlink:href="#DejaVuSans-50"/>
      </g>
     </g>
    </g>
    <g id="xtick_11">
     <g id="line2d_21">
      <g>
       <use style="stroke:#000000;stroke-width:0.8;" x="70.6768" xlink:href="#m4ba354fac0" y="185.4"/>
      </g>
     </g>
     <g id="text_27">
      <!-- 0.4 -->
      <g transform="translate(65.110706 197.718906)scale(0.07 -0.07)">
       <use xlink:href="#DejaVuSans-48"/>
       <use x="63.623047" xlink:href="#DejaVuSans-46"/>
       <use x="95.410156" xlink:href="#DejaVuSans-52"/>
      </g>
     </g>
    </g>
    <g id="xtick_12">
     <g id="line2d_22">
      <g>
       <use style="stroke:#000000;stroke-width:0.8;" x="91.8652" xlink:href="#m4ba354fac0" y="185.4"/>
      </g>
     </g>
     <g id="text_28">
      <!-- 0.6 -->
      <g transform="translate(86.299106 197.718906)scale(0.07 -0.07)">
       <use xlink:href="#DejaVuSans-48"/>
       <use x="63.623047" xlink:href="#DejaVuSans-46"/>
       <use x="95.410156" xlink:href="#DejaVuSans-54"/>
      </g>
     </g>
    </g>
    <g id="xtick_13">
     <g id="line2d_23">
      <g>
       <use style="stroke:#000000;stroke-width:0.8;" x="113.0536" xlink:href="#m4ba354fac0" y="185.4"/>
      </g>
     </g>
     <g id="text_29">
      <!-- 0.8 -->
      <g transform="translate(107.487506 197.718906)scale(0.07 -0.07)">
       <use xlink:href="#DejaVuSans-48"/>
       <use x="63.623047" xlink:href="#DejaVuSans-46"/>
       <use x="95.410156" xlink:href="#DejaVuSans-56"/>
      </g>
     </g>
    </g>
    <g id="xtick_14">
     <g id="line2d_24">
      <g>
       <use style="stroke:#000000;stroke-width:0.8;" x="134.242" xlink:href="#m4ba354fac0" y="185.4"/>
      </g>
     </g>
     <g id="text_30">
      <!-- 1.0 -->
      <g transform="translate(128.675906 197.718906)scale(0.07 -0.07)">
       <use xlink:href="#DejaVuSans-49"/>
       <use x="63.623047" xlink:href="#DejaVuSans-46"/>
       <use x="95.410156" xlink:href="#DejaVuSans-48"/>
      </g>
     </g>
    </g>
   </g>
   <g id="matplotlib.axis_6">
    <g id="ytick_11">
     <g id="line2d_25">
      <g>
       <use style="stroke:#000000;stroke-width:0.8;" x="28.3" xlink:href="#m8207a50273" y="185.4"/>
      </g>
     </g>
     <g id="text_31">
      <!-- 0.0 -->
      <g transform="translate(10.167813 188.059453)scale(0.07 -0.07)">
       <use xlink:href="#DejaVuSans-48"/>
       <use x="63.623047" xlink:href="#DejaVuSans-46"/>
       <use x="95.410156" xlink:href="#DejaVuSans-48"/>
      </g>
     </g>
    </g>
    <g id="ytick_12">
     <g id="line2d_26">
      <g>
       <use style="stroke:#000000;stroke-width:0.8;" x="28.3" xlink:href="#m8207a50273" y="163.883716"/>
      </g>
     </g>
     <g id="text_32">
      <!-- 0.5 -->
      <g transform="translate(10.167813 166.543169)scale(0.07 -0.07)">
       <use xlink:href="#DejaVuSans-48"/>
       <use x="63.623047" xlink:href="#DejaVuSans-46"/>
       <use x="95.410156" xlink:href="#DejaVuSans-53"/>
      </g>
     </g>
    </g>
    <g id="ytick_13">
     <g id="line2d_27">
      <g>
       <use style="stroke:#000000;stroke-width:0.8;" x="28.3" xlink:href="#m8207a50273" y="142.367431"/>
      </g>
     </g>
     <g id="text_33">
      <!-- 1.0 -->
      <g transform="translate(10.167813 145.026884)scale(0.07 -0.07)">
       <use xlink:href="#DejaVuSans-49"/>
       <use x="63.623047" xlink:href="#DejaVuSans-46"/>
       <use x="95.410156" xlink:href="#DejaVuSans-48"/>
      </g>
     </g>
    </g>
   </g>
   <g id="patch_35">
    <path d="M 28.3 185.4 
L 28.3 142.367431 
" style="fill:none;stroke:#000000;stroke-linecap:square;stroke-linejoin:miter;stroke-width:0.8;"/>
   </g>
   <g id="patch_36">
    <path d="M 134.242 185.4 
L 134.242 142.367431 
" style="fill:none;stroke:#000000;stroke-linecap:square;stroke-linejoin:miter;stroke-width:0.8;"/>
   </g>
   <g id="patch_37">
    <path d="M 28.3 185.4 
L 134.242 185.4 
" style="fill:none;stroke:#000000;stroke-linecap:square;stroke-linejoin:miter;stroke-width:0.8;"/>
   </g>
   <g id="patch_38">
    <path d="M 28.3 142.367431 
L 134.242 142.367431 
" style="fill:none;stroke:#000000;stroke-linecap:square;stroke-linejoin:miter;stroke-width:0.8;"/>
   </g>
  </g>
 </g>
 <defs>
  <clipPath id="p2c8fa88210">
   <rect height="43.032569" width="105.942" x="28.3" y="7.476765"/>
  </clipPath>
  <clipPath id="pb3d565fbdf">
   <rect height="43.032569" width="105.942" x="28.3" y="74.922098"/>
  </clipPath>
 </defs>
</svg>
