<?xml version="1.0" encoding="utf-8" standalone="no"?>
<!DOCTYPE svg PUBLIC "-//W3C//DTD SVG 1.1//EN"
  "http://www.w3.org/Graphics/SVG/1.1/DTD/svg11.dtd">
<!-- Created with matplotlib (https://matplotlib.org/) -->
<svg height="208.8pt" version="1.1" viewBox="0 0 252 208.8" width="252pt" xmlns="http://www.w3.org/2000/svg" xmlns:xlink="http://www.w3.org/1999/xlink">
 <defs>
  <style type="text/css">
*{stroke-linecap:butt;stroke-linejoin:round;}
  </style>
 </defs>
 <g id="figure_1">
  <g id="patch_1">
   <path d="M 0 208.8 
L 252 208.8 
L 252 0 
L 0 0 
z
" style="fill:#ffffff;"/>
  </g>
  <g id="axes_1">
   <g id="patch_2">
    <path d="M 40.34 75.04 
L 102.26 75.04 
L 102.26 12.6 
L 40.34 12.6 
z
" style="fill:#ffffff;"/>
   </g>
   <g id="matplotlib.axis_1">
    <g id="xtick_1">
     <g id="line2d_1">
      <defs>
       <path d="M 0 0 
L 0 3.5 
" id="m7493d0a5f6" style="stroke:#000000;stroke-width:0.8;"/>
      </defs>
      <g>
       <use style="stroke:#000000;stroke-width:0.8;" x="40.34" xlink:href="#m7493d0a5f6" y="75.04"/>
      </g>
     </g>
     <g id="text_1">
      <!-- 0 -->
      <defs>
       <path d="M 31.78125 66.40625 
Q 24.171875 66.40625 20.328125 58.90625 
Q 16.5 51.421875 16.5 36.375 
Q 16.5 21.390625 20.328125 13.890625 
Q 24.171875 6.390625 31.78125 6.390625 
Q 39.453125 6.390625 43.28125 13.890625 
Q 47.125 21.390625 47.125 36.375 
Q 47.125 51.421875 43.28125 58.90625 
Q 39.453125 66.40625 31.78125 66.40625 
z
M 31.78125 74.21875 
Q 44.046875 74.21875 50.515625 64.515625 
Q 56.984375 54.828125 56.984375 36.375 
Q 56.984375 17.96875 50.515625 8.265625 
Q 44.046875 -1.421875 31.78125 -1.421875 
Q 19.53125 -1.421875 13.0625 8.265625 
Q 6.59375 17.96875 6.59375 36.375 
Q 6.59375 54.828125 13.0625 64.515625 
Q 19.53125 74.21875 31.78125 74.21875 
z
" id="DejaVuSans-48"/>
      </defs>
      <g transform="translate(38.749375 85.839219)scale(0.05 -0.05)">
       <use xlink:href="#DejaVuSans-48"/>
      </g>
     </g>
    </g>
    <g id="xtick_2">
     <g id="line2d_2">
      <g>
       <use style="stroke:#000000;stroke-width:0.8;" x="55.82" xlink:href="#m7493d0a5f6" y="75.04"/>
      </g>
     </g>
     <g id="text_2">
      <!-- 1 -->
      <defs>
       <path d="M 12.40625 8.296875 
L 28.515625 8.296875 
L 28.515625 63.921875 
L 10.984375 60.40625 
L 10.984375 69.390625 
L 28.421875 72.90625 
L 38.28125 72.90625 
L 38.28125 8.296875 
L 54.390625 8.296875 
L 54.390625 0 
L 12.40625 0 
z
" id="DejaVuSans-49"/>
      </defs>
      <g transform="translate(54.229375 85.839219)scale(0.05 -0.05)">
       <use xlink:href="#DejaVuSans-49"/>
      </g>
     </g>
    </g>
    <g id="xtick_3">
     <g id="line2d_3">
      <g>
       <use style="stroke:#000000;stroke-width:0.8;" x="71.3" xlink:href="#m7493d0a5f6" y="75.04"/>
      </g>
     </g>
     <g id="text_3">
      <!-- 2 -->
      <defs>
       <path d="M 19.1875 8.296875 
L 53.609375 8.296875 
L 53.609375 0 
L 7.328125 0 
L 7.328125 8.296875 
Q 12.9375 14.109375 22.625 23.890625 
Q 32.328125 33.6875 34.8125 36.53125 
Q 39.546875 41.84375 41.421875 45.53125 
Q 43.3125 49.21875 43.3125 52.78125 
Q 43.3125 58.59375 39.234375 62.25 
Q 35.15625 65.921875 28.609375 65.921875 
Q 23.96875 65.921875 18.8125 64.3125 
Q 13.671875 62.703125 7.8125 59.421875 
L 7.8125 69.390625 
Q 13.765625 71.78125 18.9375 73 
Q 24.125 74.21875 28.421875 74.21875 
Q 39.75 74.21875 46.484375 68.546875 
Q 53.21875 62.890625 53.21875 53.421875 
Q 53.21875 48.921875 51.53125 44.890625 
Q 49.859375 40.875 45.40625 35.40625 
Q 44.1875 33.984375 37.640625 27.21875 
Q 31.109375 20.453125 19.1875 8.296875 
z
" id="DejaVuSans-50"/>
      </defs>
      <g transform="translate(69.709375 85.839219)scale(0.05 -0.05)">
       <use xlink:href="#DejaVuSans-50"/>
      </g>
     </g>
    </g>
    <g id="xtick_4">
     <g id="line2d_4">
      <g>
       <use style="stroke:#000000;stroke-width:0.8;" x="86.78" xlink:href="#m7493d0a5f6" y="75.04"/>
      </g>
     </g>
     <g id="text_4">
      <!-- 3 -->
      <defs>
       <path d="M 40.578125 39.3125 
Q 47.65625 37.796875 51.625 33 
Q 55.609375 28.21875 55.609375 21.1875 
Q 55.609375 10.40625 48.1875 4.484375 
Q 40.765625 -1.421875 27.09375 -1.421875 
Q 22.515625 -1.421875 17.65625 -0.515625 
Q 12.796875 0.390625 7.625 2.203125 
L 7.625 11.71875 
Q 11.71875 9.328125 16.59375 8.109375 
Q 21.484375 6.890625 26.8125 6.890625 
Q 36.078125 6.890625 40.9375 10.546875 
Q 45.796875 14.203125 45.796875 21.1875 
Q 45.796875 27.640625 41.28125 31.265625 
Q 36.765625 34.90625 28.71875 34.90625 
L 20.21875 34.90625 
L 20.21875 43.015625 
L 29.109375 43.015625 
Q 36.375 43.015625 40.234375 45.921875 
Q 44.09375 48.828125 44.09375 54.296875 
Q 44.09375 59.90625 40.109375 62.90625 
Q 36.140625 65.921875 28.71875 65.921875 
Q 24.65625 65.921875 20.015625 65.03125 
Q 15.375 64.15625 9.8125 62.3125 
L 9.8125 71.09375 
Q 15.4375 72.65625 20.34375 73.4375 
Q 25.25 74.21875 29.59375 74.21875 
Q 40.828125 74.21875 47.359375 69.109375 
Q 53.90625 64.015625 53.90625 55.328125 
Q 53.90625 49.265625 50.4375 45.09375 
Q 46.96875 40.921875 40.578125 39.3125 
z
" id="DejaVuSans-51"/>
      </defs>
      <g transform="translate(85.189375 85.839219)scale(0.05 -0.05)">
       <use xlink:href="#DejaVuSans-51"/>
      </g>
     </g>
    </g>
    <g id="xtick_5">
     <g id="line2d_5">
      <g>
       <use style="stroke:#000000;stroke-width:0.8;" x="102.26" xlink:href="#m7493d0a5f6" y="75.04"/>
      </g>
     </g>
     <g id="text_5">
      <!-- 4 -->
      <defs>
       <path d="M 37.796875 64.3125 
L 12.890625 25.390625 
L 37.796875 25.390625 
z
M 35.203125 72.90625 
L 47.609375 72.90625 
L 47.609375 25.390625 
L 58.015625 25.390625 
L 58.015625 17.1875 
L 47.609375 17.1875 
L 47.609375 0 
L 37.796875 0 
L 37.796875 17.1875 
L 4.890625 17.1875 
L 4.890625 26.703125 
z
" id="DejaVuSans-52"/>
      </defs>
      <g transform="translate(100.669375 85.839219)scale(0.05 -0.05)">
       <use xlink:href="#DejaVuSans-52"/>
      </g>
     </g>
    </g>
    <g id="text_6">
     <!-- $\delta$ -->
     <defs>
      <path d="M 54.25 63.328125 
Q 49.953125 66.75 38.28125 66.75 
Q 25.921875 66.75 24.8125 61.03125 
Q 23.921875 56.546875 36.375 54.203125 
Q 46.140625 52.390625 50.828125 46.921875 
Q 56.5 40.328125 53.859375 26.8125 
Q 51.3125 13.875 43.171875 6.25 
Q 34.96875 -1.421875 23.25 -1.421875 
Q 11.578125 -1.421875 6.34375 6.25 
Q 1.125 13.875 3.765625 27.296875 
Q 5.671875 37.25 13.921875 45.3125 
Q 17.140625 48.4375 21.140625 50.203125 
Q 14.265625 54.046875 15.625 60.9375 
Q 18.21875 74.21875 39.75 74.21875 
Q 50.53125 74.21875 55.71875 70.796875 
z
M 27.390625 47.75 
Q 23.828125 46.34375 20.40625 42.78125 
Q 15.140625 37.25 13.234375 27.296875 
Q 11.28125 17.390625 14.359375 11.8125 
Q 17.484375 6.203125 24.75 6.203125 
Q 31.9375 6.203125 37.203125 11.859375 
Q 42.53125 17.53125 44.34375 26.8125 
Q 46.1875 36.53125 42.671875 41.21875 
Q 38.921875 46.234375 32.859375 46.78125 
Q 29.78125 47.078125 27.390625 47.75 
z
" id="DejaVuSans-Oblique-948"/>
     </defs>
     <g transform="translate(69.13 96.197969)scale(0.07 -0.07)">
      <use transform="translate(0 0.78125)" xlink:href="#DejaVuSans-Oblique-948"/>
     </g>
    </g>
   </g>
   <g id="matplotlib.axis_2">
    <g id="ytick_1">
     <g id="line2d_6">
      <defs>
       <path d="M 0 0 
L -3.5 0 
" id="m971f9ecb84" style="stroke:#a20000;stroke-width:0.8;"/>
      </defs>
      <g>
       <use style="fill:#a20000;stroke:#a20000;stroke-width:0.8;" x="40.34" xlink:href="#m971f9ecb84" y="75.04"/>
      </g>
     </g>
     <g id="text_7">
      <!-- 0.00 -->
      <defs>
       <path d="M 10.6875 12.40625 
L 21 12.40625 
L 21 0 
L 10.6875 0 
z
" id="DejaVuSans-46"/>
      </defs>
      <g style="fill:#a20000;" transform="translate(22.207188 76.939609)scale(0.05 -0.05)">
       <use xlink:href="#DejaVuSans-48"/>
       <use x="63.623047" xlink:href="#DejaVuSans-46"/>
       <use x="95.410156" xlink:href="#DejaVuSans-48"/>
       <use x="159.033203" xlink:href="#DejaVuSans-48"/>
      </g>
     </g>
    </g>
    <g id="ytick_2">
     <g id="line2d_7">
      <g>
       <use style="fill:#a20000;stroke:#a20000;stroke-width:0.8;" x="40.34" xlink:href="#m971f9ecb84" y="62.552"/>
      </g>
     </g>
     <g id="text_8">
      <!-- 0.08 -->
      <defs>
       <path d="M 31.78125 34.625 
Q 24.75 34.625 20.71875 30.859375 
Q 16.703125 27.09375 16.703125 20.515625 
Q 16.703125 13.921875 20.71875 10.15625 
Q 24.75 6.390625 31.78125 6.390625 
Q 38.8125 6.390625 42.859375 10.171875 
Q 46.921875 13.96875 46.921875 20.515625 
Q 46.921875 27.09375 42.890625 30.859375 
Q 38.875 34.625 31.78125 34.625 
z
M 21.921875 38.8125 
Q 15.578125 40.375 12.03125 44.71875 
Q 8.5 49.078125 8.5 55.328125 
Q 8.5 64.0625 14.71875 69.140625 
Q 20.953125 74.21875 31.78125 74.21875 
Q 42.671875 74.21875 48.875 69.140625 
Q 55.078125 64.0625 55.078125 55.328125 
Q 55.078125 49.078125 51.53125 44.71875 
Q 48 40.375 41.703125 38.8125 
Q 48.828125 37.15625 52.796875 32.3125 
Q 56.78125 27.484375 56.78125 20.515625 
Q 56.78125 9.90625 50.3125 4.234375 
Q 43.84375 -1.421875 31.78125 -1.421875 
Q 19.734375 -1.421875 13.25 4.234375 
Q 6.78125 9.90625 6.78125 20.515625 
Q 6.78125 27.484375 10.78125 32.3125 
Q 14.796875 37.15625 21.921875 38.8125 
z
M 18.3125 54.390625 
Q 18.3125 48.734375 21.84375 45.5625 
Q 25.390625 42.390625 31.78125 42.390625 
Q 38.140625 42.390625 41.71875 45.5625 
Q 45.3125 48.734375 45.3125 54.390625 
Q 45.3125 60.0625 41.71875 63.234375 
Q 38.140625 66.40625 31.78125 66.40625 
Q 25.390625 66.40625 21.84375 63.234375 
Q 18.3125 60.0625 18.3125 54.390625 
z
" id="DejaVuSans-56"/>
      </defs>
      <g style="fill:#a20000;" transform="translate(22.207188 64.451609)scale(0.05 -0.05)">
       <use xlink:href="#DejaVuSans-48"/>
       <use x="63.623047" xlink:href="#DejaVuSans-46"/>
       <use x="95.410156" xlink:href="#DejaVuSans-48"/>
       <use x="159.033203" xlink:href="#DejaVuSans-56"/>
      </g>
     </g>
    </g>
    <g id="ytick_3">
     <g id="line2d_8">
      <g>
       <use style="fill:#a20000;stroke:#a20000;stroke-width:0.8;" x="40.34" xlink:href="#m971f9ecb84" y="50.064"/>
      </g>
     </g>
     <g id="text_9">
      <!-- 0.16 -->
      <defs>
       <path d="M 33.015625 40.375 
Q 26.375 40.375 22.484375 35.828125 
Q 18.609375 31.296875 18.609375 23.390625 
Q 18.609375 15.53125 22.484375 10.953125 
Q 26.375 6.390625 33.015625 6.390625 
Q 39.65625 6.390625 43.53125 10.953125 
Q 47.40625 15.53125 47.40625 23.390625 
Q 47.40625 31.296875 43.53125 35.828125 
Q 39.65625 40.375 33.015625 40.375 
z
M 52.59375 71.296875 
L 52.59375 62.3125 
Q 48.875 64.0625 45.09375 64.984375 
Q 41.3125 65.921875 37.59375 65.921875 
Q 27.828125 65.921875 22.671875 59.328125 
Q 17.53125 52.734375 16.796875 39.40625 
Q 19.671875 43.65625 24.015625 45.921875 
Q 28.375 48.1875 33.59375 48.1875 
Q 44.578125 48.1875 50.953125 41.515625 
Q 57.328125 34.859375 57.328125 23.390625 
Q 57.328125 12.15625 50.6875 5.359375 
Q 44.046875 -1.421875 33.015625 -1.421875 
Q 20.359375 -1.421875 13.671875 8.265625 
Q 6.984375 17.96875 6.984375 36.375 
Q 6.984375 53.65625 15.1875 63.9375 
Q 23.390625 74.21875 37.203125 74.21875 
Q 40.921875 74.21875 44.703125 73.484375 
Q 48.484375 72.75 52.59375 71.296875 
z
" id="DejaVuSans-54"/>
      </defs>
      <g style="fill:#a20000;" transform="translate(22.207188 51.963609)scale(0.05 -0.05)">
       <use xlink:href="#DejaVuSans-48"/>
       <use x="63.623047" xlink:href="#DejaVuSans-46"/>
       <use x="95.410156" xlink:href="#DejaVuSans-49"/>
       <use x="159.033203" xlink:href="#DejaVuSans-54"/>
      </g>
     </g>
    </g>
    <g id="ytick_4">
     <g id="line2d_9">
      <g>
       <use style="fill:#a20000;stroke:#a20000;stroke-width:0.8;" x="40.34" xlink:href="#m971f9ecb84" y="37.576"/>
      </g>
     </g>
     <g id="text_10">
      <!-- 0.24 -->
      <g style="fill:#a20000;" transform="translate(22.207188 39.475609)scale(0.05 -0.05)">
       <use xlink:href="#DejaVuSans-48"/>
       <use x="63.623047" xlink:href="#DejaVuSans-46"/>
       <use x="95.410156" xlink:href="#DejaVuSans-50"/>
       <use x="159.033203" xlink:href="#DejaVuSans-52"/>
      </g>
     </g>
    </g>
    <g id="ytick_5">
     <g id="line2d_10">
      <g>
       <use style="fill:#a20000;stroke:#a20000;stroke-width:0.8;" x="40.34" xlink:href="#m971f9ecb84" y="25.088"/>
      </g>
     </g>
     <g id="text_11">
      <!-- 0.32 -->
      <g style="fill:#a20000;" transform="translate(22.207188 26.987609)scale(0.05 -0.05)">
       <use xlink:href="#DejaVuSans-48"/>
       <use x="63.623047" xlink:href="#DejaVuSans-46"/>
       <use x="95.410156" xlink:href="#DejaVuSans-51"/>
       <use x="159.033203" xlink:href="#DejaVuSans-50"/>
      </g>
     </g>
    </g>
    <g id="ytick_6">
     <g id="line2d_11">
      <g>
       <use style="fill:#a20000;stroke:#a20000;stroke-width:0.8;" x="40.34" xlink:href="#m971f9ecb84" y="12.6"/>
      </g>
     </g>
     <g id="text_12">
      <!-- 0.40 -->
      <g style="fill:#a20000;" transform="translate(22.207188 14.499609)scale(0.05 -0.05)">
       <use xlink:href="#DejaVuSans-48"/>
       <use x="63.623047" xlink:href="#DejaVuSans-46"/>
       <use x="95.410156" xlink:href="#DejaVuSans-52"/>
       <use x="159.033203" xlink:href="#DejaVuSans-48"/>
      </g>
     </g>
    </g>
    <g id="text_13">
     <!-- Contact fraction -->
     <defs>
      <path d="M 64.40625 67.28125 
L 64.40625 56.890625 
Q 59.421875 61.53125 53.78125 63.8125 
Q 48.140625 66.109375 41.796875 66.109375 
Q 29.296875 66.109375 22.65625 58.46875 
Q 16.015625 50.828125 16.015625 36.375 
Q 16.015625 21.96875 22.65625 14.328125 
Q 29.296875 6.6875 41.796875 6.6875 
Q 48.140625 6.6875 53.78125 8.984375 
Q 59.421875 11.28125 64.40625 15.921875 
L 64.40625 5.609375 
Q 59.234375 2.09375 53.4375 0.328125 
Q 47.65625 -1.421875 41.21875 -1.421875 
Q 24.65625 -1.421875 15.125 8.703125 
Q 5.609375 18.84375 5.609375 36.375 
Q 5.609375 53.953125 15.125 64.078125 
Q 24.65625 74.21875 41.21875 74.21875 
Q 47.75 74.21875 53.53125 72.484375 
Q 59.328125 70.75 64.40625 67.28125 
z
" id="DejaVuSans-67"/>
      <path d="M 30.609375 48.390625 
Q 23.390625 48.390625 19.1875 42.75 
Q 14.984375 37.109375 14.984375 27.296875 
Q 14.984375 17.484375 19.15625 11.84375 
Q 23.34375 6.203125 30.609375 6.203125 
Q 37.796875 6.203125 41.984375 11.859375 
Q 46.1875 17.53125 46.1875 27.296875 
Q 46.1875 37.015625 41.984375 42.703125 
Q 37.796875 48.390625 30.609375 48.390625 
z
M 30.609375 56 
Q 42.328125 56 49.015625 48.375 
Q 55.71875 40.765625 55.71875 27.296875 
Q 55.71875 13.875 49.015625 6.21875 
Q 42.328125 -1.421875 30.609375 -1.421875 
Q 18.84375 -1.421875 12.171875 6.21875 
Q 5.515625 13.875 5.515625 27.296875 
Q 5.515625 40.765625 12.171875 48.375 
Q 18.84375 56 30.609375 56 
z
" id="DejaVuSans-111"/>
      <path d="M 54.890625 33.015625 
L 54.890625 0 
L 45.90625 0 
L 45.90625 32.71875 
Q 45.90625 40.484375 42.875 44.328125 
Q 39.84375 48.1875 33.796875 48.1875 
Q 26.515625 48.1875 22.3125 43.546875 
Q 18.109375 38.921875 18.109375 30.90625 
L 18.109375 0 
L 9.078125 0 
L 9.078125 54.6875 
L 18.109375 54.6875 
L 18.109375 46.1875 
Q 21.34375 51.125 25.703125 53.5625 
Q 30.078125 56 35.796875 56 
Q 45.21875 56 50.046875 50.171875 
Q 54.890625 44.34375 54.890625 33.015625 
z
" id="DejaVuSans-110"/>
      <path d="M 18.3125 70.21875 
L 18.3125 54.6875 
L 36.8125 54.6875 
L 36.8125 47.703125 
L 18.3125 47.703125 
L 18.3125 18.015625 
Q 18.3125 11.328125 20.140625 9.421875 
Q 21.96875 7.515625 27.59375 7.515625 
L 36.8125 7.515625 
L 36.8125 0 
L 27.59375 0 
Q 17.1875 0 13.234375 3.875 
Q 9.28125 7.765625 9.28125 18.015625 
L 9.28125 47.703125 
L 2.6875 47.703125 
L 2.6875 54.6875 
L 9.28125 54.6875 
L 9.28125 70.21875 
z
" id="DejaVuSans-116"/>
      <path d="M 34.28125 27.484375 
Q 23.390625 27.484375 19.1875 25 
Q 14.984375 22.515625 14.984375 16.5 
Q 14.984375 11.71875 18.140625 8.90625 
Q 21.296875 6.109375 26.703125 6.109375 
Q 34.1875 6.109375 38.703125 11.40625 
Q 43.21875 16.703125 43.21875 25.484375 
L 43.21875 27.484375 
z
M 52.203125 31.203125 
L 52.203125 0 
L 43.21875 0 
L 43.21875 8.296875 
Q 40.140625 3.328125 35.546875 0.953125 
Q 30.953125 -1.421875 24.3125 -1.421875 
Q 15.921875 -1.421875 10.953125 3.296875 
Q 6 8.015625 6 15.921875 
Q 6 25.140625 12.171875 29.828125 
Q 18.359375 34.515625 30.609375 34.515625 
L 43.21875 34.515625 
L 43.21875 35.40625 
Q 43.21875 41.609375 39.140625 45 
Q 35.0625 48.390625 27.6875 48.390625 
Q 23 48.390625 18.546875 47.265625 
Q 14.109375 46.140625 10.015625 43.890625 
L 10.015625 52.203125 
Q 14.9375 54.109375 19.578125 55.046875 
Q 24.21875 56 28.609375 56 
Q 40.484375 56 46.34375 49.84375 
Q 52.203125 43.703125 52.203125 31.203125 
z
" id="DejaVuSans-97"/>
      <path d="M 48.78125 52.59375 
L 48.78125 44.1875 
Q 44.96875 46.296875 41.140625 47.34375 
Q 37.3125 48.390625 33.40625 48.390625 
Q 24.65625 48.390625 19.8125 42.84375 
Q 14.984375 37.3125 14.984375 27.296875 
Q 14.984375 17.28125 19.8125 11.734375 
Q 24.65625 6.203125 33.40625 6.203125 
Q 37.3125 6.203125 41.140625 7.25 
Q 44.96875 8.296875 48.78125 10.40625 
L 48.78125 2.09375 
Q 45.015625 0.34375 40.984375 -0.53125 
Q 36.96875 -1.421875 32.421875 -1.421875 
Q 20.0625 -1.421875 12.78125 6.34375 
Q 5.515625 14.109375 5.515625 27.296875 
Q 5.515625 40.671875 12.859375 48.328125 
Q 20.21875 56 33.015625 56 
Q 37.15625 56 41.109375 55.140625 
Q 45.0625 54.296875 48.78125 52.59375 
z
" id="DejaVuSans-99"/>
      <path id="DejaVuSans-32"/>
      <path d="M 37.109375 75.984375 
L 37.109375 68.5 
L 28.515625 68.5 
Q 23.6875 68.5 21.796875 66.546875 
Q 19.921875 64.59375 19.921875 59.515625 
L 19.921875 54.6875 
L 34.71875 54.6875 
L 34.71875 47.703125 
L 19.921875 47.703125 
L 19.921875 0 
L 10.890625 0 
L 10.890625 47.703125 
L 2.296875 47.703125 
L 2.296875 54.6875 
L 10.890625 54.6875 
L 10.890625 58.5 
Q 10.890625 67.625 15.140625 71.796875 
Q 19.390625 75.984375 28.609375 75.984375 
z
" id="DejaVuSans-102"/>
      <path d="M 41.109375 46.296875 
Q 39.59375 47.171875 37.8125 47.578125 
Q 36.03125 48 33.890625 48 
Q 26.265625 48 22.1875 43.046875 
Q 18.109375 38.09375 18.109375 28.8125 
L 18.109375 0 
L 9.078125 0 
L 9.078125 54.6875 
L 18.109375 54.6875 
L 18.109375 46.1875 
Q 20.953125 51.171875 25.484375 53.578125 
Q 30.03125 56 36.53125 56 
Q 37.453125 56 38.578125 55.875 
Q 39.703125 55.765625 41.0625 55.515625 
z
" id="DejaVuSans-114"/>
      <path d="M 9.421875 54.6875 
L 18.40625 54.6875 
L 18.40625 0 
L 9.421875 0 
z
M 9.421875 75.984375 
L 18.40625 75.984375 
L 18.40625 64.59375 
L 9.421875 64.59375 
z
" id="DejaVuSans-105"/>
     </defs>
     <g style="fill:#a20000;" transform="translate(16.751406 71.993906)rotate(-90)scale(0.07 -0.07)">
      <use xlink:href="#DejaVuSans-67"/>
      <use x="69.824219" xlink:href="#DejaVuSans-111"/>
      <use x="131.005859" xlink:href="#DejaVuSans-110"/>
      <use x="194.384766" xlink:href="#DejaVuSans-116"/>
      <use x="233.59375" xlink:href="#DejaVuSans-97"/>
      <use x="294.873047" xlink:href="#DejaVuSans-99"/>
      <use x="349.853516" xlink:href="#DejaVuSans-116"/>
      <use x="389.0625" xlink:href="#DejaVuSans-32"/>
      <use x="420.849609" xlink:href="#DejaVuSans-102"/>
      <use x="456.054688" xlink:href="#DejaVuSans-114"/>
      <use x="497.167969" xlink:href="#DejaVuSans-97"/>
      <use x="558.447266" xlink:href="#DejaVuSans-99"/>
      <use x="613.427734" xlink:href="#DejaVuSans-116"/>
      <use x="652.636719" xlink:href="#DejaVuSans-105"/>
      <use x="680.419922" xlink:href="#DejaVuSans-111"/>
      <use x="741.601562" xlink:href="#DejaVuSans-110"/>
     </g>
    </g>
   </g>
   <g id="line2d_12">
    <path clip-path="url(#p1b5a4f8cce)" d="M 55.82 21.921735 
L 71.3 41.450509 
L 86.78 55.120651 
L 102.26 25.567106 
" style="fill:none;stroke:#000000;stroke-linecap:square;"/>
   </g>
   <g id="patch_3">
    <path d="M 40.34 75.04 
L 40.34 12.6 
" style="fill:none;stroke:#a20000;stroke-linecap:square;stroke-linejoin:miter;stroke-width:0.8;"/>
   </g>
   <g id="patch_4">
    <path d="M 102.26 75.04 
L 102.26 12.6 
" style="fill:none;stroke:#000000;stroke-linecap:square;stroke-linejoin:miter;stroke-width:0.8;"/>
   </g>
   <g id="patch_5">
    <path d="M 40.34 75.04 
L 102.26 75.04 
" style="fill:none;stroke:#000000;stroke-linecap:square;stroke-linejoin:miter;stroke-width:0.8;"/>
   </g>
   <g id="patch_6">
    <path d="M 40.34 12.6 
L 102.26 12.6 
" style="fill:none;stroke:#000000;stroke-linecap:square;stroke-linejoin:miter;stroke-width:0.8;"/>
   </g>
  </g>
  <g id="axes_2">
   <g id="patch_7">
    <path d="M 151.36 75.04 
L 213.28 75.04 
L 213.28 12.6 
L 151.36 12.6 
z
" style="fill:#ffffff;"/>
   </g>
   <g id="matplotlib.axis_3">
    <g id="xtick_6">
     <g id="line2d_13">
      <g>
       <use style="stroke:#000000;stroke-width:0.8;" x="151.36" xlink:href="#m7493d0a5f6" y="75.04"/>
      </g>
     </g>
     <g id="text_14">
      <!-- 0 -->
      <g transform="translate(149.769375 85.839219)scale(0.05 -0.05)">
       <use xlink:href="#DejaVuSans-48"/>
      </g>
     </g>
    </g>
    <g id="xtick_7">
     <g id="line2d_14">
      <g>
       <use style="stroke:#000000;stroke-width:0.8;" x="166.84" xlink:href="#m7493d0a5f6" y="75.04"/>
      </g>
     </g>
     <g id="text_15">
      <!-- 5 -->
      <defs>
       <path d="M 10.796875 72.90625 
L 49.515625 72.90625 
L 49.515625 64.59375 
L 19.828125 64.59375 
L 19.828125 46.734375 
Q 21.96875 47.46875 24.109375 47.828125 
Q 26.265625 48.1875 28.421875 48.1875 
Q 40.625 48.1875 47.75 41.5 
Q 54.890625 34.8125 54.890625 23.390625 
Q 54.890625 11.625 47.5625 5.09375 
Q 40.234375 -1.421875 26.90625 -1.421875 
Q 22.3125 -1.421875 17.546875 -0.640625 
Q 12.796875 0.140625 7.71875 1.703125 
L 7.71875 11.625 
Q 12.109375 9.234375 16.796875 8.0625 
Q 21.484375 6.890625 26.703125 6.890625 
Q 35.15625 6.890625 40.078125 11.328125 
Q 45.015625 15.765625 45.015625 23.390625 
Q 45.015625 31 40.078125 35.4375 
Q 35.15625 39.890625 26.703125 39.890625 
Q 22.75 39.890625 18.8125 39.015625 
Q 14.890625 38.140625 10.796875 36.28125 
z
" id="DejaVuSans-53"/>
      </defs>
      <g transform="translate(165.249375 85.839219)scale(0.05 -0.05)">
       <use xlink:href="#DejaVuSans-53"/>
      </g>
     </g>
    </g>
    <g id="xtick_8">
     <g id="line2d_15">
      <g>
       <use style="stroke:#000000;stroke-width:0.8;" x="182.32" xlink:href="#m7493d0a5f6" y="75.04"/>
      </g>
     </g>
     <g id="text_16">
      <!-- 10 -->
      <g transform="translate(179.13875 85.839219)scale(0.05 -0.05)">
       <use xlink:href="#DejaVuSans-49"/>
       <use x="63.623047" xlink:href="#DejaVuSans-48"/>
      </g>
     </g>
    </g>
    <g id="xtick_9">
     <g id="line2d_16">
      <g>
       <use style="stroke:#000000;stroke-width:0.8;" x="197.8" xlink:href="#m7493d0a5f6" y="75.04"/>
      </g>
     </g>
     <g id="text_17">
      <!-- 15 -->
      <g transform="translate(194.61875 85.839219)scale(0.05 -0.05)">
       <use xlink:href="#DejaVuSans-49"/>
       <use x="63.623047" xlink:href="#DejaVuSans-53"/>
      </g>
     </g>
    </g>
    <g id="xtick_10">
     <g id="line2d_17">
      <g>
       <use style="stroke:#000000;stroke-width:0.8;" x="213.28" xlink:href="#m7493d0a5f6" y="75.04"/>
      </g>
     </g>
     <g id="text_18">
      <!-- 20 -->
      <g transform="translate(210.09875 85.839219)scale(0.05 -0.05)">
       <use xlink:href="#DejaVuSans-50"/>
       <use x="63.623047" xlink:href="#DejaVuSans-48"/>
      </g>
     </g>
    </g>
    <g id="text_19">
     <!-- $\delta$ -->
     <g transform="translate(180.15 96.197969)scale(0.07 -0.07)">
      <use transform="translate(0 0.78125)" xlink:href="#DejaVuSans-Oblique-948"/>
     </g>
    </g>
   </g>
   <g id="matplotlib.axis_4">
    <g id="ytick_7">
     <g id="line2d_18">
      <g>
       <use style="fill:#a20000;stroke:#a20000;stroke-width:0.8;" x="151.36" xlink:href="#m971f9ecb84" y="75.04"/>
      </g>
     </g>
     <g id="text_20">
      <!-- 0.00 -->
      <g style="fill:#a20000;" transform="translate(133.227188 76.939609)scale(0.05 -0.05)">
       <use xlink:href="#DejaVuSans-48"/>
       <use x="63.623047" xlink:href="#DejaVuSans-46"/>
       <use x="95.410156" xlink:href="#DejaVuSans-48"/>
       <use x="159.033203" xlink:href="#DejaVuSans-48"/>
      </g>
     </g>
    </g>
    <g id="ytick_8">
     <g id="line2d_19">
      <g>
       <use style="fill:#a20000;stroke:#a20000;stroke-width:0.8;" x="151.36" xlink:href="#m971f9ecb84" y="64.633333"/>
      </g>
     </g>
     <g id="text_21">
      <!-- 0.03 -->
      <g style="fill:#a20000;" transform="translate(133.227188 66.532943)scale(0.05 -0.05)">
       <use xlink:href="#DejaVuSans-48"/>
       <use x="63.623047" xlink:href="#DejaVuSans-46"/>
       <use x="95.410156" xlink:href="#DejaVuSans-48"/>
       <use x="159.033203" xlink:href="#DejaVuSans-51"/>
      </g>
     </g>
    </g>
    <g id="ytick_9">
     <g id="line2d_20">
      <g>
       <use style="fill:#a20000;stroke:#a20000;stroke-width:0.8;" x="151.36" xlink:href="#m971f9ecb84" y="54.226667"/>
      </g>
     </g>
     <g id="text_22">
      <!-- 0.06 -->
      <g style="fill:#a20000;" transform="translate(133.227188 56.126276)scale(0.05 -0.05)">
       <use xlink:href="#DejaVuSans-48"/>
       <use x="63.623047" xlink:href="#DejaVuSans-46"/>
       <use x="95.410156" xlink:href="#DejaVuSans-48"/>
       <use x="159.033203" xlink:href="#DejaVuSans-54"/>
      </g>
     </g>
    </g>
    <g id="ytick_10">
     <g id="line2d_21">
      <g>
       <use style="fill:#a20000;stroke:#a20000;stroke-width:0.8;" x="151.36" xlink:href="#m971f9ecb84" y="43.82"/>
      </g>
     </g>
     <g id="text_23">
      <!-- 0.09 -->
      <defs>
       <path d="M 10.984375 1.515625 
L 10.984375 10.5 
Q 14.703125 8.734375 18.5 7.8125 
Q 22.3125 6.890625 25.984375 6.890625 
Q 35.75 6.890625 40.890625 13.453125 
Q 46.046875 20.015625 46.78125 33.40625 
Q 43.953125 29.203125 39.59375 26.953125 
Q 35.25 24.703125 29.984375 24.703125 
Q 19.046875 24.703125 12.671875 31.3125 
Q 6.296875 37.9375 6.296875 49.421875 
Q 6.296875 60.640625 12.9375 67.421875 
Q 19.578125 74.21875 30.609375 74.21875 
Q 43.265625 74.21875 49.921875 64.515625 
Q 56.59375 54.828125 56.59375 36.375 
Q 56.59375 19.140625 48.40625 8.859375 
Q 40.234375 -1.421875 26.421875 -1.421875 
Q 22.703125 -1.421875 18.890625 -0.6875 
Q 15.09375 0.046875 10.984375 1.515625 
z
M 30.609375 32.421875 
Q 37.25 32.421875 41.125 36.953125 
Q 45.015625 41.5 45.015625 49.421875 
Q 45.015625 57.28125 41.125 61.84375 
Q 37.25 66.40625 30.609375 66.40625 
Q 23.96875 66.40625 20.09375 61.84375 
Q 16.21875 57.28125 16.21875 49.421875 
Q 16.21875 41.5 20.09375 36.953125 
Q 23.96875 32.421875 30.609375 32.421875 
z
" id="DejaVuSans-57"/>
      </defs>
      <g style="fill:#a20000;" transform="translate(133.227188 45.719609)scale(0.05 -0.05)">
       <use xlink:href="#DejaVuSans-48"/>
       <use x="63.623047" xlink:href="#DejaVuSans-46"/>
       <use x="95.410156" xlink:href="#DejaVuSans-48"/>
       <use x="159.033203" xlink:href="#DejaVuSans-57"/>
      </g>
     </g>
    </g>
    <g id="ytick_11">
     <g id="line2d_22">
      <g>
       <use style="fill:#a20000;stroke:#a20000;stroke-width:0.8;" x="151.36" xlink:href="#m971f9ecb84" y="33.413333"/>
      </g>
     </g>
     <g id="text_24">
      <!-- 0.12 -->
      <g style="fill:#a20000;" transform="translate(133.227188 35.312943)scale(0.05 -0.05)">
       <use xlink:href="#DejaVuSans-48"/>
       <use x="63.623047" xlink:href="#DejaVuSans-46"/>
       <use x="95.410156" xlink:href="#DejaVuSans-49"/>
       <use x="159.033203" xlink:href="#DejaVuSans-50"/>
      </g>
     </g>
    </g>
    <g id="ytick_12">
     <g id="line2d_23">
      <g>
       <use style="fill:#a20000;stroke:#a20000;stroke-width:0.8;" x="151.36" xlink:href="#m971f9ecb84" y="23.006667"/>
      </g>
     </g>
     <g id="text_25">
      <!-- 0.15 -->
      <g style="fill:#a20000;" transform="translate(133.227188 24.906276)scale(0.05 -0.05)">
       <use xlink:href="#DejaVuSans-48"/>
       <use x="63.623047" xlink:href="#DejaVuSans-46"/>
       <use x="95.410156" xlink:href="#DejaVuSans-49"/>
       <use x="159.033203" xlink:href="#DejaVuSans-53"/>
      </g>
     </g>
    </g>
    <g id="ytick_13">
     <g id="line2d_24">
      <g>
       <use style="fill:#a20000;stroke:#a20000;stroke-width:0.8;" x="151.36" xlink:href="#m971f9ecb84" y="12.6"/>
      </g>
     </g>
     <g id="text_26">
      <!-- 0.18 -->
      <g style="fill:#a20000;" transform="translate(133.227188 14.499609)scale(0.05 -0.05)">
       <use xlink:href="#DejaVuSans-48"/>
       <use x="63.623047" xlink:href="#DejaVuSans-46"/>
       <use x="95.410156" xlink:href="#DejaVuSans-49"/>
       <use x="159.033203" xlink:href="#DejaVuSans-56"/>
      </g>
     </g>
    </g>
   </g>
   <g id="line2d_25">
    <path clip-path="url(#p671411a340)" d="M 154.456 69.384203 
L 157.552 68.205912 
L 160.648 53.830761 
L 163.744 38.984293 
L 166.84 30.736256 
L 169.936 34.978104 
L 173.032 40.869559 
L 176.128 50.767204 
L 179.224 64.906697 
L 182.32 68.677228 
L 185.416 72.44776 
L 188.512 74.333025 
L 191.608 75.04 
L 194.704 75.04 
L 197.8 71.505127 
L 200.896 71.740785 
L 203.992 64.671039 
L 207.088 46.996673 
L 210.184 33.564155 
L 213.28 47.232331 
" style="fill:none;stroke:#000000;stroke-linecap:square;"/>
   </g>
   <g id="patch_8">
    <path d="M 151.36 75.04 
L 151.36 12.6 
" style="fill:none;stroke:#a20000;stroke-linecap:square;stroke-linejoin:miter;stroke-width:0.8;"/>
   </g>
   <g id="patch_9">
    <path d="M 213.28 75.04 
L 213.28 12.6 
" style="fill:none;stroke:#000000;stroke-linecap:square;stroke-linejoin:miter;stroke-width:0.8;"/>
   </g>
   <g id="patch_10">
    <path d="M 151.36 75.04 
L 213.28 75.04 
" style="fill:none;stroke:#000000;stroke-linecap:square;stroke-linejoin:miter;stroke-width:0.8;"/>
   </g>
   <g id="patch_11">
    <path d="M 151.36 12.6 
L 213.28 12.6 
" style="fill:none;stroke:#000000;stroke-linecap:square;stroke-linejoin:miter;stroke-width:0.8;"/>
   </g>
  </g>
  <g id="axes_3">
   <g id="patch_12">
    <path d="M 40.34 174.04 
L 102.26 174.04 
L 102.26 111.6 
L 40.34 111.6 
z
" style="fill:#ffffff;"/>
   </g>
   <g id="matplotlib.axis_5">
    <g id="xtick_11">
     <g id="line2d_26">
      <g>
       <use style="stroke:#000000;stroke-width:0.8;" x="40.34" xlink:href="#m7493d0a5f6" y="174.04"/>
      </g>
     </g>
     <g id="text_27">
      <!-- 0 -->
      <g transform="translate(38.749375 184.839219)scale(0.05 -0.05)">
       <use xlink:href="#DejaVuSans-48"/>
      </g>
     </g>
    </g>
    <g id="xtick_12">
     <g id="line2d_27">
      <g>
       <use style="stroke:#000000;stroke-width:0.8;" x="71.3" xlink:href="#m7493d0a5f6" y="174.04"/>
      </g>
     </g>
     <g id="text_28">
      <!-- 50 -->
      <g transform="translate(68.11875 184.839219)scale(0.05 -0.05)">
       <use xlink:href="#DejaVuSans-53"/>
       <use x="63.623047" xlink:href="#DejaVuSans-48"/>
      </g>
     </g>
    </g>
    <g id="xtick_13">
     <g id="line2d_28">
      <g>
       <use style="stroke:#000000;stroke-width:0.8;" x="102.26" xlink:href="#m7493d0a5f6" y="174.04"/>
      </g>
     </g>
     <g id="text_29">
      <!-- 100 -->
      <g transform="translate(97.488125 184.839219)scale(0.05 -0.05)">
       <use xlink:href="#DejaVuSans-49"/>
       <use x="63.623047" xlink:href="#DejaVuSans-48"/>
       <use x="127.246094" xlink:href="#DejaVuSans-48"/>
      </g>
     </g>
    </g>
    <g id="text_30">
     <!-- $\delta$ -->
     <g transform="translate(69.13 195.197969)scale(0.07 -0.07)">
      <use transform="translate(0 0.78125)" xlink:href="#DejaVuSans-Oblique-948"/>
     </g>
    </g>
   </g>
   <g id="matplotlib.axis_6">
    <g id="ytick_14">
     <g id="line2d_29">
      <g>
       <use style="fill:#a20000;stroke:#a20000;stroke-width:0.8;" x="40.34" xlink:href="#m971f9ecb84" y="174.04"/>
      </g>
     </g>
     <g id="text_31">
      <!-- 0.00 -->
      <g style="fill:#a20000;" transform="translate(22.207188 175.939609)scale(0.05 -0.05)">
       <use xlink:href="#DejaVuSans-48"/>
       <use x="63.623047" xlink:href="#DejaVuSans-46"/>
       <use x="95.410156" xlink:href="#DejaVuSans-48"/>
       <use x="159.033203" xlink:href="#DejaVuSans-48"/>
      </g>
     </g>
    </g>
    <g id="ytick_15">
     <g id="line2d_30">
      <g>
       <use style="fill:#a20000;stroke:#a20000;stroke-width:0.8;" x="40.34" xlink:href="#m971f9ecb84" y="158.43"/>
      </g>
     </g>
     <g id="text_32">
      <!-- 0.02 -->
      <g style="fill:#a20000;" transform="translate(22.207188 160.329609)scale(0.05 -0.05)">
       <use xlink:href="#DejaVuSans-48"/>
       <use x="63.623047" xlink:href="#DejaVuSans-46"/>
       <use x="95.410156" xlink:href="#DejaVuSans-48"/>
       <use x="159.033203" xlink:href="#DejaVuSans-50"/>
      </g>
     </g>
    </g>
    <g id="ytick_16">
     <g id="line2d_31">
      <g>
       <use style="fill:#a20000;stroke:#a20000;stroke-width:0.8;" x="40.34" xlink:href="#m971f9ecb84" y="142.82"/>
      </g>
     </g>
     <g id="text_33">
      <!-- 0.04 -->
      <g style="fill:#a20000;" transform="translate(22.207188 144.719609)scale(0.05 -0.05)">
       <use xlink:href="#DejaVuSans-48"/>
       <use x="63.623047" xlink:href="#DejaVuSans-46"/>
       <use x="95.410156" xlink:href="#DejaVuSans-48"/>
       <use x="159.033203" xlink:href="#DejaVuSans-52"/>
      </g>
     </g>
    </g>
    <g id="ytick_17">
     <g id="line2d_32">
      <g>
       <use style="fill:#a20000;stroke:#a20000;stroke-width:0.8;" x="40.34" xlink:href="#m971f9ecb84" y="127.21"/>
      </g>
     </g>
     <g id="text_34">
      <!-- 0.06 -->
      <g style="fill:#a20000;" transform="translate(22.207188 129.109609)scale(0.05 -0.05)">
       <use xlink:href="#DejaVuSans-48"/>
       <use x="63.623047" xlink:href="#DejaVuSans-46"/>
       <use x="95.410156" xlink:href="#DejaVuSans-48"/>
       <use x="159.033203" xlink:href="#DejaVuSans-54"/>
      </g>
     </g>
    </g>
    <g id="ytick_18">
     <g id="line2d_33">
      <g>
       <use style="fill:#a20000;stroke:#a20000;stroke-width:0.8;" x="40.34" xlink:href="#m971f9ecb84" y="111.6"/>
      </g>
     </g>
     <g id="text_35">
      <!-- 0.08 -->
      <g style="fill:#a20000;" transform="translate(22.207188 113.499609)scale(0.05 -0.05)">
       <use xlink:href="#DejaVuSans-48"/>
       <use x="63.623047" xlink:href="#DejaVuSans-46"/>
       <use x="95.410156" xlink:href="#DejaVuSans-48"/>
       <use x="159.033203" xlink:href="#DejaVuSans-56"/>
      </g>
     </g>
    </g>
    <g id="text_36">
     <!-- Contact fraction -->
     <g style="fill:#a20000;" transform="translate(16.751406 170.993906)rotate(-90)scale(0.07 -0.07)">
      <use xlink:href="#DejaVuSans-67"/>
      <use x="69.824219" xlink:href="#DejaVuSans-111"/>
      <use x="131.005859" xlink:href="#DejaVuSans-110"/>
      <use x="194.384766" xlink:href="#DejaVuSans-116"/>
      <use x="233.59375" xlink:href="#DejaVuSans-97"/>
      <use x="294.873047" xlink:href="#DejaVuSans-99"/>
      <use x="349.853516" xlink:href="#DejaVuSans-116"/>
      <use x="389.0625" xlink:href="#DejaVuSans-32"/>
      <use x="420.849609" xlink:href="#DejaVuSans-102"/>
      <use x="456.054688" xlink:href="#DejaVuSans-114"/>
      <use x="497.167969" xlink:href="#DejaVuSans-97"/>
      <use x="558.447266" xlink:href="#DejaVuSans-99"/>
      <use x="613.427734" xlink:href="#DejaVuSans-116"/>
      <use x="652.636719" xlink:href="#DejaVuSans-105"/>
      <use x="680.419922" xlink:href="#DejaVuSans-111"/>
      <use x="741.601562" xlink:href="#DejaVuSans-110"/>
     </g>
    </g>
   </g>
   <g id="line2d_34">
    <path clip-path="url(#p476db62f47)" d="M 40.9592 174.04 
L 41.5784 174.04 
L 42.1976 174.04 
L 42.8168 174.04 
L 43.436 174.04 
L 44.0552 174.04 
L 44.6744 174.04 
L 45.2936 174.04 
L 45.9128 174.04 
L 46.532 174.04 
L 47.1512 174.04 
L 47.7704 174.04 
L 48.3896 174.04 
L 49.0088 174.04 
L 49.628 173.510488 
L 50.2472 173.510488 
L 50.8664 170.333419 
L 51.4856 170.333419 
L 52.1048 162.390746 
L 52.724 167.685862 
L 53.3432 162.920258 
L 53.9624 152.859539 
L 54.5816 144.387354 
L 55.2008 144.387354 
L 55.82 132.7381 
L 56.4392 130.090543 
L 57.0584 126.383962 
L 57.6776 125.324939 
L 58.2968 142.269308 
L 58.916 130.620054 
L 59.5352 145.446377 
L 60.1544 140.680773 
L 60.7736 151.800516 
L 61.3928 153.38905 
L 62.012 158.154654 
L 62.6312 162.920258 
L 63.2504 165.567815 
L 63.8696 171.392442 
L 64.4888 171.921954 
L 65.108 171.921954 
L 65.7272 174.04 
L 66.3464 174.04 
L 66.9656 172.980977 
L 67.5848 174.04 
L 68.204 174.04 
L 68.8232 174.04 
L 69.4424 174.04 
L 70.0616 174.04 
L 70.6808 174.04 
L 71.3 174.04 
L 71.9192 174.04 
L 72.5384 174.04 
L 73.1576 174.04 
L 73.7768 174.04 
L 74.396 174.04 
L 75.0152 174.04 
L 75.6344 174.04 
L 76.2536 174.04 
L 76.8728 174.04 
L 77.492 174.04 
L 78.1112 174.04 
L 78.7304 174.04 
L 79.3496 174.04 
L 79.9688 174.04 
L 80.588 174.04 
L 81.2072 174.04 
L 81.8264 174.04 
L 82.4456 174.04 
L 83.0648 174.04 
L 83.684 174.04 
L 84.3032 174.04 
L 84.9224 174.04 
L 85.5416 174.04 
L 86.1608 174.04 
L 86.78 174.04 
L 87.3992 174.04 
L 88.0184 174.04 
L 88.6376 174.04 
L 89.2568 174.04 
L 89.876 174.04 
L 90.4952 173.510488 
L 91.1144 174.04 
L 91.7336 174.04 
L 92.3528 173.510488 
L 92.972 171.921954 
L 93.5912 170.862931 
L 94.2104 168.215373 
L 94.8296 166.097327 
L 95.4488 165.567815 
L 96.068 153.918562 
L 96.6872 150.211981 
L 97.3064 134.326635 
L 97.9256 131.149566 
L 98.5448 142.79882 
L 99.164 145.975889 
L 99.7832 149.152958 
L 100.4024 161.331723 
L 101.0216 170.333419 
L 101.6408 172.451465 
L 102.26 174.04 
" style="fill:none;stroke:#000000;stroke-linecap:square;"/>
   </g>
   <g id="patch_13">
    <path d="M 40.34 174.04 
L 40.34 111.6 
" style="fill:none;stroke:#a20000;stroke-linecap:square;stroke-linejoin:miter;stroke-width:0.8;"/>
   </g>
   <g id="patch_14">
    <path d="M 102.26 174.04 
L 102.26 111.6 
" style="fill:none;stroke:#000000;stroke-linecap:square;stroke-linejoin:miter;stroke-width:0.8;"/>
   </g>
   <g id="patch_15">
    <path d="M 40.34 174.04 
L 102.26 174.04 
" style="fill:none;stroke:#000000;stroke-linecap:square;stroke-linejoin:miter;stroke-width:0.8;"/>
   </g>
   <g id="patch_16">
    <path d="M 40.34 111.6 
L 102.26 111.6 
" style="fill:none;stroke:#000000;stroke-linecap:square;stroke-linejoin:miter;stroke-width:0.8;"/>
   </g>
  </g>
  <g id="axes_4">
   <g id="patch_17">
    <path d="M 151.36 174.04 
L 213.28 174.04 
L 213.28 111.6 
L 151.36 111.6 
z
" style="fill:#ffffff;"/>
   </g>
   <g id="matplotlib.axis_7">
    <g id="xtick_14">
     <g id="line2d_35">
      <g>
       <use style="stroke:#000000;stroke-width:0.8;" x="151.36" xlink:href="#m7493d0a5f6" y="174.04"/>
      </g>
     </g>
     <g id="text_37">
      <!-- 0 -->
      <g transform="translate(149.769375 184.839219)scale(0.05 -0.05)">
       <use xlink:href="#DejaVuSans-48"/>
      </g>
     </g>
    </g>
    <g id="xtick_15">
     <g id="line2d_36">
      <g>
       <use style="stroke:#000000;stroke-width:0.8;" x="182.32" xlink:href="#m7493d0a5f6" y="174.04"/>
      </g>
     </g>
     <g id="text_38">
      <!-- 500 -->
      <g transform="translate(177.548125 184.839219)scale(0.05 -0.05)">
       <use xlink:href="#DejaVuSans-53"/>
       <use x="63.623047" xlink:href="#DejaVuSans-48"/>
       <use x="127.246094" xlink:href="#DejaVuSans-48"/>
      </g>
     </g>
    </g>
    <g id="xtick_16">
     <g id="line2d_37">
      <g>
       <use style="stroke:#000000;stroke-width:0.8;" x="213.28" xlink:href="#m7493d0a5f6" y="174.04"/>
      </g>
     </g>
     <g id="text_39">
      <!-- 1000 -->
      <g transform="translate(206.9175 184.839219)scale(0.05 -0.05)">
       <use xlink:href="#DejaVuSans-49"/>
       <use x="63.623047" xlink:href="#DejaVuSans-48"/>
       <use x="127.246094" xlink:href="#DejaVuSans-48"/>
       <use x="190.869141" xlink:href="#DejaVuSans-48"/>
      </g>
     </g>
    </g>
    <g id="text_40">
     <!-- $\delta$ -->
     <g transform="translate(180.15 195.197969)scale(0.07 -0.07)">
      <use transform="translate(0 0.78125)" xlink:href="#DejaVuSans-Oblique-948"/>
     </g>
    </g>
   </g>
   <g id="matplotlib.axis_8">
    <g id="ytick_19">
     <g id="line2d_38">
      <g>
       <use style="fill:#a20000;stroke:#a20000;stroke-width:0.8;" x="151.36" xlink:href="#m971f9ecb84" y="174.04"/>
      </g>
     </g>
     <g id="text_41">
      <!-- 0.000 -->
      <g style="fill:#a20000;" transform="translate(130.045938 175.939609)scale(0.05 -0.05)">
       <use xlink:href="#DejaVuSans-48"/>
       <use x="63.623047" xlink:href="#DejaVuSans-46"/>
       <use x="95.410156" xlink:href="#DejaVuSans-48"/>
       <use x="159.033203" xlink:href="#DejaVuSans-48"/>
       <use x="222.65625" xlink:href="#DejaVuSans-48"/>
      </g>
     </g>
    </g>
    <g id="ytick_20">
     <g id="line2d_39">
      <g>
       <use style="fill:#a20000;stroke:#a20000;stroke-width:0.8;" x="151.36" xlink:href="#m971f9ecb84" y="158.43"/>
      </g>
     </g>
     <g id="text_42">
      <!-- 0.007 -->
      <defs>
       <path d="M 8.203125 72.90625 
L 55.078125 72.90625 
L 55.078125 68.703125 
L 28.609375 0 
L 18.3125 0 
L 43.21875 64.59375 
L 8.203125 64.59375 
z
" id="DejaVuSans-55"/>
      </defs>
      <g style="fill:#a20000;" transform="translate(130.045938 160.329609)scale(0.05 -0.05)">
       <use xlink:href="#DejaVuSans-48"/>
       <use x="63.623047" xlink:href="#DejaVuSans-46"/>
       <use x="95.410156" xlink:href="#DejaVuSans-48"/>
       <use x="159.033203" xlink:href="#DejaVuSans-48"/>
       <use x="222.65625" xlink:href="#DejaVuSans-55"/>
      </g>
     </g>
    </g>
    <g id="ytick_21">
     <g id="line2d_40">
      <g>
       <use style="fill:#a20000;stroke:#a20000;stroke-width:0.8;" x="151.36" xlink:href="#m971f9ecb84" y="142.82"/>
      </g>
     </g>
     <g id="text_43">
      <!-- 0.014 -->
      <g style="fill:#a20000;" transform="translate(130.045938 144.719609)scale(0.05 -0.05)">
       <use xlink:href="#DejaVuSans-48"/>
       <use x="63.623047" xlink:href="#DejaVuSans-46"/>
       <use x="95.410156" xlink:href="#DejaVuSans-48"/>
       <use x="159.033203" xlink:href="#DejaVuSans-49"/>
       <use x="222.65625" xlink:href="#DejaVuSans-52"/>
      </g>
     </g>
    </g>
    <g id="ytick_22">
     <g id="line2d_41">
      <g>
       <use style="fill:#a20000;stroke:#a20000;stroke-width:0.8;" x="151.36" xlink:href="#m971f9ecb84" y="127.21"/>
      </g>
     </g>
     <g id="text_44">
      <!-- 0.021 -->
      <g style="fill:#a20000;" transform="translate(130.045938 129.109609)scale(0.05 -0.05)">
       <use xlink:href="#DejaVuSans-48"/>
       <use x="63.623047" xlink:href="#DejaVuSans-46"/>
       <use x="95.410156" xlink:href="#DejaVuSans-48"/>
       <use x="159.033203" xlink:href="#DejaVuSans-50"/>
       <use x="222.65625" xlink:href="#DejaVuSans-49"/>
      </g>
     </g>
    </g>
    <g id="ytick_23">
     <g id="line2d_42">
      <g>
       <use style="fill:#a20000;stroke:#a20000;stroke-width:0.8;" x="151.36" xlink:href="#m971f9ecb84" y="111.6"/>
      </g>
     </g>
     <g id="text_45">
      <!-- 0.028 -->
      <g style="fill:#a20000;" transform="translate(130.045938 113.499609)scale(0.05 -0.05)">
       <use xlink:href="#DejaVuSans-48"/>
       <use x="63.623047" xlink:href="#DejaVuSans-46"/>
       <use x="95.410156" xlink:href="#DejaVuSans-48"/>
       <use x="159.033203" xlink:href="#DejaVuSans-50"/>
       <use x="222.65625" xlink:href="#DejaVuSans-56"/>
      </g>
     </g>
    </g>
   </g>
   <g id="line2d_43">
    <path clip-path="url(#p1525b8f21e)" d="M 151.42192 174.04 
L 165.78736 174.04 
L 165.84928 172.52711 
L 165.97312 174.04 
L 166.03504 174.04 
L 166.09696 171.01422 
L 166.15888 174.04 
L 166.2208 172.52711 
L 166.40656 172.52711 
L 166.46848 174.04 
L 166.5304 169.50133 
L 166.59232 171.01422 
L 166.65424 172.52711 
L 166.71616 169.50133 
L 166.77808 171.01422 
L 166.90192 171.01422 
L 167.08768 164.962659 
L 167.21152 167.98844 
L 167.27344 166.47555 
L 167.4592 157.398209 
L 167.64496 151.346649 
L 167.70688 152.859539 
L 167.83072 143.782198 
L 167.95456 149.833758 
L 168.01648 136.217748 
L 168.0784 139.243528 
L 168.20224 130.166187 
L 168.26416 142.269308 
L 168.32608 133.191967 
L 168.388 130.166187 
L 168.44992 140.756418 
L 168.51184 133.191967 
L 168.57376 121.088847 
L 168.6976 134.704858 
L 168.82144 127.140407 
L 168.88336 130.166187 
L 169.06912 143.782198 
L 169.13104 127.140407 
L 169.19296 130.166187 
L 169.3168 143.782198 
L 169.37872 136.217748 
L 169.44064 154.372429 
L 169.50256 140.756418 
L 169.68832 155.885319 
L 169.75024 146.807978 
L 169.81216 164.962659 
L 169.87408 155.885319 
L 169.936 151.346649 
L 169.99792 172.52711 
L 170.05984 167.98844 
L 170.12176 163.449769 
L 170.18368 164.962659 
L 170.2456 164.962659 
L 170.30752 171.01422 
L 170.36944 169.50133 
L 170.49328 172.52711 
L 170.5552 169.50133 
L 170.61712 171.01422 
L 170.67904 169.50133 
L 170.80288 171.01422 
L 170.8648 171.01422 
L 170.92672 174.04 
L 170.98864 172.52711 
L 171.05056 174.04 
L 171.1744 172.52711 
L 171.23632 172.52711 
L 171.36016 174.04 
L 171.54592 174.04 
L 171.60784 172.52711 
L 171.66976 174.04 
L 171.73168 172.52711 
L 171.85552 174.04 
L 207.45952 174.04 
L 207.52144 172.52711 
L 207.58336 174.04 
L 207.64528 172.52711 
L 207.7072 174.04 
L 207.89296 167.98844 
L 208.07872 167.98844 
L 208.14064 157.398209 
L 208.20256 160.423989 
L 208.26448 158.911099 
L 208.38832 145.295088 
L 208.45024 157.398209 
L 208.51216 154.372429 
L 208.57408 158.911099 
L 208.69792 134.704858 
L 208.75984 145.295088 
L 208.82176 142.269308 
L 208.88368 127.140407 
L 208.9456 139.243528 
L 209.00752 136.217748 
L 209.13136 142.269308 
L 209.19328 140.756418 
L 209.2552 136.217748 
L 209.44096 157.398209 
L 209.5648 158.911099 
L 209.62672 157.398209 
L 209.68864 167.98844 
L 209.75056 158.911099 
L 209.81248 164.962659 
L 209.93632 169.50133 
L 209.99824 169.50133 
L 210.12208 174.04 
L 210.184 174.04 
L 210.30784 171.01422 
L 210.43168 174.04 
L 213.28 174.04 
L 213.28 174.04 
" style="fill:none;stroke:#000000;stroke-linecap:square;"/>
   </g>
   <g id="patch_18">
    <path d="M 151.36 174.04 
L 151.36 111.6 
" style="fill:none;stroke:#a20000;stroke-linecap:square;stroke-linejoin:miter;stroke-width:0.8;"/>
   </g>
   <g id="patch_19">
    <path d="M 213.28 174.04 
L 213.28 111.6 
" style="fill:none;stroke:#000000;stroke-linecap:square;stroke-linejoin:miter;stroke-width:0.8;"/>
   </g>
   <g id="patch_20">
    <path d="M 151.36 174.04 
L 213.28 174.04 
" style="fill:none;stroke:#000000;stroke-linecap:square;stroke-linejoin:miter;stroke-width:0.8;"/>
   </g>
   <g id="patch_21">
    <path d="M 151.36 111.6 
L 213.28 111.6 
" style="fill:none;stroke:#000000;stroke-linecap:square;stroke-linejoin:miter;stroke-width:0.8;"/>
   </g>
  </g>
  <g id="axes_5">
   <g id="matplotlib.axis_9">
    <g id="ytick_24">
     <g id="line2d_44">
      <defs>
       <path d="M 0 0 
L 3.5 0 
" id="m6ef6897ed1" style="stroke:#000000;stroke-width:0.8;"/>
      </defs>
      <g>
       <use style="stroke:#000000;stroke-width:0.8;" x="102.26" xlink:href="#m6ef6897ed1" y="75.04"/>
      </g>
     </g>
     <g id="text_46">
      <!-- 0 -->
      <g transform="translate(109.26 76.939609)scale(0.05 -0.05)">
       <use xlink:href="#DejaVuSans-48"/>
      </g>
     </g>
    </g>
    <g id="ytick_25">
     <g id="line2d_45">
      <g>
       <use style="stroke:#000000;stroke-width:0.8;" x="102.26" xlink:href="#m6ef6897ed1" y="59.43"/>
      </g>
     </g>
     <g id="text_47">
      <!-- 250 -->
      <g transform="translate(109.26 61.329609)scale(0.05 -0.05)">
       <use xlink:href="#DejaVuSans-50"/>
       <use x="63.623047" xlink:href="#DejaVuSans-53"/>
       <use x="127.246094" xlink:href="#DejaVuSans-48"/>
      </g>
     </g>
    </g>
    <g id="ytick_26">
     <g id="line2d_46">
      <g>
       <use style="stroke:#000000;stroke-width:0.8;" x="102.26" xlink:href="#m6ef6897ed1" y="43.82"/>
      </g>
     </g>
     <g id="text_48">
      <!-- 500 -->
      <g transform="translate(109.26 45.719609)scale(0.05 -0.05)">
       <use xlink:href="#DejaVuSans-53"/>
       <use x="63.623047" xlink:href="#DejaVuSans-48"/>
       <use x="127.246094" xlink:href="#DejaVuSans-48"/>
      </g>
     </g>
    </g>
    <g id="ytick_27">
     <g id="line2d_47">
      <g>
       <use style="stroke:#000000;stroke-width:0.8;" x="102.26" xlink:href="#m6ef6897ed1" y="28.21"/>
      </g>
     </g>
     <g id="text_49">
      <!-- 750 -->
      <g transform="translate(109.26 30.109609)scale(0.05 -0.05)">
       <use xlink:href="#DejaVuSans-55"/>
       <use x="63.623047" xlink:href="#DejaVuSans-53"/>
       <use x="127.246094" xlink:href="#DejaVuSans-48"/>
      </g>
     </g>
    </g>
    <g id="ytick_28">
     <g id="line2d_48">
      <g>
       <use style="stroke:#000000;stroke-width:0.8;" x="102.26" xlink:href="#m6ef6897ed1" y="12.6"/>
      </g>
     </g>
     <g id="text_50">
      <!-- 1000 -->
      <g transform="translate(109.26 14.499609)scale(0.05 -0.05)">
       <use xlink:href="#DejaVuSans-49"/>
       <use x="63.623047" xlink:href="#DejaVuSans-48"/>
       <use x="127.246094" xlink:href="#DejaVuSans-48"/>
       <use x="190.869141" xlink:href="#DejaVuSans-48"/>
      </g>
     </g>
    </g>
   </g>
   <g id="patch_22">
    <path d="M 40.34 75.04 
L 40.34 12.6 
" style="fill:none;stroke:#000000;stroke-linecap:square;stroke-linejoin:miter;stroke-width:0.8;"/>
   </g>
   <g id="patch_23">
    <path d="M 102.26 75.04 
L 102.26 12.6 
" style="fill:none;stroke:#000000;stroke-linecap:square;stroke-linejoin:miter;stroke-width:0.8;"/>
   </g>
   <g id="patch_24">
    <path d="M 40.34 75.04 
L 102.26 75.04 
" style="fill:none;stroke:#000000;stroke-linecap:square;stroke-linejoin:miter;stroke-width:0.8;"/>
   </g>
   <g id="patch_25">
    <path d="M 40.34 12.6 
L 102.26 12.6 
" style="fill:none;stroke:#000000;stroke-linecap:square;stroke-linejoin:miter;stroke-width:0.8;"/>
   </g>
  </g>
  <g id="axes_6">
   <g id="matplotlib.axis_10">
    <g id="ytick_29">
     <g id="line2d_49">
      <g>
       <use style="stroke:#000000;stroke-width:0.8;" x="213.28" xlink:href="#m6ef6897ed1" y="75.04"/>
      </g>
     </g>
     <g id="text_51">
      <!-- 0 -->
      <g transform="translate(220.28 76.939609)scale(0.05 -0.05)">
       <use xlink:href="#DejaVuSans-48"/>
      </g>
     </g>
    </g>
    <g id="ytick_30">
     <g id="line2d_50">
      <g>
       <use style="stroke:#000000;stroke-width:0.8;" x="213.28" xlink:href="#m6ef6897ed1" y="62.552"/>
      </g>
     </g>
     <g id="text_52">
      <!-- 100 -->
      <g transform="translate(220.28 64.451609)scale(0.05 -0.05)">
       <use xlink:href="#DejaVuSans-49"/>
       <use x="63.623047" xlink:href="#DejaVuSans-48"/>
       <use x="127.246094" xlink:href="#DejaVuSans-48"/>
      </g>
     </g>
    </g>
    <g id="ytick_31">
     <g id="line2d_51">
      <g>
       <use style="stroke:#000000;stroke-width:0.8;" x="213.28" xlink:href="#m6ef6897ed1" y="50.064"/>
      </g>
     </g>
     <g id="text_53">
      <!-- 200 -->
      <g transform="translate(220.28 51.963609)scale(0.05 -0.05)">
       <use xlink:href="#DejaVuSans-50"/>
       <use x="63.623047" xlink:href="#DejaVuSans-48"/>
       <use x="127.246094" xlink:href="#DejaVuSans-48"/>
      </g>
     </g>
    </g>
    <g id="ytick_32">
     <g id="line2d_52">
      <g>
       <use style="stroke:#000000;stroke-width:0.8;" x="213.28" xlink:href="#m6ef6897ed1" y="37.576"/>
      </g>
     </g>
     <g id="text_54">
      <!-- 300 -->
      <g transform="translate(220.28 39.475609)scale(0.05 -0.05)">
       <use xlink:href="#DejaVuSans-51"/>
       <use x="63.623047" xlink:href="#DejaVuSans-48"/>
       <use x="127.246094" xlink:href="#DejaVuSans-48"/>
      </g>
     </g>
    </g>
    <g id="ytick_33">
     <g id="line2d_53">
      <g>
       <use style="stroke:#000000;stroke-width:0.8;" x="213.28" xlink:href="#m6ef6897ed1" y="25.088"/>
      </g>
     </g>
     <g id="text_55">
      <!-- 400 -->
      <g transform="translate(220.28 26.987609)scale(0.05 -0.05)">
       <use xlink:href="#DejaVuSans-52"/>
       <use x="63.623047" xlink:href="#DejaVuSans-48"/>
       <use x="127.246094" xlink:href="#DejaVuSans-48"/>
      </g>
     </g>
    </g>
    <g id="ytick_34">
     <g id="line2d_54">
      <g>
       <use style="stroke:#000000;stroke-width:0.8;" x="213.28" xlink:href="#m6ef6897ed1" y="12.6"/>
      </g>
     </g>
     <g id="text_56">
      <!-- 500 -->
      <g transform="translate(220.28 14.499609)scale(0.05 -0.05)">
       <use xlink:href="#DejaVuSans-53"/>
       <use x="63.623047" xlink:href="#DejaVuSans-48"/>
       <use x="127.246094" xlink:href="#DejaVuSans-48"/>
      </g>
     </g>
    </g>
    <g id="text_57">
     <!-- # of contacts -->
     <defs>
      <path d="M 51.125 44 
L 36.921875 44 
L 32.8125 27.6875 
L 47.125 27.6875 
z
M 43.796875 71.78125 
L 38.71875 51.515625 
L 52.984375 51.515625 
L 58.109375 71.78125 
L 65.921875 71.78125 
L 60.890625 51.515625 
L 76.125 51.515625 
L 76.125 44 
L 58.984375 44 
L 54.984375 27.6875 
L 70.515625 27.6875 
L 70.515625 20.21875 
L 53.078125 20.21875 
L 48 0 
L 40.1875 0 
L 45.21875 20.21875 
L 30.90625 20.21875 
L 25.875 0 
L 18.015625 0 
L 23.09375 20.21875 
L 7.71875 20.21875 
L 7.71875 27.6875 
L 24.90625 27.6875 
L 29 44 
L 13.28125 44 
L 13.28125 51.515625 
L 30.90625 51.515625 
L 35.890625 71.78125 
z
" id="DejaVuSans-35"/>
      <path d="M 44.28125 53.078125 
L 44.28125 44.578125 
Q 40.484375 46.53125 36.375 47.5 
Q 32.28125 48.484375 27.875 48.484375 
Q 21.1875 48.484375 17.84375 46.4375 
Q 14.5 44.390625 14.5 40.28125 
Q 14.5 37.15625 16.890625 35.375 
Q 19.28125 33.59375 26.515625 31.984375 
L 29.59375 31.296875 
Q 39.15625 29.25 43.1875 25.515625 
Q 47.21875 21.78125 47.21875 15.09375 
Q 47.21875 7.46875 41.1875 3.015625 
Q 35.15625 -1.421875 24.609375 -1.421875 
Q 20.21875 -1.421875 15.453125 -0.5625 
Q 10.6875 0.296875 5.421875 2 
L 5.421875 11.28125 
Q 10.40625 8.6875 15.234375 7.390625 
Q 20.0625 6.109375 24.8125 6.109375 
Q 31.15625 6.109375 34.5625 8.28125 
Q 37.984375 10.453125 37.984375 14.40625 
Q 37.984375 18.0625 35.515625 20.015625 
Q 33.0625 21.96875 24.703125 23.78125 
L 21.578125 24.515625 
Q 13.234375 26.265625 9.515625 29.90625 
Q 5.8125 33.546875 5.8125 39.890625 
Q 5.8125 47.609375 11.28125 51.796875 
Q 16.75 56 26.8125 56 
Q 31.78125 56 36.171875 55.265625 
Q 40.578125 54.546875 44.28125 53.078125 
z
" id="DejaVuSans-115"/>
     </defs>
     <g transform="translate(239.142656 67.272188)rotate(-90)scale(0.07 -0.07)">
      <use xlink:href="#DejaVuSans-35"/>
      <use x="83.789062" xlink:href="#DejaVuSans-32"/>
      <use x="115.576172" xlink:href="#DejaVuSans-111"/>
      <use x="176.757812" xlink:href="#DejaVuSans-102"/>
      <use x="211.962891" xlink:href="#DejaVuSans-32"/>
      <use x="243.75" xlink:href="#DejaVuSans-99"/>
      <use x="298.730469" xlink:href="#DejaVuSans-111"/>
      <use x="359.912109" xlink:href="#DejaVuSans-110"/>
      <use x="423.291016" xlink:href="#DejaVuSans-116"/>
      <use x="462.5" xlink:href="#DejaVuSans-97"/>
      <use x="523.779297" xlink:href="#DejaVuSans-99"/>
      <use x="578.759766" xlink:href="#DejaVuSans-116"/>
      <use x="617.96875" xlink:href="#DejaVuSans-115"/>
     </g>
    </g>
   </g>
   <g id="patch_26">
    <path d="M 151.36 75.04 
L 151.36 12.6 
" style="fill:none;stroke:#000000;stroke-linecap:square;stroke-linejoin:miter;stroke-width:0.8;"/>
   </g>
   <g id="patch_27">
    <path d="M 213.28 75.04 
L 213.28 12.6 
" style="fill:none;stroke:#000000;stroke-linecap:square;stroke-linejoin:miter;stroke-width:0.8;"/>
   </g>
   <g id="patch_28">
    <path d="M 151.36 75.04 
L 213.28 75.04 
" style="fill:none;stroke:#000000;stroke-linecap:square;stroke-linejoin:miter;stroke-width:0.8;"/>
   </g>
   <g id="patch_29">
    <path d="M 151.36 12.6 
L 213.28 12.6 
" style="fill:none;stroke:#000000;stroke-linecap:square;stroke-linejoin:miter;stroke-width:0.8;"/>
   </g>
  </g>
  <g id="axes_7">
   <g id="matplotlib.axis_11">
    <g id="ytick_35">
     <g id="line2d_55">
      <g>
       <use style="stroke:#000000;stroke-width:0.8;" x="102.26" xlink:href="#m6ef6897ed1" y="174.04"/>
      </g>
     </g>
     <g id="text_58">
      <!-- 0 -->
      <g transform="translate(109.26 175.939609)scale(0.05 -0.05)">
       <use xlink:href="#DejaVuSans-48"/>
      </g>
     </g>
    </g>
    <g id="ytick_36">
     <g id="line2d_56">
      <g>
       <use style="stroke:#000000;stroke-width:0.8;" x="102.26" xlink:href="#m6ef6897ed1" y="161.552"/>
      </g>
     </g>
     <g id="text_59">
      <!-- 50 -->
      <g transform="translate(109.26 163.451609)scale(0.05 -0.05)">
       <use xlink:href="#DejaVuSans-53"/>
       <use x="63.623047" xlink:href="#DejaVuSans-48"/>
      </g>
     </g>
    </g>
    <g id="ytick_37">
     <g id="line2d_57">
      <g>
       <use style="stroke:#000000;stroke-width:0.8;" x="102.26" xlink:href="#m6ef6897ed1" y="149.064"/>
      </g>
     </g>
     <g id="text_60">
      <!-- 100 -->
      <g transform="translate(109.26 150.963609)scale(0.05 -0.05)">
       <use xlink:href="#DejaVuSans-49"/>
       <use x="63.623047" xlink:href="#DejaVuSans-48"/>
       <use x="127.246094" xlink:href="#DejaVuSans-48"/>
      </g>
     </g>
    </g>
    <g id="ytick_38">
     <g id="line2d_58">
      <g>
       <use style="stroke:#000000;stroke-width:0.8;" x="102.26" xlink:href="#m6ef6897ed1" y="136.576"/>
      </g>
     </g>
     <g id="text_61">
      <!-- 150 -->
      <g transform="translate(109.26 138.475609)scale(0.05 -0.05)">
       <use xlink:href="#DejaVuSans-49"/>
       <use x="63.623047" xlink:href="#DejaVuSans-53"/>
       <use x="127.246094" xlink:href="#DejaVuSans-48"/>
      </g>
     </g>
    </g>
    <g id="ytick_39">
     <g id="line2d_59">
      <g>
       <use style="stroke:#000000;stroke-width:0.8;" x="102.26" xlink:href="#m6ef6897ed1" y="124.088"/>
      </g>
     </g>
     <g id="text_62">
      <!-- 200 -->
      <g transform="translate(109.26 125.987609)scale(0.05 -0.05)">
       <use xlink:href="#DejaVuSans-50"/>
       <use x="63.623047" xlink:href="#DejaVuSans-48"/>
       <use x="127.246094" xlink:href="#DejaVuSans-48"/>
      </g>
     </g>
    </g>
    <g id="ytick_40">
     <g id="line2d_60">
      <g>
       <use style="stroke:#000000;stroke-width:0.8;" x="102.26" xlink:href="#m6ef6897ed1" y="111.6"/>
      </g>
     </g>
     <g id="text_63">
      <!-- 250 -->
      <g transform="translate(109.26 113.499609)scale(0.05 -0.05)">
       <use xlink:href="#DejaVuSans-50"/>
       <use x="63.623047" xlink:href="#DejaVuSans-53"/>
       <use x="127.246094" xlink:href="#DejaVuSans-48"/>
      </g>
     </g>
    </g>
   </g>
   <g id="patch_30">
    <path d="M 40.34 174.04 
L 40.34 111.6 
" style="fill:none;stroke:#000000;stroke-linecap:square;stroke-linejoin:miter;stroke-width:0.8;"/>
   </g>
   <g id="patch_31">
    <path d="M 102.26 174.04 
L 102.26 111.6 
" style="fill:none;stroke:#000000;stroke-linecap:square;stroke-linejoin:miter;stroke-width:0.8;"/>
   </g>
   <g id="patch_32">
    <path d="M 40.34 174.04 
L 102.26 174.04 
" style="fill:none;stroke:#000000;stroke-linecap:square;stroke-linejoin:miter;stroke-width:0.8;"/>
   </g>
   <g id="patch_33">
    <path d="M 40.34 111.6 
L 102.26 111.6 
" style="fill:none;stroke:#000000;stroke-linecap:square;stroke-linejoin:miter;stroke-width:0.8;"/>
   </g>
  </g>
  <g id="axes_8">
   <g id="matplotlib.axis_12">
    <g id="ytick_41">
     <g id="line2d_61">
      <g>
       <use style="stroke:#000000;stroke-width:0.8;" x="213.28" xlink:href="#m6ef6897ed1" y="174.04"/>
      </g>
     </g>
     <g id="text_64">
      <!-- 0 -->
      <g transform="translate(220.28 175.939609)scale(0.05 -0.05)">
       <use xlink:href="#DejaVuSans-48"/>
      </g>
     </g>
    </g>
    <g id="ytick_42">
     <g id="line2d_62">
      <g>
       <use style="stroke:#000000;stroke-width:0.8;" x="213.28" xlink:href="#m6ef6897ed1" y="158.43"/>
      </g>
     </g>
     <g id="text_65">
      <!-- 20 -->
      <g transform="translate(220.28 160.329609)scale(0.05 -0.05)">
       <use xlink:href="#DejaVuSans-50"/>
       <use x="63.623047" xlink:href="#DejaVuSans-48"/>
      </g>
     </g>
    </g>
    <g id="ytick_43">
     <g id="line2d_63">
      <g>
       <use style="stroke:#000000;stroke-width:0.8;" x="213.28" xlink:href="#m6ef6897ed1" y="142.82"/>
      </g>
     </g>
     <g id="text_66">
      <!-- 40 -->
      <g transform="translate(220.28 144.719609)scale(0.05 -0.05)">
       <use xlink:href="#DejaVuSans-52"/>
       <use x="63.623047" xlink:href="#DejaVuSans-48"/>
      </g>
     </g>
    </g>
    <g id="ytick_44">
     <g id="line2d_64">
      <g>
       <use style="stroke:#000000;stroke-width:0.8;" x="213.28" xlink:href="#m6ef6897ed1" y="127.21"/>
      </g>
     </g>
     <g id="text_67">
      <!-- 60 -->
      <g transform="translate(220.28 129.109609)scale(0.05 -0.05)">
       <use xlink:href="#DejaVuSans-54"/>
       <use x="63.623047" xlink:href="#DejaVuSans-48"/>
      </g>
     </g>
    </g>
    <g id="ytick_45">
     <g id="line2d_65">
      <g>
       <use style="stroke:#000000;stroke-width:0.8;" x="213.28" xlink:href="#m6ef6897ed1" y="111.6"/>
      </g>
     </g>
     <g id="text_68">
      <!-- 80 -->
      <g transform="translate(220.28 113.499609)scale(0.05 -0.05)">
       <use xlink:href="#DejaVuSans-56"/>
       <use x="63.623047" xlink:href="#DejaVuSans-48"/>
      </g>
     </g>
    </g>
    <g id="text_69">
     <!-- # of contacts -->
     <g transform="translate(235.961406 166.272188)rotate(-90)scale(0.07 -0.07)">
      <use xlink:href="#DejaVuSans-35"/>
      <use x="83.789062" xlink:href="#DejaVuSans-32"/>
      <use x="115.576172" xlink:href="#DejaVuSans-111"/>
      <use x="176.757812" xlink:href="#DejaVuSans-102"/>
      <use x="211.962891" xlink:href="#DejaVuSans-32"/>
      <use x="243.75" xlink:href="#DejaVuSans-99"/>
      <use x="298.730469" xlink:href="#DejaVuSans-111"/>
      <use x="359.912109" xlink:href="#DejaVuSans-110"/>
      <use x="423.291016" xlink:href="#DejaVuSans-116"/>
      <use x="462.5" xlink:href="#DejaVuSans-97"/>
      <use x="523.779297" xlink:href="#DejaVuSans-99"/>
      <use x="578.759766" xlink:href="#DejaVuSans-116"/>
      <use x="617.96875" xlink:href="#DejaVuSans-115"/>
     </g>
    </g>
   </g>
   <g id="patch_34">
    <path d="M 151.36 174.04 
L 151.36 111.6 
" style="fill:none;stroke:#000000;stroke-linecap:square;stroke-linejoin:miter;stroke-width:0.8;"/>
   </g>
   <g id="patch_35">
    <path d="M 213.28 174.04 
L 213.28 111.6 
" style="fill:none;stroke:#000000;stroke-linecap:square;stroke-linejoin:miter;stroke-width:0.8;"/>
   </g>
   <g id="patch_36">
    <path d="M 151.36 174.04 
L 213.28 174.04 
" style="fill:none;stroke:#000000;stroke-linecap:square;stroke-linejoin:miter;stroke-width:0.8;"/>
   </g>
   <g id="patch_37">
    <path d="M 151.36 111.6 
L 213.28 111.6 
" style="fill:none;stroke:#000000;stroke-linecap:square;stroke-linejoin:miter;stroke-width:0.8;"/>
   </g>
  </g>
 </g>
 <defs>
  <clipPath id="p1b5a4f8cce">
   <rect height="62.44" width="61.92" x="40.34" y="12.6"/>
  </clipPath>
  <clipPath id="p671411a340">
   <rect height="62.44" width="61.92" x="151.36" y="12.6"/>
  </clipPath>
  <clipPath id="p476db62f47">
   <rect height="62.44" width="61.92" x="40.34" y="111.6"/>
  </clipPath>
  <clipPath id="p1525b8f21e">
   <rect height="62.44" width="61.92" x="151.36" y="111.6"/>
  </clipPath>
 </defs>
</svg>
