<?xml version="1.0" encoding="utf-8" standalone="no"?>
<!DOCTYPE svg PUBLIC "-//W3C//DTD SVG 1.1//EN"
  "http://www.w3.org/Graphics/SVG/1.1/DTD/svg11.dtd">
<!-- Created with matplotlib (https://matplotlib.org/) -->
<svg height="208.8pt" version="1.1" viewBox="0 0 252 208.8" width="252pt" xmlns="http://www.w3.org/2000/svg" xmlns:xlink="http://www.w3.org/1999/xlink">
 <defs>
  <style type="text/css">
*{stroke-linecap:butt;stroke-linejoin:round;}
  </style>
 </defs>
 <g id="figure_1">
  <g id="patch_1">
   <path d="M 0 208.8 
L 252 208.8 
L 252 0 
L 0 0 
z
" style="fill:#ffffff;"/>
  </g>
  <g id="axes_1">
   <g id="patch_2">
    <path d="M 40.34 74.238791 
L 103.88 74.238791 
L 103.88 10.997581 
L 40.34 10.997581 
z
" style="fill:#ffffff;"/>
   </g>
   <g id="matplotlib.axis_1">
    <g id="xtick_1">
     <g id="line2d_1">
      <defs>
       <path d="M 0 0 
L 0 3.5 
" id="m7b5a59693a" style="stroke:#000000;stroke-width:0.8;"/>
      </defs>
      <g>
       <use style="stroke:#000000;stroke-width:0.8;" x="40.34" xlink:href="#m7b5a59693a" y="74.238791"/>
      </g>
     </g>
     <g id="text_1">
      <!-- 0 -->
      <defs>
       <path d="M 31.78125 66.40625 
Q 24.171875 66.40625 20.328125 58.90625 
Q 16.5 51.421875 16.5 36.375 
Q 16.5 21.390625 20.328125 13.890625 
Q 24.171875 6.390625 31.78125 6.390625 
Q 39.453125 6.390625 43.28125 13.890625 
Q 47.125 21.390625 47.125 36.375 
Q 47.125 51.421875 43.28125 58.90625 
Q 39.453125 66.40625 31.78125 66.40625 
z
M 31.78125 74.21875 
Q 44.046875 74.21875 50.515625 64.515625 
Q 56.984375 54.828125 56.984375 36.375 
Q 56.984375 17.96875 50.515625 8.265625 
Q 44.046875 -1.421875 31.78125 -1.421875 
Q 19.53125 -1.421875 13.0625 8.265625 
Q 6.59375 17.96875 6.59375 36.375 
Q 6.59375 54.828125 13.0625 64.515625 
Q 19.53125 74.21875 31.78125 74.21875 
z
" id="DejaVuSans-48"/>
      </defs>
      <g transform="translate(38.749375 85.038009)scale(0.05 -0.05)">
       <use xlink:href="#DejaVuSans-48"/>
      </g>
     </g>
    </g>
    <g id="xtick_2">
     <g id="line2d_2">
      <g>
       <use style="stroke:#000000;stroke-width:0.8;" x="56.225" xlink:href="#m7b5a59693a" y="74.238791"/>
      </g>
     </g>
     <g id="text_2">
      <!-- 1 -->
      <defs>
       <path d="M 12.40625 8.296875 
L 28.515625 8.296875 
L 28.515625 63.921875 
L 10.984375 60.40625 
L 10.984375 69.390625 
L 28.421875 72.90625 
L 38.28125 72.90625 
L 38.28125 8.296875 
L 54.390625 8.296875 
L 54.390625 0 
L 12.40625 0 
z
" id="DejaVuSans-49"/>
      </defs>
      <g transform="translate(54.634375 85.038009)scale(0.05 -0.05)">
       <use xlink:href="#DejaVuSans-49"/>
      </g>
     </g>
    </g>
    <g id="xtick_3">
     <g id="line2d_3">
      <g>
       <use style="stroke:#000000;stroke-width:0.8;" x="72.11" xlink:href="#m7b5a59693a" y="74.238791"/>
      </g>
     </g>
     <g id="text_3">
      <!-- 2 -->
      <defs>
       <path d="M 19.1875 8.296875 
L 53.609375 8.296875 
L 53.609375 0 
L 7.328125 0 
L 7.328125 8.296875 
Q 12.9375 14.109375 22.625 23.890625 
Q 32.328125 33.6875 34.8125 36.53125 
Q 39.546875 41.84375 41.421875 45.53125 
Q 43.3125 49.21875 43.3125 52.78125 
Q 43.3125 58.59375 39.234375 62.25 
Q 35.15625 65.921875 28.609375 65.921875 
Q 23.96875 65.921875 18.8125 64.3125 
Q 13.671875 62.703125 7.8125 59.421875 
L 7.8125 69.390625 
Q 13.765625 71.78125 18.9375 73 
Q 24.125 74.21875 28.421875 74.21875 
Q 39.75 74.21875 46.484375 68.546875 
Q 53.21875 62.890625 53.21875 53.421875 
Q 53.21875 48.921875 51.53125 44.890625 
Q 49.859375 40.875 45.40625 35.40625 
Q 44.1875 33.984375 37.640625 27.21875 
Q 31.109375 20.453125 19.1875 8.296875 
z
" id="DejaVuSans-50"/>
      </defs>
      <g transform="translate(70.519375 85.038009)scale(0.05 -0.05)">
       <use xlink:href="#DejaVuSans-50"/>
      </g>
     </g>
    </g>
    <g id="xtick_4">
     <g id="line2d_4">
      <g>
       <use style="stroke:#000000;stroke-width:0.8;" x="87.995" xlink:href="#m7b5a59693a" y="74.238791"/>
      </g>
     </g>
     <g id="text_4">
      <!-- 3 -->
      <defs>
       <path d="M 40.578125 39.3125 
Q 47.65625 37.796875 51.625 33 
Q 55.609375 28.21875 55.609375 21.1875 
Q 55.609375 10.40625 48.1875 4.484375 
Q 40.765625 -1.421875 27.09375 -1.421875 
Q 22.515625 -1.421875 17.65625 -0.515625 
Q 12.796875 0.390625 7.625 2.203125 
L 7.625 11.71875 
Q 11.71875 9.328125 16.59375 8.109375 
Q 21.484375 6.890625 26.8125 6.890625 
Q 36.078125 6.890625 40.9375 10.546875 
Q 45.796875 14.203125 45.796875 21.1875 
Q 45.796875 27.640625 41.28125 31.265625 
Q 36.765625 34.90625 28.71875 34.90625 
L 20.21875 34.90625 
L 20.21875 43.015625 
L 29.109375 43.015625 
Q 36.375 43.015625 40.234375 45.921875 
Q 44.09375 48.828125 44.09375 54.296875 
Q 44.09375 59.90625 40.109375 62.90625 
Q 36.140625 65.921875 28.71875 65.921875 
Q 24.65625 65.921875 20.015625 65.03125 
Q 15.375 64.15625 9.8125 62.3125 
L 9.8125 71.09375 
Q 15.4375 72.65625 20.34375 73.4375 
Q 25.25 74.21875 29.59375 74.21875 
Q 40.828125 74.21875 47.359375 69.109375 
Q 53.90625 64.015625 53.90625 55.328125 
Q 53.90625 49.265625 50.4375 45.09375 
Q 46.96875 40.921875 40.578125 39.3125 
z
" id="DejaVuSans-51"/>
      </defs>
      <g transform="translate(86.404375 85.038009)scale(0.05 -0.05)">
       <use xlink:href="#DejaVuSans-51"/>
      </g>
     </g>
    </g>
    <g id="xtick_5">
     <g id="line2d_5">
      <g>
       <use style="stroke:#000000;stroke-width:0.8;" x="103.88" xlink:href="#m7b5a59693a" y="74.238791"/>
      </g>
     </g>
     <g id="text_5">
      <!-- 4 -->
      <defs>
       <path d="M 37.796875 64.3125 
L 12.890625 25.390625 
L 37.796875 25.390625 
z
M 35.203125 72.90625 
L 47.609375 72.90625 
L 47.609375 25.390625 
L 58.015625 25.390625 
L 58.015625 17.1875 
L 47.609375 17.1875 
L 47.609375 0 
L 37.796875 0 
L 37.796875 17.1875 
L 4.890625 17.1875 
L 4.890625 26.703125 
z
" id="DejaVuSans-52"/>
      </defs>
      <g transform="translate(102.289375 85.038009)scale(0.05 -0.05)">
       <use xlink:href="#DejaVuSans-52"/>
      </g>
     </g>
    </g>
    <g id="text_6">
     <!-- $\delta$ -->
     <defs>
      <path d="M 54.25 63.328125 
Q 49.953125 66.75 38.28125 66.75 
Q 25.921875 66.75 24.8125 61.03125 
Q 23.921875 56.546875 36.375 54.203125 
Q 46.140625 52.390625 50.828125 46.921875 
Q 56.5 40.328125 53.859375 26.8125 
Q 51.3125 13.875 43.171875 6.25 
Q 34.96875 -1.421875 23.25 -1.421875 
Q 11.578125 -1.421875 6.34375 6.25 
Q 1.125 13.875 3.765625 27.296875 
Q 5.671875 37.25 13.921875 45.3125 
Q 17.140625 48.4375 21.140625 50.203125 
Q 14.265625 54.046875 15.625 60.9375 
Q 18.21875 74.21875 39.75 74.21875 
Q 50.53125 74.21875 55.71875 70.796875 
z
M 27.390625 47.75 
Q 23.828125 46.34375 20.40625 42.78125 
Q 15.140625 37.25 13.234375 27.296875 
Q 11.28125 17.390625 14.359375 11.8125 
Q 17.484375 6.203125 24.75 6.203125 
Q 31.9375 6.203125 37.203125 11.859375 
Q 42.53125 17.53125 44.34375 26.8125 
Q 46.1875 36.53125 42.671875 41.21875 
Q 38.921875 46.234375 32.859375 46.78125 
Q 29.78125 47.078125 27.390625 47.75 
z
" id="DejaVuSans-Oblique-948"/>
     </defs>
     <g transform="translate(69.94 95.396759)scale(0.07 -0.07)">
      <use transform="translate(0 0.78125)" xlink:href="#DejaVuSans-Oblique-948"/>
     </g>
    </g>
   </g>
   <g id="matplotlib.axis_2">
    <g id="ytick_1">
     <g id="line2d_6">
      <defs>
       <path d="M 0 0 
L -3.5 0 
" id="m31b7d0b712" style="stroke:#a20000;stroke-width:0.8;"/>
      </defs>
      <g>
       <use style="fill:#a20000;stroke:#a20000;stroke-width:0.8;" x="40.34" xlink:href="#m31b7d0b712" y="74.238791"/>
      </g>
     </g>
     <g id="text_7">
      <!-- 0.00 -->
      <defs>
       <path d="M 10.6875 12.40625 
L 21 12.40625 
L 21 0 
L 10.6875 0 
z
" id="DejaVuSans-46"/>
      </defs>
      <g style="fill:#a20000;" transform="translate(22.207188 76.1384)scale(0.05 -0.05)">
       <use xlink:href="#DejaVuSans-48"/>
       <use x="63.623047" xlink:href="#DejaVuSans-46"/>
       <use x="95.410156" xlink:href="#DejaVuSans-48"/>
       <use x="159.033203" xlink:href="#DejaVuSans-48"/>
      </g>
     </g>
    </g>
    <g id="ytick_2">
     <g id="line2d_7">
      <g>
       <use style="fill:#a20000;stroke:#a20000;stroke-width:0.8;" x="40.34" xlink:href="#m31b7d0b712" y="60.21976"/>
      </g>
     </g>
     <g id="text_8">
      <!-- 0.08 -->
      <defs>
       <path d="M 31.78125 34.625 
Q 24.75 34.625 20.71875 30.859375 
Q 16.703125 27.09375 16.703125 20.515625 
Q 16.703125 13.921875 20.71875 10.15625 
Q 24.75 6.390625 31.78125 6.390625 
Q 38.8125 6.390625 42.859375 10.171875 
Q 46.921875 13.96875 46.921875 20.515625 
Q 46.921875 27.09375 42.890625 30.859375 
Q 38.875 34.625 31.78125 34.625 
z
M 21.921875 38.8125 
Q 15.578125 40.375 12.03125 44.71875 
Q 8.5 49.078125 8.5 55.328125 
Q 8.5 64.0625 14.71875 69.140625 
Q 20.953125 74.21875 31.78125 74.21875 
Q 42.671875 74.21875 48.875 69.140625 
Q 55.078125 64.0625 55.078125 55.328125 
Q 55.078125 49.078125 51.53125 44.71875 
Q 48 40.375 41.703125 38.8125 
Q 48.828125 37.15625 52.796875 32.3125 
Q 56.78125 27.484375 56.78125 20.515625 
Q 56.78125 9.90625 50.3125 4.234375 
Q 43.84375 -1.421875 31.78125 -1.421875 
Q 19.734375 -1.421875 13.25 4.234375 
Q 6.78125 9.90625 6.78125 20.515625 
Q 6.78125 27.484375 10.78125 32.3125 
Q 14.796875 37.15625 21.921875 38.8125 
z
M 18.3125 54.390625 
Q 18.3125 48.734375 21.84375 45.5625 
Q 25.390625 42.390625 31.78125 42.390625 
Q 38.140625 42.390625 41.71875 45.5625 
Q 45.3125 48.734375 45.3125 54.390625 
Q 45.3125 60.0625 41.71875 63.234375 
Q 38.140625 66.40625 31.78125 66.40625 
Q 25.390625 66.40625 21.84375 63.234375 
Q 18.3125 60.0625 18.3125 54.390625 
z
" id="DejaVuSans-56"/>
      </defs>
      <g style="fill:#a20000;" transform="translate(22.207188 62.119369)scale(0.05 -0.05)">
       <use xlink:href="#DejaVuSans-48"/>
       <use x="63.623047" xlink:href="#DejaVuSans-46"/>
       <use x="95.410156" xlink:href="#DejaVuSans-48"/>
       <use x="159.033203" xlink:href="#DejaVuSans-56"/>
      </g>
     </g>
    </g>
    <g id="ytick_3">
     <g id="line2d_8">
      <g>
       <use style="fill:#a20000;stroke:#a20000;stroke-width:0.8;" x="40.34" xlink:href="#m31b7d0b712" y="46.200729"/>
      </g>
     </g>
     <g id="text_9">
      <!-- 0.16 -->
      <defs>
       <path d="M 33.015625 40.375 
Q 26.375 40.375 22.484375 35.828125 
Q 18.609375 31.296875 18.609375 23.390625 
Q 18.609375 15.53125 22.484375 10.953125 
Q 26.375 6.390625 33.015625 6.390625 
Q 39.65625 6.390625 43.53125 10.953125 
Q 47.40625 15.53125 47.40625 23.390625 
Q 47.40625 31.296875 43.53125 35.828125 
Q 39.65625 40.375 33.015625 40.375 
z
M 52.59375 71.296875 
L 52.59375 62.3125 
Q 48.875 64.0625 45.09375 64.984375 
Q 41.3125 65.921875 37.59375 65.921875 
Q 27.828125 65.921875 22.671875 59.328125 
Q 17.53125 52.734375 16.796875 39.40625 
Q 19.671875 43.65625 24.015625 45.921875 
Q 28.375 48.1875 33.59375 48.1875 
Q 44.578125 48.1875 50.953125 41.515625 
Q 57.328125 34.859375 57.328125 23.390625 
Q 57.328125 12.15625 50.6875 5.359375 
Q 44.046875 -1.421875 33.015625 -1.421875 
Q 20.359375 -1.421875 13.671875 8.265625 
Q 6.984375 17.96875 6.984375 36.375 
Q 6.984375 53.65625 15.1875 63.9375 
Q 23.390625 74.21875 37.203125 74.21875 
Q 40.921875 74.21875 44.703125 73.484375 
Q 48.484375 72.75 52.59375 71.296875 
z
" id="DejaVuSans-54"/>
      </defs>
      <g style="fill:#a20000;" transform="translate(22.207188 48.100339)scale(0.05 -0.05)">
       <use xlink:href="#DejaVuSans-48"/>
       <use x="63.623047" xlink:href="#DejaVuSans-46"/>
       <use x="95.410156" xlink:href="#DejaVuSans-49"/>
       <use x="159.033203" xlink:href="#DejaVuSans-54"/>
      </g>
     </g>
    </g>
    <g id="ytick_4">
     <g id="line2d_9">
      <g>
       <use style="fill:#a20000;stroke:#a20000;stroke-width:0.8;" x="40.34" xlink:href="#m31b7d0b712" y="32.181699"/>
      </g>
     </g>
     <g id="text_10">
      <!-- 0.24 -->
      <g style="fill:#a20000;" transform="translate(22.207188 34.081308)scale(0.05 -0.05)">
       <use xlink:href="#DejaVuSans-48"/>
       <use x="63.623047" xlink:href="#DejaVuSans-46"/>
       <use x="95.410156" xlink:href="#DejaVuSans-50"/>
       <use x="159.033203" xlink:href="#DejaVuSans-52"/>
      </g>
     </g>
    </g>
    <g id="ytick_5">
     <g id="line2d_10">
      <g>
       <use style="fill:#a20000;stroke:#a20000;stroke-width:0.8;" x="40.34" xlink:href="#m31b7d0b712" y="18.162668"/>
      </g>
     </g>
     <g id="text_11">
      <!-- 0.32 -->
      <g style="fill:#a20000;" transform="translate(22.207188 20.062277)scale(0.05 -0.05)">
       <use xlink:href="#DejaVuSans-48"/>
       <use x="63.623047" xlink:href="#DejaVuSans-46"/>
       <use x="95.410156" xlink:href="#DejaVuSans-51"/>
       <use x="159.033203" xlink:href="#DejaVuSans-50"/>
      </g>
     </g>
    </g>
    <g id="text_12">
     <!-- Contact fraction -->
     <defs>
      <path d="M 64.40625 67.28125 
L 64.40625 56.890625 
Q 59.421875 61.53125 53.78125 63.8125 
Q 48.140625 66.109375 41.796875 66.109375 
Q 29.296875 66.109375 22.65625 58.46875 
Q 16.015625 50.828125 16.015625 36.375 
Q 16.015625 21.96875 22.65625 14.328125 
Q 29.296875 6.6875 41.796875 6.6875 
Q 48.140625 6.6875 53.78125 8.984375 
Q 59.421875 11.28125 64.40625 15.921875 
L 64.40625 5.609375 
Q 59.234375 2.09375 53.4375 0.328125 
Q 47.65625 -1.421875 41.21875 -1.421875 
Q 24.65625 -1.421875 15.125 8.703125 
Q 5.609375 18.84375 5.609375 36.375 
Q 5.609375 53.953125 15.125 64.078125 
Q 24.65625 74.21875 41.21875 74.21875 
Q 47.75 74.21875 53.53125 72.484375 
Q 59.328125 70.75 64.40625 67.28125 
z
" id="DejaVuSans-67"/>
      <path d="M 30.609375 48.390625 
Q 23.390625 48.390625 19.1875 42.75 
Q 14.984375 37.109375 14.984375 27.296875 
Q 14.984375 17.484375 19.15625 11.84375 
Q 23.34375 6.203125 30.609375 6.203125 
Q 37.796875 6.203125 41.984375 11.859375 
Q 46.1875 17.53125 46.1875 27.296875 
Q 46.1875 37.015625 41.984375 42.703125 
Q 37.796875 48.390625 30.609375 48.390625 
z
M 30.609375 56 
Q 42.328125 56 49.015625 48.375 
Q 55.71875 40.765625 55.71875 27.296875 
Q 55.71875 13.875 49.015625 6.21875 
Q 42.328125 -1.421875 30.609375 -1.421875 
Q 18.84375 -1.421875 12.171875 6.21875 
Q 5.515625 13.875 5.515625 27.296875 
Q 5.515625 40.765625 12.171875 48.375 
Q 18.84375 56 30.609375 56 
z
" id="DejaVuSans-111"/>
      <path d="M 54.890625 33.015625 
L 54.890625 0 
L 45.90625 0 
L 45.90625 32.71875 
Q 45.90625 40.484375 42.875 44.328125 
Q 39.84375 48.1875 33.796875 48.1875 
Q 26.515625 48.1875 22.3125 43.546875 
Q 18.109375 38.921875 18.109375 30.90625 
L 18.109375 0 
L 9.078125 0 
L 9.078125 54.6875 
L 18.109375 54.6875 
L 18.109375 46.1875 
Q 21.34375 51.125 25.703125 53.5625 
Q 30.078125 56 35.796875 56 
Q 45.21875 56 50.046875 50.171875 
Q 54.890625 44.34375 54.890625 33.015625 
z
" id="DejaVuSans-110"/>
      <path d="M 18.3125 70.21875 
L 18.3125 54.6875 
L 36.8125 54.6875 
L 36.8125 47.703125 
L 18.3125 47.703125 
L 18.3125 18.015625 
Q 18.3125 11.328125 20.140625 9.421875 
Q 21.96875 7.515625 27.59375 7.515625 
L 36.8125 7.515625 
L 36.8125 0 
L 27.59375 0 
Q 17.1875 0 13.234375 3.875 
Q 9.28125 7.765625 9.28125 18.015625 
L 9.28125 47.703125 
L 2.6875 47.703125 
L 2.6875 54.6875 
L 9.28125 54.6875 
L 9.28125 70.21875 
z
" id="DejaVuSans-116"/>
      <path d="M 34.28125 27.484375 
Q 23.390625 27.484375 19.1875 25 
Q 14.984375 22.515625 14.984375 16.5 
Q 14.984375 11.71875 18.140625 8.90625 
Q 21.296875 6.109375 26.703125 6.109375 
Q 34.1875 6.109375 38.703125 11.40625 
Q 43.21875 16.703125 43.21875 25.484375 
L 43.21875 27.484375 
z
M 52.203125 31.203125 
L 52.203125 0 
L 43.21875 0 
L 43.21875 8.296875 
Q 40.140625 3.328125 35.546875 0.953125 
Q 30.953125 -1.421875 24.3125 -1.421875 
Q 15.921875 -1.421875 10.953125 3.296875 
Q 6 8.015625 6 15.921875 
Q 6 25.140625 12.171875 29.828125 
Q 18.359375 34.515625 30.609375 34.515625 
L 43.21875 34.515625 
L 43.21875 35.40625 
Q 43.21875 41.609375 39.140625 45 
Q 35.0625 48.390625 27.6875 48.390625 
Q 23 48.390625 18.546875 47.265625 
Q 14.109375 46.140625 10.015625 43.890625 
L 10.015625 52.203125 
Q 14.9375 54.109375 19.578125 55.046875 
Q 24.21875 56 28.609375 56 
Q 40.484375 56 46.34375 49.84375 
Q 52.203125 43.703125 52.203125 31.203125 
z
" id="DejaVuSans-97"/>
      <path d="M 48.78125 52.59375 
L 48.78125 44.1875 
Q 44.96875 46.296875 41.140625 47.34375 
Q 37.3125 48.390625 33.40625 48.390625 
Q 24.65625 48.390625 19.8125 42.84375 
Q 14.984375 37.3125 14.984375 27.296875 
Q 14.984375 17.28125 19.8125 11.734375 
Q 24.65625 6.203125 33.40625 6.203125 
Q 37.3125 6.203125 41.140625 7.25 
Q 44.96875 8.296875 48.78125 10.40625 
L 48.78125 2.09375 
Q 45.015625 0.34375 40.984375 -0.53125 
Q 36.96875 -1.421875 32.421875 -1.421875 
Q 20.0625 -1.421875 12.78125 6.34375 
Q 5.515625 14.109375 5.515625 27.296875 
Q 5.515625 40.671875 12.859375 48.328125 
Q 20.21875 56 33.015625 56 
Q 37.15625 56 41.109375 55.140625 
Q 45.0625 54.296875 48.78125 52.59375 
z
" id="DejaVuSans-99"/>
      <path id="DejaVuSans-32"/>
      <path d="M 37.109375 75.984375 
L 37.109375 68.5 
L 28.515625 68.5 
Q 23.6875 68.5 21.796875 66.546875 
Q 19.921875 64.59375 19.921875 59.515625 
L 19.921875 54.6875 
L 34.71875 54.6875 
L 34.71875 47.703125 
L 19.921875 47.703125 
L 19.921875 0 
L 10.890625 0 
L 10.890625 47.703125 
L 2.296875 47.703125 
L 2.296875 54.6875 
L 10.890625 54.6875 
L 10.890625 58.5 
Q 10.890625 67.625 15.140625 71.796875 
Q 19.390625 75.984375 28.609375 75.984375 
z
" id="DejaVuSans-102"/>
      <path d="M 41.109375 46.296875 
Q 39.59375 47.171875 37.8125 47.578125 
Q 36.03125 48 33.890625 48 
Q 26.265625 48 22.1875 43.046875 
Q 18.109375 38.09375 18.109375 28.8125 
L 18.109375 0 
L 9.078125 0 
L 9.078125 54.6875 
L 18.109375 54.6875 
L 18.109375 46.1875 
Q 20.953125 51.171875 25.484375 53.578125 
Q 30.03125 56 36.53125 56 
Q 37.453125 56 38.578125 55.875 
Q 39.703125 55.765625 41.0625 55.515625 
z
" id="DejaVuSans-114"/>
      <path d="M 9.421875 54.6875 
L 18.40625 54.6875 
L 18.40625 0 
L 9.421875 0 
z
M 9.421875 75.984375 
L 18.40625 75.984375 
L 18.40625 64.59375 
L 9.421875 64.59375 
z
" id="DejaVuSans-105"/>
     </defs>
     <g style="fill:#a20000;" transform="translate(16.751406 70.792092)rotate(-90)scale(0.07 -0.07)">
      <use xlink:href="#DejaVuSans-67"/>
      <use x="69.824219" xlink:href="#DejaVuSans-111"/>
      <use x="131.005859" xlink:href="#DejaVuSans-110"/>
      <use x="194.384766" xlink:href="#DejaVuSans-116"/>
      <use x="233.59375" xlink:href="#DejaVuSans-97"/>
      <use x="294.873047" xlink:href="#DejaVuSans-99"/>
      <use x="349.853516" xlink:href="#DejaVuSans-116"/>
      <use x="389.0625" xlink:href="#DejaVuSans-32"/>
      <use x="420.849609" xlink:href="#DejaVuSans-102"/>
      <use x="456.054688" xlink:href="#DejaVuSans-114"/>
      <use x="497.167969" xlink:href="#DejaVuSans-97"/>
      <use x="558.447266" xlink:href="#DejaVuSans-99"/>
      <use x="613.427734" xlink:href="#DejaVuSans-116"/>
      <use x="652.636719" xlink:href="#DejaVuSans-105"/>
      <use x="680.419922" xlink:href="#DejaVuSans-111"/>
      <use x="741.601562" xlink:href="#DejaVuSans-110"/>
     </g>
    </g>
   </g>
   <g id="line2d_11">
    <path clip-path="url(#p0b56d3d139)" d="M 56.225 12.74409 
L 72.11 40.189219 
L 87.995 47.674254 
L 103.88 21.109717 
" style="fill:none;stroke:#000000;stroke-linecap:square;"/>
   </g>
   <g id="patch_3">
    <path d="M 40.34 74.238791 
L 40.34 10.997581 
" style="fill:none;stroke:#a20000;stroke-linecap:square;stroke-linejoin:miter;stroke-width:0.8;"/>
   </g>
   <g id="patch_4">
    <path d="M 103.88 74.238791 
L 103.88 10.997581 
" style="fill:none;stroke:#000000;stroke-linecap:square;stroke-linejoin:miter;stroke-width:0.8;"/>
   </g>
   <g id="patch_5">
    <path d="M 40.34 74.238791 
L 103.88 74.238791 
" style="fill:none;stroke:#000000;stroke-linecap:square;stroke-linejoin:miter;stroke-width:0.8;"/>
   </g>
   <g id="patch_6">
    <path d="M 40.34 10.997581 
L 103.88 10.997581 
" style="fill:none;stroke:#000000;stroke-linecap:square;stroke-linejoin:miter;stroke-width:0.8;"/>
   </g>
  </g>
  <g id="axes_2">
   <g id="patch_7">
    <path d="M 149.74 74.238791 
L 213.28 74.238791 
L 213.28 10.997581 
L 149.74 10.997581 
z
" style="fill:#ffffff;"/>
   </g>
   <g id="matplotlib.axis_3">
    <g id="xtick_6">
     <g id="line2d_12">
      <g>
       <use style="stroke:#000000;stroke-width:0.8;" x="149.74" xlink:href="#m7b5a59693a" y="74.238791"/>
      </g>
     </g>
     <g id="text_13">
      <!-- 0 -->
      <g transform="translate(148.149375 85.038009)scale(0.05 -0.05)">
       <use xlink:href="#DejaVuSans-48"/>
      </g>
     </g>
    </g>
    <g id="xtick_7">
     <g id="line2d_13">
      <g>
       <use style="stroke:#000000;stroke-width:0.8;" x="165.625" xlink:href="#m7b5a59693a" y="74.238791"/>
      </g>
     </g>
     <g id="text_14">
      <!-- 5 -->
      <defs>
       <path d="M 10.796875 72.90625 
L 49.515625 72.90625 
L 49.515625 64.59375 
L 19.828125 64.59375 
L 19.828125 46.734375 
Q 21.96875 47.46875 24.109375 47.828125 
Q 26.265625 48.1875 28.421875 48.1875 
Q 40.625 48.1875 47.75 41.5 
Q 54.890625 34.8125 54.890625 23.390625 
Q 54.890625 11.625 47.5625 5.09375 
Q 40.234375 -1.421875 26.90625 -1.421875 
Q 22.3125 -1.421875 17.546875 -0.640625 
Q 12.796875 0.140625 7.71875 1.703125 
L 7.71875 11.625 
Q 12.109375 9.234375 16.796875 8.0625 
Q 21.484375 6.890625 26.703125 6.890625 
Q 35.15625 6.890625 40.078125 11.328125 
Q 45.015625 15.765625 45.015625 23.390625 
Q 45.015625 31 40.078125 35.4375 
Q 35.15625 39.890625 26.703125 39.890625 
Q 22.75 39.890625 18.8125 39.015625 
Q 14.890625 38.140625 10.796875 36.28125 
z
" id="DejaVuSans-53"/>
      </defs>
      <g transform="translate(164.034375 85.038009)scale(0.05 -0.05)">
       <use xlink:href="#DejaVuSans-53"/>
      </g>
     </g>
    </g>
    <g id="xtick_8">
     <g id="line2d_14">
      <g>
       <use style="stroke:#000000;stroke-width:0.8;" x="181.51" xlink:href="#m7b5a59693a" y="74.238791"/>
      </g>
     </g>
     <g id="text_15">
      <!-- 10 -->
      <g transform="translate(178.32875 85.038009)scale(0.05 -0.05)">
       <use xlink:href="#DejaVuSans-49"/>
       <use x="63.623047" xlink:href="#DejaVuSans-48"/>
      </g>
     </g>
    </g>
    <g id="xtick_9">
     <g id="line2d_15">
      <g>
       <use style="stroke:#000000;stroke-width:0.8;" x="197.395" xlink:href="#m7b5a59693a" y="74.238791"/>
      </g>
     </g>
     <g id="text_16">
      <!-- 15 -->
      <g transform="translate(194.21375 85.038009)scale(0.05 -0.05)">
       <use xlink:href="#DejaVuSans-49"/>
       <use x="63.623047" xlink:href="#DejaVuSans-53"/>
      </g>
     </g>
    </g>
    <g id="xtick_10">
     <g id="line2d_16">
      <g>
       <use style="stroke:#000000;stroke-width:0.8;" x="213.28" xlink:href="#m7b5a59693a" y="74.238791"/>
      </g>
     </g>
     <g id="text_17">
      <!-- 20 -->
      <g transform="translate(210.09875 85.038009)scale(0.05 -0.05)">
       <use xlink:href="#DejaVuSans-50"/>
       <use x="63.623047" xlink:href="#DejaVuSans-48"/>
      </g>
     </g>
    </g>
    <g id="text_18">
     <!-- $\delta$ -->
     <g transform="translate(179.34 95.396759)scale(0.07 -0.07)">
      <use transform="translate(0 0.78125)" xlink:href="#DejaVuSans-Oblique-948"/>
     </g>
    </g>
   </g>
   <g id="matplotlib.axis_4">
    <g id="ytick_6">
     <g id="line2d_17">
      <g>
       <use style="fill:#a20000;stroke:#a20000;stroke-width:0.8;" x="149.74" xlink:href="#m31b7d0b712" y="74.238791"/>
      </g>
     </g>
     <g id="text_19">
      <!-- 0.00 -->
      <g style="fill:#a20000;" transform="translate(131.607188 76.1384)scale(0.05 -0.05)">
       <use xlink:href="#DejaVuSans-48"/>
       <use x="63.623047" xlink:href="#DejaVuSans-46"/>
       <use x="95.410156" xlink:href="#DejaVuSans-48"/>
       <use x="159.033203" xlink:href="#DejaVuSans-48"/>
      </g>
     </g>
    </g>
    <g id="ytick_7">
     <g id="line2d_18">
      <g>
       <use style="fill:#a20000;stroke:#a20000;stroke-width:0.8;" x="149.74" xlink:href="#m31b7d0b712" y="61.867886"/>
      </g>
     </g>
     <g id="text_20">
      <!-- 0.03 -->
      <g style="fill:#a20000;" transform="translate(131.607188 63.767495)scale(0.05 -0.05)">
       <use xlink:href="#DejaVuSans-48"/>
       <use x="63.623047" xlink:href="#DejaVuSans-46"/>
       <use x="95.410156" xlink:href="#DejaVuSans-48"/>
       <use x="159.033203" xlink:href="#DejaVuSans-51"/>
      </g>
     </g>
    </g>
    <g id="ytick_8">
     <g id="line2d_19">
      <g>
       <use style="fill:#a20000;stroke:#a20000;stroke-width:0.8;" x="149.74" xlink:href="#m31b7d0b712" y="49.496981"/>
      </g>
     </g>
     <g id="text_21">
      <!-- 0.06 -->
      <g style="fill:#a20000;" transform="translate(131.607188 51.39659)scale(0.05 -0.05)">
       <use xlink:href="#DejaVuSans-48"/>
       <use x="63.623047" xlink:href="#DejaVuSans-46"/>
       <use x="95.410156" xlink:href="#DejaVuSans-48"/>
       <use x="159.033203" xlink:href="#DejaVuSans-54"/>
      </g>
     </g>
    </g>
    <g id="ytick_9">
     <g id="line2d_20">
      <g>
       <use style="fill:#a20000;stroke:#a20000;stroke-width:0.8;" x="149.74" xlink:href="#m31b7d0b712" y="37.126076"/>
      </g>
     </g>
     <g id="text_22">
      <!-- 0.09 -->
      <defs>
       <path d="M 10.984375 1.515625 
L 10.984375 10.5 
Q 14.703125 8.734375 18.5 7.8125 
Q 22.3125 6.890625 25.984375 6.890625 
Q 35.75 6.890625 40.890625 13.453125 
Q 46.046875 20.015625 46.78125 33.40625 
Q 43.953125 29.203125 39.59375 26.953125 
Q 35.25 24.703125 29.984375 24.703125 
Q 19.046875 24.703125 12.671875 31.3125 
Q 6.296875 37.9375 6.296875 49.421875 
Q 6.296875 60.640625 12.9375 67.421875 
Q 19.578125 74.21875 30.609375 74.21875 
Q 43.265625 74.21875 49.921875 64.515625 
Q 56.59375 54.828125 56.59375 36.375 
Q 56.59375 19.140625 48.40625 8.859375 
Q 40.234375 -1.421875 26.421875 -1.421875 
Q 22.703125 -1.421875 18.890625 -0.6875 
Q 15.09375 0.046875 10.984375 1.515625 
z
M 30.609375 32.421875 
Q 37.25 32.421875 41.125 36.953125 
Q 45.015625 41.5 45.015625 49.421875 
Q 45.015625 57.28125 41.125 61.84375 
Q 37.25 66.40625 30.609375 66.40625 
Q 23.96875 66.40625 20.09375 61.84375 
Q 16.21875 57.28125 16.21875 49.421875 
Q 16.21875 41.5 20.09375 36.953125 
Q 23.96875 32.421875 30.609375 32.421875 
z
" id="DejaVuSans-57"/>
      </defs>
      <g style="fill:#a20000;" transform="translate(131.607188 39.025685)scale(0.05 -0.05)">
       <use xlink:href="#DejaVuSans-48"/>
       <use x="63.623047" xlink:href="#DejaVuSans-46"/>
       <use x="95.410156" xlink:href="#DejaVuSans-48"/>
       <use x="159.033203" xlink:href="#DejaVuSans-57"/>
      </g>
     </g>
    </g>
    <g id="ytick_10">
     <g id="line2d_21">
      <g>
       <use style="fill:#a20000;stroke:#a20000;stroke-width:0.8;" x="149.74" xlink:href="#m31b7d0b712" y="24.755171"/>
      </g>
     </g>
     <g id="text_23">
      <!-- 0.12 -->
      <g style="fill:#a20000;" transform="translate(131.607188 26.65478)scale(0.05 -0.05)">
       <use xlink:href="#DejaVuSans-48"/>
       <use x="63.623047" xlink:href="#DejaVuSans-46"/>
       <use x="95.410156" xlink:href="#DejaVuSans-49"/>
       <use x="159.033203" xlink:href="#DejaVuSans-50"/>
      </g>
     </g>
    </g>
    <g id="ytick_11">
     <g id="line2d_22">
      <g>
       <use style="fill:#a20000;stroke:#a20000;stroke-width:0.8;" x="149.74" xlink:href="#m31b7d0b712" y="12.384266"/>
      </g>
     </g>
     <g id="text_24">
      <!-- 0.15 -->
      <g style="fill:#a20000;" transform="translate(131.607188 14.283875)scale(0.05 -0.05)">
       <use xlink:href="#DejaVuSans-48"/>
       <use x="63.623047" xlink:href="#DejaVuSans-46"/>
       <use x="95.410156" xlink:href="#DejaVuSans-49"/>
       <use x="159.033203" xlink:href="#DejaVuSans-53"/>
      </g>
     </g>
    </g>
   </g>
   <g id="line2d_23">
    <path clip-path="url(#p40cb6fbf0f)" d="M 152.917 71.717546 
L 156.094 61.352431 
L 159.271 45.664689 
L 162.448 29.136533 
L 165.625 14.009068 
L 168.802 25.494736 
L 171.979 35.299574 
L 175.156 50.987316 
L 178.333 63.873676 
L 181.51 70.596993 
L 184.687 72.277823 
L 187.864 74.238791 
L 191.041 74.238791 
L 194.218 73.958652 
L 197.395 73.118238 
L 200.572 68.916164 
L 203.749 61.912708 
L 206.926 38.941372 
L 210.103 24.934459 
L 213.28 41.742754 
" style="fill:none;stroke:#000000;stroke-linecap:square;"/>
   </g>
   <g id="patch_8">
    <path d="M 149.74 74.238791 
L 149.74 10.997581 
" style="fill:none;stroke:#a20000;stroke-linecap:square;stroke-linejoin:miter;stroke-width:0.8;"/>
   </g>
   <g id="patch_9">
    <path d="M 213.28 74.238791 
L 213.28 10.997581 
" style="fill:none;stroke:#000000;stroke-linecap:square;stroke-linejoin:miter;stroke-width:0.8;"/>
   </g>
   <g id="patch_10">
    <path d="M 149.74 74.238791 
L 213.28 74.238791 
" style="fill:none;stroke:#000000;stroke-linecap:square;stroke-linejoin:miter;stroke-width:0.8;"/>
   </g>
   <g id="patch_11">
    <path d="M 149.74 10.997581 
L 213.28 10.997581 
" style="fill:none;stroke:#000000;stroke-linecap:square;stroke-linejoin:miter;stroke-width:0.8;"/>
   </g>
  </g>
  <g id="axes_3">
   <g id="patch_12">
    <path d="M 40.34 174.04 
L 103.88 174.04 
L 103.88 110.798791 
L 40.34 110.798791 
z
" style="fill:#ffffff;"/>
   </g>
   <g id="matplotlib.axis_5">
    <g id="xtick_11">
     <g id="line2d_24">
      <g>
       <use style="stroke:#000000;stroke-width:0.8;" x="40.34" xlink:href="#m7b5a59693a" y="174.04"/>
      </g>
     </g>
     <g id="text_25">
      <!-- 0 -->
      <g transform="translate(38.749375 184.839219)scale(0.05 -0.05)">
       <use xlink:href="#DejaVuSans-48"/>
      </g>
     </g>
    </g>
    <g id="xtick_12">
     <g id="line2d_25">
      <g>
       <use style="stroke:#000000;stroke-width:0.8;" x="72.11" xlink:href="#m7b5a59693a" y="174.04"/>
      </g>
     </g>
     <g id="text_26">
      <!-- 50 -->
      <g transform="translate(68.92875 184.839219)scale(0.05 -0.05)">
       <use xlink:href="#DejaVuSans-53"/>
       <use x="63.623047" xlink:href="#DejaVuSans-48"/>
      </g>
     </g>
    </g>
    <g id="xtick_13">
     <g id="line2d_26">
      <g>
       <use style="stroke:#000000;stroke-width:0.8;" x="103.88" xlink:href="#m7b5a59693a" y="174.04"/>
      </g>
     </g>
     <g id="text_27">
      <!-- 100 -->
      <g transform="translate(99.108125 184.839219)scale(0.05 -0.05)">
       <use xlink:href="#DejaVuSans-49"/>
       <use x="63.623047" xlink:href="#DejaVuSans-48"/>
       <use x="127.246094" xlink:href="#DejaVuSans-48"/>
      </g>
     </g>
    </g>
    <g id="text_28">
     <!-- $\delta$ -->
     <g transform="translate(69.94 195.197969)scale(0.07 -0.07)">
      <use transform="translate(0 0.78125)" xlink:href="#DejaVuSans-Oblique-948"/>
     </g>
    </g>
   </g>
   <g id="matplotlib.axis_6">
    <g id="ytick_12">
     <g id="line2d_27">
      <g>
       <use style="fill:#a20000;stroke:#a20000;stroke-width:0.8;" x="40.34" xlink:href="#m31b7d0b712" y="174.04"/>
      </g>
     </g>
     <g id="text_29">
      <!-- 0.00 -->
      <g style="fill:#a20000;" transform="translate(22.207188 175.939609)scale(0.05 -0.05)">
       <use xlink:href="#DejaVuSans-48"/>
       <use x="63.623047" xlink:href="#DejaVuSans-46"/>
       <use x="95.410156" xlink:href="#DejaVuSans-48"/>
       <use x="159.033203" xlink:href="#DejaVuSans-48"/>
      </g>
     </g>
    </g>
    <g id="ytick_13">
     <g id="line2d_28">
      <g>
       <use style="fill:#a20000;stroke:#a20000;stroke-width:0.8;" x="40.34" xlink:href="#m31b7d0b712" y="158.229698"/>
      </g>
     </g>
     <g id="text_30">
      <!-- 0.02 -->
      <g style="fill:#a20000;" transform="translate(22.207188 160.129307)scale(0.05 -0.05)">
       <use xlink:href="#DejaVuSans-48"/>
       <use x="63.623047" xlink:href="#DejaVuSans-46"/>
       <use x="95.410156" xlink:href="#DejaVuSans-48"/>
       <use x="159.033203" xlink:href="#DejaVuSans-50"/>
      </g>
     </g>
    </g>
    <g id="ytick_14">
     <g id="line2d_29">
      <g>
       <use style="fill:#a20000;stroke:#a20000;stroke-width:0.8;" x="40.34" xlink:href="#m31b7d0b712" y="142.419395"/>
      </g>
     </g>
     <g id="text_31">
      <!-- 0.04 -->
      <g style="fill:#a20000;" transform="translate(22.207188 144.319005)scale(0.05 -0.05)">
       <use xlink:href="#DejaVuSans-48"/>
       <use x="63.623047" xlink:href="#DejaVuSans-46"/>
       <use x="95.410156" xlink:href="#DejaVuSans-48"/>
       <use x="159.033203" xlink:href="#DejaVuSans-52"/>
      </g>
     </g>
    </g>
    <g id="ytick_15">
     <g id="line2d_30">
      <g>
       <use style="fill:#a20000;stroke:#a20000;stroke-width:0.8;" x="40.34" xlink:href="#m31b7d0b712" y="126.609093"/>
      </g>
     </g>
     <g id="text_32">
      <!-- 0.06 -->
      <g style="fill:#a20000;" transform="translate(22.207188 128.508702)scale(0.05 -0.05)">
       <use xlink:href="#DejaVuSans-48"/>
       <use x="63.623047" xlink:href="#DejaVuSans-46"/>
       <use x="95.410156" xlink:href="#DejaVuSans-48"/>
       <use x="159.033203" xlink:href="#DejaVuSans-54"/>
      </g>
     </g>
    </g>
    <g id="ytick_16">
     <g id="line2d_31">
      <g>
       <use style="fill:#a20000;stroke:#a20000;stroke-width:0.8;" x="40.34" xlink:href="#m31b7d0b712" y="110.798791"/>
      </g>
     </g>
     <g id="text_33">
      <!-- 0.08 -->
      <g style="fill:#a20000;" transform="translate(22.207188 112.6984)scale(0.05 -0.05)">
       <use xlink:href="#DejaVuSans-48"/>
       <use x="63.623047" xlink:href="#DejaVuSans-46"/>
       <use x="95.410156" xlink:href="#DejaVuSans-48"/>
       <use x="159.033203" xlink:href="#DejaVuSans-56"/>
      </g>
     </g>
    </g>
    <g id="text_34">
     <!-- Contact fraction -->
     <g style="fill:#a20000;" transform="translate(16.751406 170.593302)rotate(-90)scale(0.07 -0.07)">
      <use xlink:href="#DejaVuSans-67"/>
      <use x="69.824219" xlink:href="#DejaVuSans-111"/>
      <use x="131.005859" xlink:href="#DejaVuSans-110"/>
      <use x="194.384766" xlink:href="#DejaVuSans-116"/>
      <use x="233.59375" xlink:href="#DejaVuSans-97"/>
      <use x="294.873047" xlink:href="#DejaVuSans-99"/>
      <use x="349.853516" xlink:href="#DejaVuSans-116"/>
      <use x="389.0625" xlink:href="#DejaVuSans-32"/>
      <use x="420.849609" xlink:href="#DejaVuSans-102"/>
      <use x="456.054688" xlink:href="#DejaVuSans-114"/>
      <use x="497.167969" xlink:href="#DejaVuSans-97"/>
      <use x="558.447266" xlink:href="#DejaVuSans-99"/>
      <use x="613.427734" xlink:href="#DejaVuSans-116"/>
      <use x="652.636719" xlink:href="#DejaVuSans-105"/>
      <use x="680.419922" xlink:href="#DejaVuSans-111"/>
      <use x="741.601562" xlink:href="#DejaVuSans-110"/>
     </g>
    </g>
   </g>
   <g id="line2d_32">
    <path clip-path="url(#p1ba0803c8f)" d="M 40.9754 174.04 
L 41.6108 174.04 
L 42.2462 174.04 
L 42.8816 174.04 
L 43.517 174.04 
L 44.1524 174.04 
L 44.7878 174.04 
L 45.4232 174.04 
L 46.0586 174.04 
L 46.694 174.04 
L 47.3294 174.04 
L 47.9648 174.04 
L 48.6002 174.04 
L 49.2356 174.04 
L 49.871 173.503694 
L 50.5064 173.503694 
L 51.1418 172.431082 
L 51.7772 167.068021 
L 52.4126 166.531715 
L 53.048 163.850185 
L 53.6834 156.878206 
L 54.3188 144.006861 
L 54.9542 147.224698 
L 55.5896 141.861637 
L 56.225 135.425964 
L 56.8604 124.699843 
L 57.4958 135.962271 
L 58.1312 127.381374 
L 58.7666 133.817046 
L 59.402 138.643801 
L 60.0374 131.671822 
L 60.6728 144.543167 
L 61.3082 152.051452 
L 61.9436 162.241267 
L 62.579 159.023431 
L 63.2144 164.386491 
L 63.8498 165.995409 
L 64.4852 170.285858 
L 65.1206 171.894776 
L 65.756 171.894776 
L 66.3914 173.503694 
L 67.0268 172.967388 
L 67.6622 174.04 
L 68.2976 174.04 
L 68.933 174.04 
L 69.5684 174.04 
L 70.2038 174.04 
L 70.8392 174.04 
L 71.4746 174.04 
L 72.11 174.04 
L 72.7454 174.04 
L 73.3808 174.04 
L 74.0162 174.04 
L 74.6516 174.04 
L 75.287 174.04 
L 75.9224 174.04 
L 76.5578 174.04 
L 77.1932 174.04 
L 77.8286 174.04 
L 78.464 174.04 
L 79.0994 174.04 
L 79.7348 174.04 
L 80.3702 174.04 
L 81.0056 174.04 
L 81.641 174.04 
L 82.2764 174.04 
L 82.9118 174.04 
L 83.5472 174.04 
L 84.1826 174.04 
L 84.818 174.04 
L 85.4534 174.04 
L 86.0888 174.04 
L 86.7242 174.04 
L 87.3596 174.04 
L 87.995 174.04 
L 88.6304 174.04 
L 89.2658 174.04 
L 89.9012 174.04 
L 90.5366 174.04 
L 91.172 174.04 
L 91.8074 174.04 
L 92.4428 174.04 
L 93.0782 174.04 
L 93.7136 174.04 
L 94.349 173.503694 
L 94.9844 172.431082 
L 95.6198 168.67694 
L 96.2552 168.67694 
L 96.8906 168.140633 
L 97.526 153.66037 
L 98.1614 148.29731 
L 98.7968 138.643801 
L 99.4322 137.034883 
L 100.0676 130.062904 
L 100.703 135.425964 
L 101.3384 155.805594 
L 101.9738 157.950819 
L 102.6092 170.285858 
L 103.2446 171.894776 
L 103.88 173.503694 
" style="fill:none;stroke:#000000;stroke-linecap:square;"/>
   </g>
   <g id="patch_13">
    <path d="M 40.34 174.04 
L 40.34 110.798791 
" style="fill:none;stroke:#a20000;stroke-linecap:square;stroke-linejoin:miter;stroke-width:0.8;"/>
   </g>
   <g id="patch_14">
    <path d="M 103.88 174.04 
L 103.88 110.798791 
" style="fill:none;stroke:#000000;stroke-linecap:square;stroke-linejoin:miter;stroke-width:0.8;"/>
   </g>
   <g id="patch_15">
    <path d="M 40.34 174.04 
L 103.88 174.04 
" style="fill:none;stroke:#000000;stroke-linecap:square;stroke-linejoin:miter;stroke-width:0.8;"/>
   </g>
   <g id="patch_16">
    <path d="M 40.34 110.798791 
L 103.88 110.798791 
" style="fill:none;stroke:#000000;stroke-linecap:square;stroke-linejoin:miter;stroke-width:0.8;"/>
   </g>
  </g>
  <g id="axes_4">
   <g id="patch_17">
    <path d="M 149.74 174.04 
L 213.28 174.04 
L 213.28 110.798791 
L 149.74 110.798791 
z
" style="fill:#ffffff;"/>
   </g>
   <g id="matplotlib.axis_7">
    <g id="xtick_14">
     <g id="line2d_33">
      <g>
       <use style="stroke:#000000;stroke-width:0.8;" x="149.74" xlink:href="#m7b5a59693a" y="174.04"/>
      </g>
     </g>
     <g id="text_35">
      <!-- 0 -->
      <g transform="translate(148.149375 184.839219)scale(0.05 -0.05)">
       <use xlink:href="#DejaVuSans-48"/>
      </g>
     </g>
    </g>
    <g id="xtick_15">
     <g id="line2d_34">
      <g>
       <use style="stroke:#000000;stroke-width:0.8;" x="181.51" xlink:href="#m7b5a59693a" y="174.04"/>
      </g>
     </g>
     <g id="text_36">
      <!-- 500 -->
      <g transform="translate(176.738125 184.839219)scale(0.05 -0.05)">
       <use xlink:href="#DejaVuSans-53"/>
       <use x="63.623047" xlink:href="#DejaVuSans-48"/>
       <use x="127.246094" xlink:href="#DejaVuSans-48"/>
      </g>
     </g>
    </g>
    <g id="xtick_16">
     <g id="line2d_35">
      <g>
       <use style="stroke:#000000;stroke-width:0.8;" x="213.28" xlink:href="#m7b5a59693a" y="174.04"/>
      </g>
     </g>
     <g id="text_37">
      <!-- 1000 -->
      <g transform="translate(206.9175 184.839219)scale(0.05 -0.05)">
       <use xlink:href="#DejaVuSans-49"/>
       <use x="63.623047" xlink:href="#DejaVuSans-48"/>
       <use x="127.246094" xlink:href="#DejaVuSans-48"/>
       <use x="190.869141" xlink:href="#DejaVuSans-48"/>
      </g>
     </g>
    </g>
    <g id="text_38">
     <!-- $\delta$ -->
     <g transform="translate(179.34 195.197969)scale(0.07 -0.07)">
      <use transform="translate(0 0.78125)" xlink:href="#DejaVuSans-Oblique-948"/>
     </g>
    </g>
   </g>
   <g id="matplotlib.axis_8">
    <g id="ytick_17">
     <g id="line2d_36">
      <g>
       <use style="fill:#a20000;stroke:#a20000;stroke-width:0.8;" x="149.74" xlink:href="#m31b7d0b712" y="174.04"/>
      </g>
     </g>
     <g id="text_39">
      <!-- 0.000 -->
      <g style="fill:#a20000;" transform="translate(128.425938 175.939609)scale(0.05 -0.05)">
       <use xlink:href="#DejaVuSans-48"/>
       <use x="63.623047" xlink:href="#DejaVuSans-46"/>
       <use x="95.410156" xlink:href="#DejaVuSans-48"/>
       <use x="159.033203" xlink:href="#DejaVuSans-48"/>
       <use x="222.65625" xlink:href="#DejaVuSans-48"/>
      </g>
     </g>
    </g>
    <g id="ytick_18">
     <g id="line2d_37">
      <g>
       <use style="fill:#a20000;stroke:#a20000;stroke-width:0.8;" x="149.74" xlink:href="#m31b7d0b712" y="158.229698"/>
      </g>
     </g>
     <g id="text_40">
      <!-- 0.007 -->
      <defs>
       <path d="M 8.203125 72.90625 
L 55.078125 72.90625 
L 55.078125 68.703125 
L 28.609375 0 
L 18.3125 0 
L 43.21875 64.59375 
L 8.203125 64.59375 
z
" id="DejaVuSans-55"/>
      </defs>
      <g style="fill:#a20000;" transform="translate(128.425938 160.129307)scale(0.05 -0.05)">
       <use xlink:href="#DejaVuSans-48"/>
       <use x="63.623047" xlink:href="#DejaVuSans-46"/>
       <use x="95.410156" xlink:href="#DejaVuSans-48"/>
       <use x="159.033203" xlink:href="#DejaVuSans-48"/>
       <use x="222.65625" xlink:href="#DejaVuSans-55"/>
      </g>
     </g>
    </g>
    <g id="ytick_19">
     <g id="line2d_38">
      <g>
       <use style="fill:#a20000;stroke:#a20000;stroke-width:0.8;" x="149.74" xlink:href="#m31b7d0b712" y="142.419395"/>
      </g>
     </g>
     <g id="text_41">
      <!-- 0.014 -->
      <g style="fill:#a20000;" transform="translate(128.425938 144.319005)scale(0.05 -0.05)">
       <use xlink:href="#DejaVuSans-48"/>
       <use x="63.623047" xlink:href="#DejaVuSans-46"/>
       <use x="95.410156" xlink:href="#DejaVuSans-48"/>
       <use x="159.033203" xlink:href="#DejaVuSans-49"/>
       <use x="222.65625" xlink:href="#DejaVuSans-52"/>
      </g>
     </g>
    </g>
    <g id="ytick_20">
     <g id="line2d_39">
      <g>
       <use style="fill:#a20000;stroke:#a20000;stroke-width:0.8;" x="149.74" xlink:href="#m31b7d0b712" y="126.609093"/>
      </g>
     </g>
     <g id="text_42">
      <!-- 0.021 -->
      <g style="fill:#a20000;" transform="translate(128.425938 128.508702)scale(0.05 -0.05)">
       <use xlink:href="#DejaVuSans-48"/>
       <use x="63.623047" xlink:href="#DejaVuSans-46"/>
       <use x="95.410156" xlink:href="#DejaVuSans-48"/>
       <use x="159.033203" xlink:href="#DejaVuSans-50"/>
       <use x="222.65625" xlink:href="#DejaVuSans-49"/>
      </g>
     </g>
    </g>
    <g id="ytick_21">
     <g id="line2d_40">
      <g>
       <use style="fill:#a20000;stroke:#a20000;stroke-width:0.8;" x="149.74" xlink:href="#m31b7d0b712" y="110.798791"/>
      </g>
     </g>
     <g id="text_43">
      <!-- 0.028 -->
      <g style="fill:#a20000;" transform="translate(128.425938 112.6984)scale(0.05 -0.05)">
       <use xlink:href="#DejaVuSans-48"/>
       <use x="63.623047" xlink:href="#DejaVuSans-46"/>
       <use x="95.410156" xlink:href="#DejaVuSans-48"/>
       <use x="159.033203" xlink:href="#DejaVuSans-50"/>
       <use x="222.65625" xlink:href="#DejaVuSans-56"/>
      </g>
     </g>
    </g>
   </g>
   <g id="line2d_41">
    <path clip-path="url(#pdfe8dd5d43)" d="M 149.80354 174.04 
L 164.10004 174.04 
L 164.16358 172.507697 
L 164.29066 174.04 
L 164.54482 174.04 
L 164.60836 172.507697 
L 164.6719 174.04 
L 164.73544 172.507697 
L 164.86252 174.04 
L 165.11668 174.04 
L 165.24376 169.443091 
L 165.37084 174.04 
L 165.625 169.443091 
L 165.68854 172.507697 
L 166.00624 160.249273 
L 166.06978 161.781576 
L 166.13332 166.378485 
L 166.19686 157.184667 
L 166.2604 161.781576 
L 166.38748 158.71697 
L 166.45102 163.313879 
L 166.51456 141.861637 
L 166.5781 146.458546 
L 166.64164 147.990849 
L 166.70518 146.458546 
L 166.76872 132.667819 
L 166.83226 144.926243 
L 166.8958 138.797031 
L 166.95934 123.474001 
L 167.02288 144.926243 
L 167.08642 141.861637 
L 167.14996 141.861637 
L 167.2135 143.39394 
L 167.27704 125.006304 
L 167.34058 128.07091 
L 167.40412 129.603213 
L 167.46766 152.587758 
L 167.65828 121.941698 
L 167.72182 114.280183 
L 167.97598 137.264728 
L 168.10306 137.264728 
L 168.29368 157.184667 
L 168.35722 135.732425 
L 168.42076 146.458546 
L 168.4843 140.329334 
L 168.61138 157.184667 
L 168.73846 155.652364 
L 168.86554 166.378485 
L 168.92908 157.184667 
L 168.99262 161.781576 
L 169.05616 164.846182 
L 169.1197 155.652364 
L 169.24678 172.507697 
L 169.31032 166.378485 
L 169.37386 169.443091 
L 169.4374 170.975394 
L 169.50094 167.910788 
L 169.69156 172.507697 
L 169.88218 172.507697 
L 169.94572 174.04 
L 170.00926 172.507697 
L 170.13634 174.04 
L 170.19988 172.507697 
L 170.32696 174.04 
L 207.2437 174.04 
L 207.37078 172.507697 
L 207.49786 174.04 
L 207.5614 167.910788 
L 207.68848 174.04 
L 207.75202 167.910788 
L 207.81556 172.507697 
L 207.94264 160.249273 
L 208.00618 170.975394 
L 208.06972 157.184667 
L 208.13326 158.71697 
L 208.1968 157.184667 
L 208.26034 163.313879 
L 208.45096 146.458546 
L 208.5145 149.523152 
L 208.57804 138.797031 
L 208.64158 140.329334 
L 208.76866 135.732425 
L 208.89574 147.990849 
L 209.08636 126.538607 
L 209.1499 149.523152 
L 209.21344 143.39394 
L 209.27698 137.264728 
L 209.40406 155.652364 
L 209.4676 151.055455 
L 209.65822 163.313879 
L 209.91238 172.507697 
L 209.97592 170.975394 
L 210.103 174.04 
L 210.16654 172.507697 
L 210.29362 174.04 
L 213.28 174.04 
L 213.28 174.04 
" style="fill:none;stroke:#000000;stroke-linecap:square;"/>
   </g>
   <g id="patch_18">
    <path d="M 149.74 174.04 
L 149.74 110.798791 
" style="fill:none;stroke:#a20000;stroke-linecap:square;stroke-linejoin:miter;stroke-width:0.8;"/>
   </g>
   <g id="patch_19">
    <path d="M 213.28 174.04 
L 213.28 110.798791 
" style="fill:none;stroke:#000000;stroke-linecap:square;stroke-linejoin:miter;stroke-width:0.8;"/>
   </g>
   <g id="patch_20">
    <path d="M 149.74 174.04 
L 213.28 174.04 
" style="fill:none;stroke:#000000;stroke-linecap:square;stroke-linejoin:miter;stroke-width:0.8;"/>
   </g>
   <g id="patch_21">
    <path d="M 149.74 110.798791 
L 213.28 110.798791 
" style="fill:none;stroke:#000000;stroke-linecap:square;stroke-linejoin:miter;stroke-width:0.8;"/>
   </g>
  </g>
  <g id="axes_5">
   <g id="matplotlib.axis_9">
    <g id="ytick_22">
     <g id="line2d_42">
      <defs>
       <path d="M 0 0 
L 3.5 0 
" id="m91904ce504" style="stroke:#000000;stroke-width:0.8;"/>
      </defs>
      <g>
       <use style="stroke:#000000;stroke-width:0.8;" x="103.88" xlink:href="#m91904ce504" y="74.238791"/>
      </g>
     </g>
     <g id="text_44">
      <!-- 0 -->
      <g transform="translate(110.88 76.1384)scale(0.05 -0.05)">
       <use xlink:href="#DejaVuSans-48"/>
      </g>
     </g>
    </g>
    <g id="ytick_23">
     <g id="line2d_43">
      <g>
       <use style="stroke:#000000;stroke-width:0.8;" x="103.88" xlink:href="#m91904ce504" y="59.562251"/>
      </g>
     </g>
     <g id="text_45">
      <!-- 100 -->
      <g transform="translate(110.88 61.46186)scale(0.05 -0.05)">
       <use xlink:href="#DejaVuSans-49"/>
       <use x="63.623047" xlink:href="#DejaVuSans-48"/>
       <use x="127.246094" xlink:href="#DejaVuSans-48"/>
      </g>
     </g>
    </g>
    <g id="ytick_24">
     <g id="line2d_44">
      <g>
       <use style="stroke:#000000;stroke-width:0.8;" x="103.88" xlink:href="#m91904ce504" y="44.885711"/>
      </g>
     </g>
     <g id="text_46">
      <!-- 200 -->
      <g transform="translate(110.88 46.785321)scale(0.05 -0.05)">
       <use xlink:href="#DejaVuSans-50"/>
       <use x="63.623047" xlink:href="#DejaVuSans-48"/>
       <use x="127.246094" xlink:href="#DejaVuSans-48"/>
      </g>
     </g>
    </g>
    <g id="ytick_25">
     <g id="line2d_45">
      <g>
       <use style="stroke:#000000;stroke-width:0.8;" x="103.88" xlink:href="#m91904ce504" y="30.209172"/>
      </g>
     </g>
     <g id="text_47">
      <!-- 300 -->
      <g transform="translate(110.88 32.108781)scale(0.05 -0.05)">
       <use xlink:href="#DejaVuSans-51"/>
       <use x="63.623047" xlink:href="#DejaVuSans-48"/>
       <use x="127.246094" xlink:href="#DejaVuSans-48"/>
      </g>
     </g>
    </g>
    <g id="ytick_26">
     <g id="line2d_46">
      <g>
       <use style="stroke:#000000;stroke-width:0.8;" x="103.88" xlink:href="#m91904ce504" y="15.532632"/>
      </g>
     </g>
     <g id="text_48">
      <!-- 400 -->
      <g transform="translate(110.88 17.432242)scale(0.05 -0.05)">
       <use xlink:href="#DejaVuSans-52"/>
       <use x="63.623047" xlink:href="#DejaVuSans-48"/>
       <use x="127.246094" xlink:href="#DejaVuSans-48"/>
      </g>
     </g>
    </g>
   </g>
   <g id="patch_22">
    <path d="M 40.34 74.238791 
L 40.34 10.997581 
" style="fill:none;stroke:#000000;stroke-linecap:square;stroke-linejoin:miter;stroke-width:0.8;"/>
   </g>
   <g id="patch_23">
    <path d="M 103.88 74.238791 
L 103.88 10.997581 
" style="fill:none;stroke:#000000;stroke-linecap:square;stroke-linejoin:miter;stroke-width:0.8;"/>
   </g>
   <g id="patch_24">
    <path d="M 40.34 74.238791 
L 103.88 74.238791 
" style="fill:none;stroke:#000000;stroke-linecap:square;stroke-linejoin:miter;stroke-width:0.8;"/>
   </g>
   <g id="patch_25">
    <path d="M 40.34 10.997581 
L 103.88 10.997581 
" style="fill:none;stroke:#000000;stroke-linecap:square;stroke-linejoin:miter;stroke-width:0.8;"/>
   </g>
  </g>
  <g id="axes_6">
   <g id="matplotlib.axis_10">
    <g id="ytick_27">
     <g id="line2d_47">
      <g>
       <use style="stroke:#000000;stroke-width:0.8;" x="213.28" xlink:href="#m91904ce504" y="74.238791"/>
      </g>
     </g>
     <g id="text_49">
      <!-- 0 -->
      <g transform="translate(220.28 76.1384)scale(0.05 -0.05)">
       <use xlink:href="#DejaVuSans-48"/>
      </g>
     </g>
    </g>
    <g id="ytick_28">
     <g id="line2d_48">
      <g>
       <use style="stroke:#000000;stroke-width:0.8;" x="213.28" xlink:href="#m91904ce504" y="60.231878"/>
      </g>
     </g>
     <g id="text_50">
      <!-- 50 -->
      <g transform="translate(220.28 62.131488)scale(0.05 -0.05)">
       <use xlink:href="#DejaVuSans-53"/>
       <use x="63.623047" xlink:href="#DejaVuSans-48"/>
      </g>
     </g>
    </g>
    <g id="ytick_29">
     <g id="line2d_49">
      <g>
       <use style="stroke:#000000;stroke-width:0.8;" x="213.28" xlink:href="#m91904ce504" y="46.224966"/>
      </g>
     </g>
     <g id="text_51">
      <!-- 100 -->
      <g transform="translate(220.28 48.124575)scale(0.05 -0.05)">
       <use xlink:href="#DejaVuSans-49"/>
       <use x="63.623047" xlink:href="#DejaVuSans-48"/>
       <use x="127.246094" xlink:href="#DejaVuSans-48"/>
      </g>
     </g>
    </g>
    <g id="ytick_30">
     <g id="line2d_50">
      <g>
       <use style="stroke:#000000;stroke-width:0.8;" x="213.28" xlink:href="#m91904ce504" y="32.218054"/>
      </g>
     </g>
     <g id="text_52">
      <!-- 150 -->
      <g transform="translate(220.28 34.117663)scale(0.05 -0.05)">
       <use xlink:href="#DejaVuSans-49"/>
       <use x="63.623047" xlink:href="#DejaVuSans-53"/>
       <use x="127.246094" xlink:href="#DejaVuSans-48"/>
      </g>
     </g>
    </g>
    <g id="ytick_31">
     <g id="line2d_51">
      <g>
       <use style="stroke:#000000;stroke-width:0.8;" x="213.28" xlink:href="#m91904ce504" y="18.211141"/>
      </g>
     </g>
     <g id="text_53">
      <!-- 200 -->
      <g transform="translate(220.28 20.110751)scale(0.05 -0.05)">
       <use xlink:href="#DejaVuSans-50"/>
       <use x="63.623047" xlink:href="#DejaVuSans-48"/>
       <use x="127.246094" xlink:href="#DejaVuSans-48"/>
      </g>
     </g>
    </g>
    <g id="text_54">
     <!-- # of contacts -->
     <defs>
      <path d="M 51.125 44 
L 36.921875 44 
L 32.8125 27.6875 
L 47.125 27.6875 
z
M 43.796875 71.78125 
L 38.71875 51.515625 
L 52.984375 51.515625 
L 58.109375 71.78125 
L 65.921875 71.78125 
L 60.890625 51.515625 
L 76.125 51.515625 
L 76.125 44 
L 58.984375 44 
L 54.984375 27.6875 
L 70.515625 27.6875 
L 70.515625 20.21875 
L 53.078125 20.21875 
L 48 0 
L 40.1875 0 
L 45.21875 20.21875 
L 30.90625 20.21875 
L 25.875 0 
L 18.015625 0 
L 23.09375 20.21875 
L 7.71875 20.21875 
L 7.71875 27.6875 
L 24.90625 27.6875 
L 29 44 
L 13.28125 44 
L 13.28125 51.515625 
L 30.90625 51.515625 
L 35.890625 71.78125 
z
" id="DejaVuSans-35"/>
      <path d="M 44.28125 53.078125 
L 44.28125 44.578125 
Q 40.484375 46.53125 36.375 47.5 
Q 32.28125 48.484375 27.875 48.484375 
Q 21.1875 48.484375 17.84375 46.4375 
Q 14.5 44.390625 14.5 40.28125 
Q 14.5 37.15625 16.890625 35.375 
Q 19.28125 33.59375 26.515625 31.984375 
L 29.59375 31.296875 
Q 39.15625 29.25 43.1875 25.515625 
Q 47.21875 21.78125 47.21875 15.09375 
Q 47.21875 7.46875 41.1875 3.015625 
Q 35.15625 -1.421875 24.609375 -1.421875 
Q 20.21875 -1.421875 15.453125 -0.5625 
Q 10.6875 0.296875 5.421875 2 
L 5.421875 11.28125 
Q 10.40625 8.6875 15.234375 7.390625 
Q 20.0625 6.109375 24.8125 6.109375 
Q 31.15625 6.109375 34.5625 8.28125 
Q 37.984375 10.453125 37.984375 14.40625 
Q 37.984375 18.0625 35.515625 20.015625 
Q 33.0625 21.96875 24.703125 23.78125 
L 21.578125 24.515625 
Q 13.234375 26.265625 9.515625 29.90625 
Q 5.8125 33.546875 5.8125 39.890625 
Q 5.8125 47.609375 11.28125 51.796875 
Q 16.75 56 26.8125 56 
Q 31.78125 56 36.171875 55.265625 
Q 40.578125 54.546875 44.28125 53.078125 
z
" id="DejaVuSans-115"/>
     </defs>
     <g transform="translate(239.142656 66.070374)rotate(-90)scale(0.07 -0.07)">
      <use xlink:href="#DejaVuSans-35"/>
      <use x="83.789062" xlink:href="#DejaVuSans-32"/>
      <use x="115.576172" xlink:href="#DejaVuSans-111"/>
      <use x="176.757812" xlink:href="#DejaVuSans-102"/>
      <use x="211.962891" xlink:href="#DejaVuSans-32"/>
      <use x="243.75" xlink:href="#DejaVuSans-99"/>
      <use x="298.730469" xlink:href="#DejaVuSans-111"/>
      <use x="359.912109" xlink:href="#DejaVuSans-110"/>
      <use x="423.291016" xlink:href="#DejaVuSans-116"/>
      <use x="462.5" xlink:href="#DejaVuSans-97"/>
      <use x="523.779297" xlink:href="#DejaVuSans-99"/>
      <use x="578.759766" xlink:href="#DejaVuSans-116"/>
      <use x="617.96875" xlink:href="#DejaVuSans-115"/>
     </g>
    </g>
   </g>
   <g id="patch_26">
    <path d="M 149.74 74.238791 
L 149.74 10.997581 
" style="fill:none;stroke:#000000;stroke-linecap:square;stroke-linejoin:miter;stroke-width:0.8;"/>
   </g>
   <g id="patch_27">
    <path d="M 213.28 74.238791 
L 213.28 10.997581 
" style="fill:none;stroke:#000000;stroke-linecap:square;stroke-linejoin:miter;stroke-width:0.8;"/>
   </g>
   <g id="patch_28">
    <path d="M 149.74 74.238791 
L 213.28 74.238791 
" style="fill:none;stroke:#000000;stroke-linecap:square;stroke-linejoin:miter;stroke-width:0.8;"/>
   </g>
   <g id="patch_29">
    <path d="M 149.74 10.997581 
L 213.28 10.997581 
" style="fill:none;stroke:#000000;stroke-linecap:square;stroke-linejoin:miter;stroke-width:0.8;"/>
   </g>
  </g>
  <g id="axes_7">
   <g id="matplotlib.axis_11">
    <g id="ytick_32">
     <g id="line2d_52">
      <g>
       <use style="stroke:#000000;stroke-width:0.8;" x="103.88" xlink:href="#m91904ce504" y="174.04"/>
      </g>
     </g>
     <g id="text_55">
      <!-- 0 -->
      <g transform="translate(110.88 175.939609)scale(0.05 -0.05)">
       <use xlink:href="#DejaVuSans-48"/>
      </g>
     </g>
    </g>
    <g id="ytick_33">
     <g id="line2d_53">
      <g>
       <use style="stroke:#000000;stroke-width:0.8;" x="103.88" xlink:href="#m91904ce504" y="160.946582"/>
      </g>
     </g>
     <g id="text_56">
      <!-- 20 -->
      <g transform="translate(110.88 162.846191)scale(0.05 -0.05)">
       <use xlink:href="#DejaVuSans-50"/>
       <use x="63.623047" xlink:href="#DejaVuSans-48"/>
      </g>
     </g>
    </g>
    <g id="ytick_34">
     <g id="line2d_54">
      <g>
       <use style="stroke:#000000;stroke-width:0.8;" x="103.88" xlink:href="#m91904ce504" y="147.853164"/>
      </g>
     </g>
     <g id="text_57">
      <!-- 40 -->
      <g transform="translate(110.88 149.752773)scale(0.05 -0.05)">
       <use xlink:href="#DejaVuSans-52"/>
       <use x="63.623047" xlink:href="#DejaVuSans-48"/>
      </g>
     </g>
    </g>
    <g id="ytick_35">
     <g id="line2d_55">
      <g>
       <use style="stroke:#000000;stroke-width:0.8;" x="103.88" xlink:href="#m91904ce504" y="134.759746"/>
      </g>
     </g>
     <g id="text_58">
      <!-- 60 -->
      <g transform="translate(110.88 136.659355)scale(0.05 -0.05)">
       <use xlink:href="#DejaVuSans-54"/>
       <use x="63.623047" xlink:href="#DejaVuSans-48"/>
      </g>
     </g>
    </g>
    <g id="ytick_36">
     <g id="line2d_56">
      <g>
       <use style="stroke:#000000;stroke-width:0.8;" x="103.88" xlink:href="#m91904ce504" y="121.666328"/>
      </g>
     </g>
     <g id="text_59">
      <!-- 80 -->
      <g transform="translate(110.88 123.565937)scale(0.05 -0.05)">
       <use xlink:href="#DejaVuSans-56"/>
       <use x="63.623047" xlink:href="#DejaVuSans-48"/>
      </g>
     </g>
    </g>
   </g>
   <g id="patch_30">
    <path d="M 40.34 174.04 
L 40.34 110.798791 
" style="fill:none;stroke:#000000;stroke-linecap:square;stroke-linejoin:miter;stroke-width:0.8;"/>
   </g>
   <g id="patch_31">
    <path d="M 103.88 174.04 
L 103.88 110.798791 
" style="fill:none;stroke:#000000;stroke-linecap:square;stroke-linejoin:miter;stroke-width:0.8;"/>
   </g>
   <g id="patch_32">
    <path d="M 40.34 174.04 
L 103.88 174.04 
" style="fill:none;stroke:#000000;stroke-linecap:square;stroke-linejoin:miter;stroke-width:0.8;"/>
   </g>
   <g id="patch_33">
    <path d="M 40.34 110.798791 
L 103.88 110.798791 
" style="fill:none;stroke:#000000;stroke-linecap:square;stroke-linejoin:miter;stroke-width:0.8;"/>
   </g>
  </g>
  <g id="axes_8">
   <g id="matplotlib.axis_12">
    <g id="ytick_37">
     <g id="line2d_57">
      <g>
       <use style="stroke:#000000;stroke-width:0.8;" x="213.28" xlink:href="#m91904ce504" y="174.04"/>
      </g>
     </g>
     <g id="text_60">
      <!-- 0 -->
      <g transform="translate(220.28 175.939609)scale(0.05 -0.05)">
       <use xlink:href="#DejaVuSans-48"/>
      </g>
     </g>
    </g>
    <g id="ytick_38">
     <g id="line2d_58">
      <g>
       <use style="stroke:#000000;stroke-width:0.8;" x="213.28" xlink:href="#m91904ce504" y="158.596481"/>
      </g>
     </g>
     <g id="text_61">
      <!-- 10 -->
      <g transform="translate(220.28 160.496091)scale(0.05 -0.05)">
       <use xlink:href="#DejaVuSans-49"/>
       <use x="63.623047" xlink:href="#DejaVuSans-48"/>
      </g>
     </g>
    </g>
    <g id="ytick_39">
     <g id="line2d_59">
      <g>
       <use style="stroke:#000000;stroke-width:0.8;" x="213.28" xlink:href="#m91904ce504" y="143.152962"/>
      </g>
     </g>
     <g id="text_62">
      <!-- 20 -->
      <g transform="translate(220.28 145.052572)scale(0.05 -0.05)">
       <use xlink:href="#DejaVuSans-50"/>
       <use x="63.623047" xlink:href="#DejaVuSans-48"/>
      </g>
     </g>
    </g>
    <g id="ytick_40">
     <g id="line2d_60">
      <g>
       <use style="stroke:#000000;stroke-width:0.8;" x="213.28" xlink:href="#m91904ce504" y="127.709444"/>
      </g>
     </g>
     <g id="text_63">
      <!-- 30 -->
      <g transform="translate(220.28 129.609053)scale(0.05 -0.05)">
       <use xlink:href="#DejaVuSans-51"/>
       <use x="63.623047" xlink:href="#DejaVuSans-48"/>
      </g>
     </g>
    </g>
    <g id="ytick_41">
     <g id="line2d_61">
      <g>
       <use style="stroke:#000000;stroke-width:0.8;" x="213.28" xlink:href="#m91904ce504" y="112.265925"/>
      </g>
     </g>
     <g id="text_64">
      <!-- 40 -->
      <g transform="translate(220.28 114.165534)scale(0.05 -0.05)">
       <use xlink:href="#DejaVuSans-52"/>
       <use x="63.623047" xlink:href="#DejaVuSans-48"/>
      </g>
     </g>
    </g>
    <g id="text_65">
     <!-- # of contacts -->
     <g transform="translate(235.961406 165.871583)rotate(-90)scale(0.07 -0.07)">
      <use xlink:href="#DejaVuSans-35"/>
      <use x="83.789062" xlink:href="#DejaVuSans-32"/>
      <use x="115.576172" xlink:href="#DejaVuSans-111"/>
      <use x="176.757812" xlink:href="#DejaVuSans-102"/>
      <use x="211.962891" xlink:href="#DejaVuSans-32"/>
      <use x="243.75" xlink:href="#DejaVuSans-99"/>
      <use x="298.730469" xlink:href="#DejaVuSans-111"/>
      <use x="359.912109" xlink:href="#DejaVuSans-110"/>
      <use x="423.291016" xlink:href="#DejaVuSans-116"/>
      <use x="462.5" xlink:href="#DejaVuSans-97"/>
      <use x="523.779297" xlink:href="#DejaVuSans-99"/>
      <use x="578.759766" xlink:href="#DejaVuSans-116"/>
      <use x="617.96875" xlink:href="#DejaVuSans-115"/>
     </g>
    </g>
   </g>
   <g id="patch_34">
    <path d="M 149.74 174.04 
L 149.74 110.798791 
" style="fill:none;stroke:#000000;stroke-linecap:square;stroke-linejoin:miter;stroke-width:0.8;"/>
   </g>
   <g id="patch_35">
    <path d="M 213.28 174.04 
L 213.28 110.798791 
" style="fill:none;stroke:#000000;stroke-linecap:square;stroke-linejoin:miter;stroke-width:0.8;"/>
   </g>
   <g id="patch_36">
    <path d="M 149.74 174.04 
L 213.28 174.04 
" style="fill:none;stroke:#000000;stroke-linecap:square;stroke-linejoin:miter;stroke-width:0.8;"/>
   </g>
   <g id="patch_37">
    <path d="M 149.74 110.798791 
L 213.28 110.798791 
" style="fill:none;stroke:#000000;stroke-linecap:square;stroke-linejoin:miter;stroke-width:0.8;"/>
   </g>
  </g>
 </g>
 <defs>
  <clipPath id="p0b56d3d139">
   <rect height="63.241209" width="63.54" x="40.34" y="10.997581"/>
  </clipPath>
  <clipPath id="p40cb6fbf0f">
   <rect height="63.241209" width="63.54" x="149.74" y="10.997581"/>
  </clipPath>
  <clipPath id="p1ba0803c8f">
   <rect height="63.241209" width="63.54" x="40.34" y="110.798791"/>
  </clipPath>
  <clipPath id="pdfe8dd5d43">
   <rect height="63.241209" width="63.54" x="149.74" y="110.798791"/>
  </clipPath>
 </defs>
</svg>
